<svg width="50" height="50" viewBox="0 0 50 50" fill="none" xmlns="http://www.w3.org/2000/svg">
<path d="M0.683594 22.5816C0.683594 21.7599 1.34974 21.0938 2.17148 21.0938C2.99322 21.0938 3.65937 21.7599 3.65937 22.5816V27.4184C3.65937 28.2401 2.99322 28.9062 2.17148 28.9062C1.34974 28.9062 0.683594 28.2401 0.683594 27.4184V22.5816Z" fill="white"/>
<path d="M6.39062 17.9676C6.39062 17.1458 7.05678 16.4797 7.87852 16.4797C8.70025 16.4797 9.36641 17.1458 9.36641 17.9676V32.0328C9.36641 32.8545 8.70025 33.5207 7.87852 33.5207C7.05678 33.5207 6.39062 32.8545 6.39062 32.0328V17.9676Z" fill="white"/>
<path d="M12.098 12.6336C12.098 11.8118 12.7642 11.1457 13.5859 11.1457C14.4077 11.1457 15.0738 11.8118 15.0738 12.6336V37.366C15.0738 38.1877 14.4077 38.8539 13.5859 38.8539C12.7642 38.8539 12.098 38.1877 12.098 37.366V12.6336Z" fill="white"/>
<path d="M17.8051 17.9676C17.8051 17.1458 18.4712 16.4797 19.2929 16.4797C20.1147 16.4797 20.7808 17.1458 20.7808 17.9676V32.0328C20.7808 32.8545 20.1147 33.5207 19.2929 33.5207C18.4712 33.5207 17.8051 32.8545 17.8051 32.0328V17.9676Z" fill="white"/>
<path d="M23.5121 12.6336C23.5121 11.8118 24.1782 11.1457 25 11.1457C25.8217 11.1457 26.4879 11.8118 26.4879 12.6336V37.366C26.4879 38.1877 25.8217 38.8539 25 38.8539C24.1782 38.8539 23.5121 38.1877 23.5121 37.366V12.6336Z" fill="white"/>
<path d="M29.2191 17.9676C29.2191 17.1458 29.8853 16.4797 30.707 16.4797C31.5287 16.4797 32.1949 17.1458 32.1949 17.9676V32.0328C32.1949 32.8545 31.5287 33.5207 30.707 33.5207C29.8853 33.5207 29.2191 32.8545 29.2191 32.0328V17.9676Z" fill="white"/>
<path d="M34.9265 12.6336C34.9265 11.8118 35.5927 11.1457 36.4144 11.1457C37.2361 11.1457 37.9023 11.8118 37.9023 12.6336V37.366C37.9023 38.1877 37.2361 38.8539 36.4144 38.8539C35.5927 38.8539 34.9265 38.1877 34.9265 37.366V12.6336Z" fill="white"/>
<path d="M40.6335 17.9676C40.6335 17.1458 41.2997 16.4797 42.1214 16.4797C42.9432 16.4797 43.6093 17.1458 43.6093 17.9676V32.0328C43.6093 32.8545 42.9432 33.5207 42.1214 33.5207C41.2997 33.5207 40.6335 32.8545 40.6335 32.0328V17.9676Z" fill="white"/>
<path d="M46.3406 22.5816C46.3406 21.7599 47.0067 21.0938 47.8285 21.0938C48.6502 21.0938 49.3164 21.7599 49.3164 22.5816V27.4184C49.3164 28.2401 48.6502 28.9062 47.8285 28.9062C47.0067 28.9062 46.3406 28.2401 46.3406 27.4184V22.5816Z" fill="white"/>
</svg>
