<svg width="50" height="28" viewBox="0 0 50 28" fill="none" xmlns="http://www.w3.org/2000/svg">
<path d="M0.683594 11.5816C0.683594 10.7599 1.34974 10.0938 2.17148 10.0938C2.99322 10.0938 3.65937 10.7599 3.65937 11.5816V16.4184C3.65937 17.2401 2.99322 17.9062 2.17148 17.9062C1.34974 17.9062 0.683594 17.2401 0.683594 16.4184V11.5816Z" fill="white"/>
<path d="M6.39062 6.96756C6.39062 6.14583 7.05678 5.47968 7.87852 5.47968C8.70025 5.47968 9.36641 6.14583 9.36641 6.96756V21.0328C9.36641 21.8545 8.70025 22.5207 7.87852 22.5207C7.05678 22.5207 6.39062 21.8545 6.39062 21.0328V6.96756Z" fill="white"/>
<path d="M12.098 1.63358C12.098 0.811843 12.7642 0.145691 13.5859 0.145691C14.4077 0.145691 15.0738 0.811842 15.0738 1.63358V26.366C15.0738 27.1877 14.4077 27.8539 13.5859 27.8539C12.7642 27.8539 12.098 27.1877 12.098 26.366V1.63358Z" fill="white"/>
<path d="M17.8051 6.96757C17.8051 6.14583 18.4712 5.47968 19.2929 5.47968C20.1147 5.47968 20.7808 6.14583 20.7808 6.96757V21.0328C20.7808 21.8545 20.1147 22.5207 19.2929 22.5207C18.4712 22.5207 17.8051 21.8545 17.8051 21.0328V6.96757Z" fill="white"/>
<path d="M23.5121 1.63358C23.5121 0.811841 24.1782 0.145691 25 0.145691C25.8217 0.145691 26.4879 0.811841 26.4879 1.63358V26.366C26.4879 27.1877 25.8217 27.8539 25 27.8539C24.1782 27.8539 23.5121 27.1877 23.5121 26.366V1.63358Z" fill="white"/>
<path d="M29.2191 6.96756C29.2191 6.14583 29.8853 5.47968 30.707 5.47968C31.5287 5.47968 32.1949 6.14583 32.1949 6.96756V21.0328C32.1949 21.8545 31.5287 22.5207 30.707 22.5207C29.8853 22.5207 29.2191 21.8545 29.2191 21.0328V6.96756Z" fill="white"/>
<path d="M34.9265 1.63358C34.9265 0.811844 35.5927 0.145691 36.4144 0.145691C37.2361 0.145691 37.9023 0.811842 37.9023 1.63358V26.366C37.9023 27.1877 37.2361 27.8539 36.4144 27.8539C35.5927 27.8539 34.9265 27.1877 34.9265 26.366V1.63358Z" fill="white"/>
<path d="M40.6335 6.96756C40.6335 6.14583 41.2997 5.47968 42.1214 5.47968C42.9432 5.47968 43.6093 6.14583 43.6093 6.96756V21.0328C43.6093 21.8545 42.9432 22.5207 42.1214 22.5207C41.2997 22.5207 40.6335 21.8545 40.6335 21.0328V6.96756Z" fill="white"/>
<path d="M46.3406 11.5816C46.3406 10.7599 47.0067 10.0938 47.8285 10.0938C48.6502 10.0938 49.3164 10.7599 49.3164 11.5816V16.4184C49.3164 17.2401 48.6502 17.9062 47.8285 17.9062C47.0067 17.9062 46.3406 17.2401 46.3406 16.4184V11.5816Z" fill="white"/>
</svg>
