<svg width="23" height="20" viewBox="0 0 23 20" fill="none" xmlns="http://www.w3.org/2000/svg">
<path d="M14.6667 4.44899H4.01119L6.56675 1.90455C6.67035 1.80095 6.75253 1.67796 6.80859 1.5426C6.86466 1.40724 6.89352 1.26217 6.89352 1.11566C6.89352 0.969147 6.86466 0.824072 6.80859 0.688714C6.75253 0.553356 6.67035 0.430367 6.56675 0.326768C6.46315 0.22317 6.34016 0.140991 6.2048 0.0849243C6.06945 0.0288573 5.92437 0 5.77786 0C5.63135 0 5.48628 0.0288573 5.35092 0.0849243C5.21556 0.140991 5.09257 0.22317 4.98897 0.326768L0.544528 4.77121C0.443371 4.87688 0.364077 5.00149 0.311194 5.13788C0.200063 5.40839 0.200063 5.71181 0.311194 5.98232C0.364077 6.11871 0.443371 6.24332 0.544528 6.34899L4.98897 10.7934C5.09226 10.8976 5.21515 10.9802 5.35055 11.0366C5.48595 11.0931 5.63118 11.1221 5.77786 11.1221C5.92454 11.1221 6.06977 11.0931 6.20517 11.0366C6.34057 10.9802 6.46346 10.8976 6.56675 10.7934C6.67089 10.6901 6.75355 10.5673 6.80996 10.4319C6.86637 10.2965 6.89541 10.1512 6.89541 10.0045C6.89541 9.85787 6.86637 9.71264 6.80996 9.57724C6.75355 9.44184 6.67089 9.31895 6.56675 9.21566L4.01119 6.67121H14.6667C16.1402 6.67121 17.5533 7.25653 18.5951 8.2984C19.637 9.34027 20.2223 10.7533 20.2223 12.2268C20.2223 13.7002 19.637 15.1133 18.5951 16.1551C17.5533 17.197 16.1402 17.7823 14.6667 17.7823H1.33342C1.03873 17.7823 0.756116 17.8994 0.547742 18.1078C0.339368 18.3161 0.222305 18.5988 0.222305 18.8934C0.222305 19.1881 0.339368 19.4707 0.547742 19.6791C0.756116 19.8875 1.03873 20.0045 1.33342 20.0045H14.6667C16.7295 20.0045 18.7079 19.1851 20.1665 17.7265C21.6251 16.2679 22.4445 14.2896 22.4445 12.2268C22.4445 10.164 21.6251 8.18567 20.1665 6.72705C18.7079 5.26843 16.7295 4.44899 14.6667 4.44899Z" fill="#98989C"/>
</svg>
