<svg width="28" height="36" viewBox="0 0 28 36" fill="none" xmlns="http://www.w3.org/2000/svg">
<path d="M24.5004 0H3.6128C1.91165 0 0.417969 1.39946 0.417969 3.05596V33.9551C0.417969 34.5095 0.572295 34.9717 0.821015 35.3287C1.11846 35.7555 1.5974 36.0002 2.11097 36C2.59653 36 3.11349 35.7839 3.5909 35.3761L12.936 27.4416C13.2246 27.1951 13.6392 27.0539 14.0703 27.0539C14.5012 27.0539 14.9149 27.1951 15.2044 27.4423L24.5182 35.3749C24.9974 35.7839 25.4787 36.0002 25.9634 36.0002C26.7831 36.0002 27.582 35.3679 27.582 33.9552V3.05596C27.582 1.39946 26.2016 0 24.5004 0Z" fill="#03CBC9"/>
</svg>
