<svg width="20" height="24" viewBox="0 0 20 24" fill="none" xmlns="http://www.w3.org/2000/svg">
<path d="M17.0003 0H3.0752C1.9411 0 0.945312 0.932972 0.945312 2.0373V22.6367C0.945312 23.0064 1.0482 23.3144 1.21401 23.5525C1.41231 23.837 1.7316 24.0001 2.07398 24C2.39768 24 2.74233 23.8559 3.0606 23.5841L9.29067 18.2944C9.48309 18.1301 9.75948 18.0359 10.0469 18.0359C10.3341 18.0359 10.6099 18.1301 10.8029 18.2949L17.0122 23.5833C17.3316 23.8559 17.6524 24.0001 17.9756 24.0001C18.522 24.0001 19.0547 23.5786 19.0547 22.6368V2.0373C19.0547 0.932972 18.1344 0 17.0003 0Z" fill="white"/>
</svg>
