<svg width="20" height="24" viewBox="0 0 20 24" fill="none" xmlns="http://www.w3.org/2000/svg">
<path d="M2.07381 23.5H2.07398C2.24877 23.5 2.48248 23.4203 2.73585 23.2039L2.73698 23.2029L8.96594 17.9142C8.96622 17.914 8.96649 17.9138 8.96676 17.9135C9.26231 17.6615 9.65862 17.5359 10.0469 17.5359C10.4356 17.5359 10.8313 17.6618 11.1271 17.9142L2.07381 23.5ZM2.07381 23.5C1.89266 23.5001 1.72765 23.415 1.62422 23.2666C1.52057 23.1178 1.44531 22.9108 1.44531 22.6367V2.0373C1.44531 1.23283 2.19291 0.5 3.0752 0.5H17.0003C17.8589 0.5 18.5547 1.20981 18.5547 2.0373V22.6368C18.5547 23.0135 18.4495 23.2252 18.349 23.3365C18.249 23.4472 18.1177 23.5001 17.9756 23.5001C17.8097 23.5001 17.5998 23.4275 17.3368 23.203L17.3364 23.2026L11.1276 17.9146L2.07381 23.5Z" stroke="white"/>
</svg>
