<svg width="24" height="24" viewBox="0 0 24 24" fill="none" xmlns="http://www.w3.org/2000/svg">
<g clip-path="url(#clip0)">
<path d="M4.07381 23.5H4.07398C4.24877 23.5 4.48248 23.4203 4.73585 23.2039L4.73698 23.2029L10.9659 17.9142C10.9662 17.914 10.9665 17.9138 10.9668 17.9135C11.2623 17.6615 11.6586 17.5359 12.0469 17.5359C12.4356 17.5359 12.8313 17.6618 13.1271 17.9142L4.07381 23.5ZM4.07381 23.5C3.89266 23.5001 3.72765 23.415 3.62422 23.2666C3.52057 23.1178 3.44531 22.9108 3.44531 22.6367V2.0373C3.44531 1.23283 4.19291 0.5 5.0752 0.5H19.0003C19.8589 0.5 20.5547 1.20981 20.5547 2.0373V22.6368C20.5547 23.0135 20.4495 23.2252 20.349 23.3365C20.249 23.4472 20.1177 23.5001 19.9756 23.5001C19.8097 23.5001 19.5998 23.4275 19.3368 23.203L19.3364 23.2026L13.1276 17.9146L4.07381 23.5Z" stroke="#252525"/>
</g>
<defs>
<clipPath id="clip0">
<rect width="24" height="24" fill="white"/>
</clipPath>
</defs>
</svg>
