<svg width="28" height="28" viewBox="0 0 28 28" fill="none" xmlns="http://www.w3.org/2000/svg">
<rect width="28" height="28" rx="14" fill="white"/>
<g clip-path="url(#clip0)">
<path d="M18.6669 6H9.38355C8.62748 6 7.96362 6.62198 7.96362 7.3582V21.0911C7.96362 21.3376 8.03221 21.543 8.14275 21.7016C8.27495 21.8913 8.48781 22.0001 8.71607 22C8.93187 22 9.16163 21.9039 9.37381 21.7227L13.5272 18.1963C13.6555 18.0867 13.8397 18.0239 14.0313 18.0239C14.2228 18.0239 14.4067 18.0867 14.5354 18.1966L18.6749 21.7222C18.8878 21.9039 19.1017 22.0001 19.3171 22.0001C19.6814 22.0001 20.0365 21.7191 20.0365 21.0912V7.3582C20.0365 6.62198 19.423 6 18.6669 6Z" fill="#03CBC9"/>
</g>
<defs>
<clipPath id="clip0">
<rect width="16" height="16" fill="white" transform="translate(6 6)"/>
</clipPath>
</defs>
</svg>
