<svg width="14" height="14" viewBox="0 0 14 14" fill="none" xmlns="http://www.w3.org/2000/svg">
<path d="M5.64491 10.2368C5.64396 10.2377 5.64278 10.2388 5.6416 10.2399L5.77263 10.986L6.51863 11.1168C6.51975 11.1159 6.52067 11.1148 6.52178 11.1135L6.37937 10.3792L5.64491 10.2368Z" fill="#03CBC9"/>
<path d="M12.2519 4.50678C9.3564 1.61146 7.69454 3.09915 7.42635 4.10908C7.29815 4.59173 7.31043 4.79234 7.31043 4.79234C6.87519 4.57805 5.7643 4.27683 4.81033 7.77767L2.75854 10.3037C3.21838 11.0973 3.74583 11.7913 4.35654 12.4022C4.96732 13.0127 5.6615 13.5403 6.45491 14.0001L8.98088 11.9484C9.80058 11.5675 11.1331 11.4167 11.9849 10.5646C13.7314 8.81793 14.8727 7.12753 12.2519 4.50678ZM8.15931 10.7226C7.98711 10.8947 7.70806 10.8947 7.53593 10.7226C7.4952 10.6819 7.46434 10.635 7.44299 10.585L6.90447 10.4807L7.00873 11.0191C7.05866 11.0408 7.10559 11.0716 7.14628 11.1123C7.31848 11.2844 7.31848 11.5635 7.14628 11.7357C6.97412 11.9079 6.6951 11.9079 6.52294 11.7357C6.48412 11.6969 6.45462 11.6525 6.43331 11.6052L5.86408 11.5055L5.96393 12.0746C6.01118 12.0958 6.05563 12.1253 6.09441 12.1643C6.26655 12.3364 6.26655 12.6155 6.09438 12.7876C5.92221 12.9598 5.64317 12.9597 5.47103 12.7876C5.29887 12.6155 5.29887 12.3364 5.47103 12.1643C5.47246 12.1627 5.47412 12.1616 5.47558 12.1601L5.34462 11.4141L4.59855 11.283C4.59718 11.2846 4.59591 11.2861 4.59448 11.2876C4.42228 11.4598 4.14327 11.4598 3.97107 11.2876C3.79893 11.1155 3.7989 10.8364 3.97107 10.6643C4.14327 10.4921 4.42228 10.4921 4.59448 10.6643C4.6333 10.703 4.66285 10.7474 4.68408 10.7947L5.25346 10.8946L5.15342 10.3254C5.10624 10.3041 5.06185 10.2744 5.02303 10.2357C4.85093 10.0636 4.85084 9.7845 5.02303 9.61233C5.1952 9.44019 5.47425 9.44019 5.64638 9.61233C5.6872 9.65309 5.71797 9.6998 5.73942 9.74997L6.27797 9.85418L6.17354 9.31578C6.12362 9.29418 6.07678 9.26341 6.03596 9.22259C5.86386 9.05039 5.86389 8.77135 6.03596 8.59921C6.2081 8.42701 6.48717 8.42708 6.65931 8.59921C6.83113 8.77106 6.83141 9.04925 6.66039 9.22151L6.80271 9.9558L7.53711 10.0983C7.70937 9.92707 7.98758 9.92771 8.15931 10.0992C8.33141 10.2713 8.33144 10.5504 8.15931 10.7226Z" fill="#03CBC9"/>
<path d="M3.65432 8.49305L3.46758 8.25244L2.74805 8.45719C2.74763 8.45878 2.747 8.46005 2.74658 8.46165L3.19416 9.05954L3.65432 8.49305Z" fill="#03CBC9"/>
<path d="M2.00405 9.31362C2.05623 9.33071 2.10259 9.3569 2.14303 9.38957L2.6959 9.22135L2.34956 8.75872C2.29789 8.76101 2.24491 8.75487 2.19273 8.73765C1.96138 8.66183 1.83528 8.41295 1.91107 8.18154C1.9869 7.95013 2.23584 7.824 2.46722 7.89989C2.52192 7.9178 2.57069 7.94583 2.61234 7.98058L3.13986 7.8303L2.80351 7.39716C2.74932 7.4006 2.69351 7.39439 2.63879 7.37638C2.40744 7.30059 2.28137 7.05165 2.35716 6.82024C2.43299 6.58889 2.68193 6.46289 2.91328 6.53858C3.14396 6.61406 3.26999 6.86214 3.19525 7.09308L3.65407 7.68413L4.37347 7.47912C4.39594 7.41157 4.43342 7.35344 4.48067 7.30629C4.88628 5.97531 5.31379 5.24881 5.31379 5.24881C5.31379 5.24881 4.87257 4.06989 3.52854 4.59485C5.11996 3.84086 3.96397 2.63473 3.96397 2.63473C3.96397 2.63473 5.3325 3.67661 6.65467 4.24501C6.71986 4.23527 6.78576 4.22987 6.85245 4.22987C6.88083 4.22987 6.90908 4.23076 6.93734 4.2326C6.95312 4.1605 6.97221 4.08128 6.99525 3.99444C7.1796 3.3004 7.80985 2.5599 8.79322 2.4017C8.46629 1.66816 7.68503 0.895336 6.05327 0.360729C2.53118 -0.793247 1.53874 0.988785 0.769571 3.33572C0.3945 4.48088 0.86178 5.73775 0.892516 6.6411L0.203369 9.82144C0.972093 10.3216 1.75609 10.7024 2.5769 10.9713C2.60461 10.9805 2.63245 10.989 2.66026 10.9979C2.56191 10.8451 2.46608 10.6883 2.3726 10.527L2.2185 10.261L2.62424 9.76146L2.28726 9.86392C2.28659 9.86576 2.28634 9.8678 2.28567 9.86971C2.20985 10.1011 1.9609 10.2272 1.72949 10.1513C1.49817 10.0755 1.37208 9.82663 1.4479 9.59525C1.52366 9.3638 1.7727 9.23767 2.00405 9.31362Z" fill="#03CBC9"/>
</svg>
