<svg width="33" height="35" viewBox="0 0 33 35" fill="none" xmlns="http://www.w3.org/2000/svg">
<path d="M29.853 5.56104H24.706V3.95687C24.7076 3.74733 24.6351 3.54448 24.5022 3.38678C24.3694 3.22908 24.1855 3.12751 23.9854 3.10132C23.767 3.10132 23.5575 3.19146 23.4031 3.3519C23.2486 3.51235 23.1619 3.72997 23.1619 3.95687V5.56104H9.77951V3.95687C9.78109 3.74733 9.7086 3.54448 9.57578 3.38678C9.44296 3.22908 9.25905 3.12751 9.05893 3.10132C8.84817 3.12455 8.65145 3.22216 8.50158 3.37785C8.35171 3.53355 8.25776 3.73792 8.2354 3.95687V5.56104H3.08834C2.98439 5.55993 2.88144 5.5822 2.78655 5.62632C2.69167 5.67044 2.6071 5.73537 2.53864 5.81665C2.47019 5.89792 2.41947 5.99363 2.38997 6.09719C2.36047 6.20074 2.35289 6.30971 2.36775 6.4166V30.7999C2.36617 31.0095 2.43866 31.2123 2.57148 31.37C2.7043 31.5277 2.88822 31.6293 3.08834 31.6555H29.853C30.0532 31.6293 30.2371 31.5277 30.3699 31.37C30.5027 31.2123 30.5752 31.0095 30.5736 30.7999V6.4166C30.5885 6.30971 30.5809 6.20074 30.5514 6.09719C30.5219 5.99363 30.4712 5.89792 30.4027 5.81665C30.3343 5.73537 30.2497 5.67044 30.1548 5.62632C30.0599 5.5822 29.957 5.55993 29.853 5.56104ZM29.0295 30.0513H3.91187V7.16521H8.2354V8.76937C8.2354 8.99628 8.32216 9.2139 8.4766 9.37434C8.63104 9.53479 8.84051 9.62493 9.05893 9.62493C9.16287 9.62604 9.26582 9.60377 9.36071 9.55965C9.45559 9.51553 9.54016 9.4506 9.60862 9.36932C9.67707 9.28805 9.72779 9.19234 9.75729 9.08878C9.78679 8.98523 9.79437 8.87626 9.77951 8.76937V7.16521H23.1619V8.76937C23.1443 8.8859 23.1534 9.00509 23.1886 9.11723C23.2238 9.22938 23.2839 9.33131 23.3642 9.41471C23.4445 9.49811 23.5426 9.56062 23.6506 9.59715C23.7585 9.63369 23.8732 9.6432 23.9854 9.62493C24.0893 9.62604 24.1923 9.60377 24.2872 9.55965C24.3821 9.51553 24.4666 9.4506 24.5351 9.36932C24.6035 9.28805 24.6543 9.19234 24.6838 9.08878C24.7133 8.98523 24.7208 8.87626 24.706 8.76937V7.16521H29.0295V30.0513Z" fill="#7E7673"/>
<path d="M10.706 11.3361H6.79423C6.59254 11.3345 6.39727 11.4098 6.24548 11.5478C6.09368 11.6858 5.99591 11.8768 5.9707 12.0847V16.2556C5.99307 16.4745 6.08702 16.6789 6.23689 16.8346C6.38675 16.9903 6.58347 17.0879 6.79423 17.1111H10.706C10.8141 17.1111 10.9212 17.089 11.0211 17.046C11.1211 17.003 11.2118 16.94 11.2883 16.8605C11.3648 16.7811 11.4254 16.6868 11.4668 16.583C11.5082 16.4792 11.5295 16.3679 11.5295 16.2556V12.0847C11.5306 11.9767 11.5092 11.8698 11.4667 11.7712C11.4242 11.6726 11.3617 11.5848 11.2835 11.5137C11.2052 11.4425 11.1131 11.3898 11.0134 11.3592C10.9138 11.3286 10.8089 11.3207 10.706 11.3361ZM9.98541 15.5069H7.51482V12.9403H9.98541V15.5069Z" fill="#7E7673"/>
<path d="M18.4267 11.3361H14.515C14.4121 11.3207 14.3072 11.3286 14.2075 11.3592C14.1078 11.3898 14.0157 11.4425 13.9375 11.5137C13.8592 11.5848 13.7968 11.6726 13.7543 11.7712C13.7118 11.8698 13.6904 11.9767 13.6914 12.0847V16.2556C13.6914 16.4825 13.7782 16.7001 13.9326 16.8605C14.0871 17.021 14.2966 17.1111 14.515 17.1111H18.4267C18.6451 17.1111 18.8546 17.021 19.0091 16.8605C19.1635 16.7001 19.2503 16.4825 19.2503 16.2556V12.0847C19.2513 11.9767 19.2299 11.8698 19.1874 11.7712C19.145 11.6726 19.0825 11.5848 19.0042 11.5137C18.926 11.4425 18.8339 11.3898 18.7342 11.3592C18.6345 11.3286 18.5296 11.3207 18.4267 11.3361ZM17.7061 15.5069H15.2356V12.9403H17.7061V15.5069Z" fill="#7E7673"/>
<path d="M21.4121 12.0847V16.2556C21.4121 16.4825 21.4989 16.7001 21.6534 16.8605C21.8078 17.021 22.0173 17.1111 22.2357 17.1111H26.1474C26.3582 17.0879 26.5549 16.9903 26.7048 16.8346C26.8547 16.6789 26.9486 16.4745 26.971 16.2556V12.0847C26.9458 11.8768 26.848 11.6858 26.6962 11.5478C26.5444 11.4098 26.3491 11.3345 26.1474 11.3361H22.2357C22.1328 11.3207 22.0279 11.3286 21.9282 11.3592C21.8285 11.3898 21.7364 11.4425 21.6582 11.5137C21.58 11.5848 21.5175 11.6726 21.475 11.7712C21.4325 11.8698 21.4111 11.9767 21.4121 12.0847ZM22.9563 12.9403H25.4269V15.5069H22.9563V12.9403Z" fill="#7E7673"/>
<path d="M10.706 20.5333H6.79423C6.59254 20.5317 6.39727 20.607 6.24548 20.745C6.09368 20.883 5.99591 21.074 5.9707 21.2819V25.4528C5.99307 25.6717 6.08702 25.8761 6.23689 26.0318C6.38675 26.1875 6.58347 26.2851 6.79423 26.3083H10.706C10.8141 26.3083 10.9212 26.2862 11.0211 26.2432C11.1211 26.2002 11.2118 26.1372 11.2883 26.0577C11.3648 25.9783 11.4254 25.884 11.4668 25.7802C11.5082 25.6764 11.5295 25.5651 11.5295 25.4528V21.2819C11.5306 21.1739 11.5092 21.067 11.4667 20.9684C11.4242 20.8698 11.3617 20.782 11.2835 20.7109C11.2052 20.6397 11.1131 20.5871 11.0134 20.5564C10.9138 20.5258 10.8089 20.5179 10.706 20.5333ZM9.98541 24.7042H7.51482V22.1375H9.98541V24.7042Z" fill="#7E7673"/>
<path d="M18.4267 20.5333H14.515C14.4121 20.5179 14.3072 20.5258 14.2075 20.5564C14.1078 20.5871 14.0157 20.6397 13.9375 20.7109C13.8592 20.782 13.7968 20.8698 13.7543 20.9684C13.7118 21.067 13.6904 21.1739 13.6914 21.2819V25.4528C13.6914 25.6797 13.7782 25.8973 13.9326 26.0577C14.0871 26.2182 14.2966 26.3083 14.515 26.3083H18.4267C18.6451 26.3083 18.8546 26.2182 19.0091 26.0577C19.1635 25.8973 19.2503 25.6797 19.2503 25.4528V21.2819C19.2513 21.1739 19.2299 21.067 19.1874 20.9684C19.145 20.8698 19.0825 20.782 19.0042 20.7109C18.926 20.6397 18.8339 20.5871 18.7342 20.5564C18.6345 20.5258 18.5296 20.5179 18.4267 20.5333ZM17.7061 24.7042H15.2356V22.1375H17.7061V24.7042Z" fill="#7E7673"/>
<path d="M26.1474 20.5333H22.2357C22.1328 20.5179 22.0279 20.5258 21.9282 20.5564C21.8285 20.5871 21.7364 20.6397 21.6582 20.7109C21.58 20.782 21.5175 20.8698 21.475 20.9684C21.4325 21.067 21.4111 21.1739 21.4121 21.2819V25.4528C21.4121 25.6797 21.4989 25.8973 21.6534 26.0577C21.8078 26.2182 22.0173 26.3083 22.2357 26.3083H26.1474C26.3582 26.2851 26.5549 26.1875 26.7048 26.0318C26.8547 25.8761 26.9486 25.6717 26.971 25.4528V21.2819C26.9458 21.074 26.848 20.883 26.6962 20.745C26.5444 20.607 26.3491 20.5317 26.1474 20.5333ZM25.4269 24.7042H22.9563V22.1375H25.4269V24.7042Z" fill="#7E7673"/>
</svg>
