<svg width="36" height="36" viewBox="0 0 36 36" fill="none" xmlns="http://www.w3.org/2000/svg">
<path d="M0 10C0 4.47715 4.47715 0 10 0H26C31.5228 0 36 4.47715 36 10V26C36 31.5228 31.5228 36 26 36H10C4.47715 36 0 31.5228 0 26V10Z" fill="#03CBC9"/>
<path d="M14.3926 26.4114C14.0911 26.4114 13.7896 26.296 13.5599 26.0663L6.34551 18.8517C5.88483 18.3912 5.88483 17.6467 6.34551 17.1863C6.80599 16.7258 7.55029 16.7258 8.01097 17.1863L14.3926 23.5679L27.9892 9.97163C28.4496 9.51116 29.1939 9.51116 29.6546 9.97163C30.1151 10.4323 30.1151 11.1766 29.6546 11.6373L15.2256 26.0663C14.9959 26.296 14.6942 26.4114 14.3926 26.4114Z" fill="white"/>
</svg>
