<svg width="28" height="28" viewBox="0 0 28 28" fill="none" xmlns="http://www.w3.org/2000/svg">
<g clip-path="url(#clip0)">
<path d="M24.9457 2.62622H13.2553C11.9046 2.62622 10.8056 3.72516 10.8056 5.07585V12.5752L8.63496 11.4957C8.56167 11.4592 8.48716 11.4247 8.41204 11.392C9.04932 10.7267 9.44216 9.82528 9.44216 8.83353C9.44216 6.79218 7.78146 5.13128 5.7401 5.13128C3.69854 5.13128 2.03785 6.79218 2.03785 8.83353C2.03785 9.94283 2.52895 10.9392 3.30448 11.6184C1.87624 12.4219 0.785217 13.9894 0.785217 15.9313V18.4363C0.785217 19.5148 1.48543 20.4326 2.45525 20.7589V25.1167C2.45525 25.5471 2.80424 25.8963 3.23485 25.8963H8.24496C8.67556 25.8963 9.02455 25.5471 9.02455 25.1167V16.3574L11.5205 17.6052C12.4757 18.0827 13.7713 17.7981 14.3573 16.7109H17.1524L14.1926 24.8501C14.0454 25.2547 14.2543 25.7022 14.6589 25.8492C15.1214 26.0175 15.5327 25.7274 15.658 25.3831L18.8115 16.7109H19.358L22.5438 25.3855C22.6648 25.7146 23.0731 26.0216 23.5445 25.8484C23.9485 25.7 24.156 25.2521 24.0074 24.8479L21.0189 16.7109H24.9457C26.2702 16.7109 27.3954 15.6424 27.3954 14.2613V5.07585C27.3954 3.69451 26.2702 2.62622 24.9457 2.62622ZM3.59703 8.83353C3.59703 7.65176 4.55833 6.69046 5.7399 6.69046C6.92168 6.69046 7.88297 7.65176 7.88297 8.83353C7.88297 10.0151 6.92168 10.9764 5.7399 10.9764C4.55833 10.9764 3.59703 10.0151 3.59703 8.83353ZM13.0248 15.8773C13.0228 15.883 13.0208 15.8889 13.019 15.8947C12.9658 16.0432 12.8456 16.1682 12.6984 16.2287C12.5427 16.2921 12.3675 16.2854 12.2178 16.2106C10.7354 15.469 8.59334 14.3989 8.59334 14.3989C8.07604 14.1403 7.46536 14.5171 7.46536 15.0963V24.3371H4.01444V20.1064C4.01444 19.676 3.66525 19.3268 3.23485 19.3268C2.74374 19.3268 2.34441 18.9274 2.34441 18.4363V15.9313C2.34441 14.0264 3.89547 12.5358 5.7399 12.5358H6.42875C6.95132 12.5358 7.47328 12.6584 7.93962 12.8913C7.93962 12.8913 11.8065 14.8143 12.7914 15.3048C13.0023 15.4095 13.1026 15.6556 13.0248 15.8773ZM25.8362 14.2613C25.8362 14.4994 25.7438 14.7229 25.5757 14.891C25.4102 15.0567 25.1806 15.1517 24.9457 15.1517H14.5268C14.5254 15.1474 14.5243 15.1432 14.5229 15.1391L16.4577 11.2698C16.6502 10.8846 16.4942 10.4165 16.1091 10.2238C15.7242 10.0313 15.2558 10.1873 15.0632 10.5724L13.413 13.8725C13.1054 13.7192 12.7479 13.5411 12.3648 13.3507V5.07585C12.3648 4.58495 12.7642 4.18541 13.2553 4.18541H24.9457C25.1806 4.18541 25.4102 4.28042 25.5759 4.44649C25.7438 4.61419 25.8362 4.83771 25.8362 5.07585V14.2613Z" fill="black"/>
<path d="M23.2757 5.96631H14.9253C14.4947 5.96631 14.1458 6.3153 14.1458 6.7459C14.1458 7.17651 14.4947 7.5255 14.9253 7.5255H23.2757C23.7061 7.5255 24.0553 7.17651 24.0553 6.7459C24.0553 6.3153 23.7063 5.96631 23.2757 5.96631Z" fill="black"/>
<path d="M23.2757 8.88895H19.1004C18.67 8.88895 18.3208 9.23794 18.3208 9.66854C18.3208 10.0991 18.67 10.4481 19.1004 10.4481H23.2757C23.7061 10.4481 24.0553 10.0991 24.0553 9.66854C24.0553 9.23794 23.7063 8.88895 23.2757 8.88895Z" fill="black"/>
<path d="M23.2757 11.8116H19.1004C18.67 11.8116 18.3208 12.1606 18.3208 12.5912C18.3208 13.0216 18.67 13.3708 19.1004 13.3708H23.2757C23.7061 13.3708 24.0553 13.0216 24.0553 12.5912C24.0553 12.1606 23.7063 11.8116 23.2757 11.8116Z" fill="black"/>
</g>
<defs>
<clipPath id="clip0">
<rect width="26.6101" height="26.6101" fill="white" transform="translate(0.785217 0.963104)"/>
</clipPath>
</defs>
</svg>
