<svg width="28" height="28" viewBox="0 0 28 28" fill="none" xmlns="http://www.w3.org/2000/svg">
<g clip-path="url(#clip0)">
<path d="M24.9458 2.62622H13.2553C11.9046 2.62622 10.8057 3.72516 10.8057 5.07585V12.5752L8.63502 11.4957C8.56173 11.4592 8.48722 11.4247 8.4121 11.392C9.04938 10.7267 9.44222 9.82528 9.44222 8.83353C9.44222 6.79218 7.78152 5.13128 5.74017 5.13128C3.6986 5.13128 2.03791 6.79218 2.03791 8.83353C2.03791 9.94283 2.52901 10.9392 3.30454 11.6184C1.8763 12.4219 0.785278 13.9894 0.785278 15.9313V18.4363C0.785278 19.5148 1.48549 20.4326 2.45531 20.7589V25.1167C2.45531 25.5471 2.8043 25.8963 3.23491 25.8963H8.24502C8.67562 25.8963 9.02461 25.5471 9.02461 25.1167V16.3574L11.5205 17.6052C12.4757 18.0827 13.7714 17.7981 14.3573 16.7109H17.1525L14.1927 24.8501C14.0455 25.2547 14.2544 25.7022 14.659 25.8492C15.1215 26.0175 15.5328 25.7274 15.6581 25.3831L18.8116 16.7109H19.3581L22.5439 25.3855C22.6649 25.7146 23.0731 26.0216 23.5445 25.8484C23.9486 25.7 24.156 25.2521 24.0074 24.8479L21.019 16.7109H24.9458C26.2703 16.7109 27.3954 15.6424 27.3954 14.2613V5.07585C27.3954 3.69451 26.2703 2.62622 24.9458 2.62622ZM3.59709 8.83353C3.59709 7.65176 4.55839 6.69046 5.73996 6.69046C6.92174 6.69046 7.88303 7.65176 7.88303 8.83353C7.88303 10.0151 6.92174 10.9764 5.73996 10.9764C4.55839 10.9764 3.59709 10.0151 3.59709 8.83353ZM13.0249 15.8773C13.0229 15.883 13.0208 15.8889 13.019 15.8947C12.9658 16.0432 12.8456 16.1682 12.6984 16.2287C12.5427 16.2921 12.3675 16.2854 12.2179 16.2106C10.7355 15.469 8.5934 14.3989 8.5934 14.3989C8.07611 14.1403 7.46542 14.5171 7.46542 15.0963V24.3371H4.0145V20.1064C4.0145 19.676 3.66531 19.3268 3.23491 19.3268C2.7438 19.3268 2.34447 18.9274 2.34447 18.4363V15.9313C2.34447 14.0264 3.89553 12.5358 5.73996 12.5358H6.42881C6.95138 12.5358 7.47334 12.6584 7.93968 12.8913C7.93968 12.8913 11.8066 14.8143 12.7914 15.3048C13.0024 15.4095 13.1027 15.6556 13.0249 15.8773ZM25.8362 14.2613C25.8362 14.4994 25.7439 14.7229 25.5758 14.891C25.4103 15.0567 25.1807 15.1517 24.9458 15.1517H14.5268C14.5254 15.1474 14.5244 15.1432 14.523 15.1391L16.4578 11.2698C16.6502 10.8846 16.4943 10.4165 16.1092 10.2238C15.7242 10.0313 15.2559 10.1873 15.0632 10.5724L13.4131 13.8725C13.1055 13.7192 12.748 13.5411 12.3649 13.3507V5.07585C12.3649 4.58495 12.7642 4.18541 13.2553 4.18541H24.9458C25.1807 4.18541 25.4103 4.28042 25.576 4.44649C25.7439 4.61419 25.8362 4.83771 25.8362 5.07585V14.2613Z" fill="#03CBC9"/>
<path d="M23.2757 5.96631H14.9253C14.4947 5.96631 14.1458 6.3153 14.1458 6.7459C14.1458 7.17651 14.4947 7.5255 14.9253 7.5255H23.2757C23.7061 7.5255 24.0553 7.17651 24.0553 6.7459C24.0553 6.3153 23.7063 5.96631 23.2757 5.96631Z" fill="#03CBC9"/>
<path d="M23.2757 8.88892H19.1004C18.67 8.88892 18.3208 9.23791 18.3208 9.66851C18.3208 10.0991 18.67 10.4481 19.1004 10.4481H23.2757C23.7061 10.4481 24.0553 10.0991 24.0553 9.66851C24.0553 9.23791 23.7063 8.88892 23.2757 8.88892Z" fill="#03CBC9"/>
<path d="M23.2757 11.8118H19.1004C18.67 11.8118 18.3208 12.1608 18.3208 12.5914C18.3208 13.0218 18.67 13.371 19.1004 13.371H23.2757C23.7061 13.371 24.0553 13.0218 24.0553 12.5914C24.0553 12.1608 23.7063 11.8118 23.2757 11.8118Z" fill="#03CBC9"/>
</g>
<defs>
<clipPath id="clip0">
<rect width="26.6101" height="26.6101" fill="white" transform="translate(0.785278 0.963135)"/>
</clipPath>
</defs>
</svg>
