<svg width="28" height="28" viewBox="0 0 28 28" fill="none" xmlns="http://www.w3.org/2000/svg">
<g clip-path="url(#clip0)">
<path d="M24.9754 2.62625H13.2845C11.9316 2.62625 10.8351 3.72296 10.8351 5.07568V10.8343C11.4531 11.1415 12.1208 11.4736 12.7441 11.7834L13.6977 9.87546C14.2751 8.7217 15.6826 8.25293 16.836 8.8293C17.9917 9.4077 18.4601 10.8114 17.8815 11.9674L16.1816 15.3679C16.2267 15.818 16.1867 16.2718 16.0598 16.7109H17.1821L14.2221 24.8504C14.0465 25.3331 14.3859 25.8965 14.955 25.8965C15.2731 25.8965 15.5724 25.7002 15.6873 25.3831L18.841 16.7109H19.3873L22.5731 25.3857C22.689 25.7012 22.9874 25.8965 23.3054 25.8965C23.8371 25.8965 24.2269 25.3654 24.0366 24.8483L21.0482 16.7109H24.9754C26.3281 16.7109 27.4248 15.6142 27.4248 14.2615V5.07568C27.4248 3.72296 26.3281 2.62625 24.9754 2.62625V2.62625ZM23.305 13.371H19.8071C19.3767 13.371 19.0275 13.0219 19.0275 12.5915C19.0275 12.1606 19.3767 11.8119 19.8071 11.8119H23.305C23.7358 11.8119 24.0846 12.1606 24.0846 12.5915C24.0846 13.0219 23.7358 13.371 23.305 13.371ZM23.305 10.4482H19.8071C19.3767 10.4482 19.0275 10.0994 19.0275 9.66858C19.0275 9.23818 19.3767 8.88899 19.8071 8.88899H23.305C23.7358 8.88899 24.0846 9.23818 24.0846 9.66858C24.0846 10.0994 23.7358 10.4482 23.305 10.4482ZM23.305 7.52571H14.955C14.5242 7.52571 14.1754 7.17652 14.1754 6.74612C14.1754 6.31572 14.5242 5.96653 14.955 5.96653H23.305C23.7358 5.96653 24.0846 6.31572 24.0846 6.74612C24.0846 7.17652 23.7358 7.52571 23.305 7.52571Z" fill="#03CBC9"/>
<path d="M14.5315 16.3766C14.6724 15.9638 14.6714 15.5326 14.5524 15.1392L16.4872 11.27C16.6797 10.8849 16.5237 10.4165 16.1386 10.2241C15.7537 10.0314 15.2853 10.1875 15.0927 10.5726L13.4425 13.8725C12.4563 13.3814 10.9578 12.6363 9.75062 12.036C8.62752 11.4775 7.826 10.9767 6.45846 10.9767H5.76962C6.83445 10.9767 7.78478 10.4866 8.40684 9.71956C8.88149 9.13588 9.16532 8.39201 9.16532 7.58136C9.16532 5.70566 7.64511 4.18546 5.76921 4.18546C3.89412 4.18546 2.37392 5.70566 2.37392 7.58136C2.37392 8.48215 2.72473 9.30073 3.29704 9.90816C3.91585 10.5661 4.79472 10.9767 5.76901 10.9769C4.46278 10.9769 3.18579 11.5061 2.26713 12.4272C1.3306 13.3613 0.814728 14.6058 0.814728 15.9315V18.4366C0.814728 19.515 1.51494 20.4327 2.48476 20.7591V25.1167C2.48476 25.5473 2.83375 25.8963 3.26436 25.8963H8.27447C8.70507 25.8963 9.05406 25.5473 9.05406 25.1167V16.3575C9.79325 16.727 10.7643 17.2124 11.55 17.6054C12.1008 17.8807 12.7443 17.9055 13.3183 17.672C13.8906 17.4365 14.3317 16.9677 14.5285 16.3857C14.5295 16.3826 14.5305 16.3796 14.5315 16.3766Z" fill="#03CBC9"/>
</g>
<defs>
<clipPath id="clip0">
<rect width="26.6101" height="26.6101" fill="white" transform="translate(0.814728 0.963135)"/>
</clipPath>
</defs>
</svg>
