<svg width="86" height="27" viewBox="0 0 86 27" fill="none" xmlns="http://www.w3.org/2000/svg">
<path d="M81.6432 15.8085L84.4594 12.9918C86.5139 10.9379 86.5139 7.59498 84.4594 5.54099C82.4052 3.48634 79.0626 3.48634 77.0083 5.54099L72.9441 9.60519C70.8897 11.6592 70.8897 15.0021 72.9441 17.056C73.2475 17.3596 73.5795 17.6169 73.9308 17.8307L76.1066 15.6547C75.6921 15.5556 75.299 15.3465 74.9764 15.0241C74.0426 14.0903 74.0426 12.5707 74.9764 11.6372L79.0406 7.57298C79.9743 6.63921 81.4939 6.63921 82.4274 7.57298C83.3612 8.50676 83.3612 10.0261 82.4274 10.9599L81.2334 12.1541C81.7254 13.3121 81.8614 14.5856 81.6432 15.8085Z" fill="#03CBC9"/>
<path d="M70.3572 12.1921L67.541 15.0086C65.4863 17.0628 65.4863 20.4054 67.541 22.4596C69.595 24.5141 72.9379 24.5141 74.9921 22.4596L79.056 18.3954C81.1105 16.3412 81.1103 12.9986 79.056 10.9446C78.7529 10.641 78.4209 10.3837 78.0696 10.1699L75.8938 12.3459C76.3081 12.4452 76.7012 12.6539 77.0241 12.9766C77.9578 13.9103 77.9578 15.4297 77.0241 16.3634L72.9596 20.4276C72.0259 21.3614 70.5065 21.3614 69.5728 20.4276C68.639 19.4939 68.639 17.9745 69.5728 17.0408L70.767 15.8468C70.2748 14.6888 70.1388 13.415 70.3572 12.1921Z" fill="#03CBC9"/>
<path d="M8.19695 20.18C6.83695 20.18 5.64362 19.8867 4.61695 19.3C3.60362 18.7133 2.82362 17.8733 2.27695 16.78C1.73029 15.6867 1.45695 14.4067 1.45695 12.94C1.45695 11.4733 1.73029 10.2 2.27695 9.12C2.82362 8.02667 3.60362 7.18667 4.61695 6.6C5.64362 6.01333 6.83695 5.72 8.19695 5.72C9.07695 5.72 9.90362 5.85333 10.677 6.12C11.4503 6.37333 12.137 6.74667 12.737 7.24C12.9103 7.37333 13.0303 7.51333 13.097 7.66C13.1636 7.80667 13.197 7.98667 13.197 8.2C13.197 8.49333 13.117 8.74 12.957 8.94C12.797 9.14 12.6036 9.24 12.377 9.24C12.1103 9.24 11.837 9.14667 11.557 8.96C10.9836 8.53333 10.4503 8.24 9.95695 8.08C9.46362 7.90667 8.91695 7.82 8.31695 7.82C6.93029 7.82 5.87695 8.25333 5.15695 9.12C4.45029 9.98667 4.09695 11.26 4.09695 12.94C4.09695 14.6333 4.45029 15.9133 5.15695 16.78C5.87695 17.6467 6.93029 18.08 8.31695 18.08C8.89029 18.08 9.41695 17.9933 9.89695 17.82C10.3903 17.6467 10.9436 17.3533 11.557 16.94C11.6903 16.86 11.8236 16.7933 11.957 16.74C12.0903 16.6867 12.2303 16.66 12.377 16.66C12.6036 16.66 12.797 16.76 12.957 16.96C13.117 17.16 13.197 17.4067 13.197 17.7C13.197 17.9 13.1636 18.08 13.097 18.24C13.0303 18.3867 12.9103 18.5267 12.737 18.66C12.137 19.1533 11.4503 19.5333 10.677 19.8C9.90362 20.0533 9.07695 20.18 8.19695 20.18ZM19.4963 20.16C18.4963 20.16 17.6163 19.9533 16.8563 19.54C16.1097 19.1267 15.5297 18.5333 15.1163 17.76C14.703 16.9867 14.4963 16.0867 14.4963 15.06C14.4963 14.0333 14.703 13.14 15.1163 12.38C15.5297 11.6067 16.1097 11.0133 16.8563 10.6C17.6163 10.1867 18.4963 9.98 19.4963 9.98C20.4963 9.98 21.3697 10.1867 22.1163 10.6C22.8763 11.0133 23.4563 11.6067 23.8563 12.38C24.2697 13.14 24.4763 14.0333 24.4763 15.06C24.4763 16.0867 24.2697 16.9867 23.8563 17.76C23.4563 18.5333 22.8763 19.1267 22.1163 19.54C21.3697 19.9533 20.4963 20.16 19.4963 20.16ZM19.4763 18.22C20.2897 18.22 20.9097 17.9533 21.3363 17.42C21.763 16.8867 21.9763 16.1 21.9763 15.06C21.9763 14.0333 21.763 13.2533 21.3363 12.72C20.9097 12.1733 20.2963 11.9 19.4963 11.9C18.6963 11.9 18.0763 12.1733 17.6363 12.72C17.2097 13.2533 16.9963 14.0333 16.9963 15.06C16.9963 16.1 17.2097 16.8867 17.6363 17.42C18.063 17.9533 18.6763 18.22 19.4763 18.22ZM32.1602 9.98C33.0002 9.98 33.7469 10.1933 34.4002 10.62C35.0669 11.0467 35.5802 11.6533 35.9402 12.44C36.3136 13.2133 36.5002 14.1067 36.5002 15.12C36.5002 16.1333 36.3136 17.02 35.9402 17.78C35.5802 18.54 35.0736 19.1267 34.4202 19.54C33.7669 19.9533 33.0136 20.16 32.1602 20.16C31.4669 20.16 30.8469 20.0133 30.3002 19.72C29.7536 19.4267 29.3336 19.02 29.0402 18.5V22.58C29.0402 22.9267 28.9269 23.2 28.7002 23.4C28.4736 23.6 28.1736 23.7 27.8002 23.7C27.4269 23.7 27.1202 23.5933 26.8802 23.38C26.6536 23.1667 26.5402 22.8867 26.5402 22.54V11.2C26.5402 10.84 26.6469 10.5533 26.8602 10.34C27.0869 10.1267 27.3869 10.02 27.7602 10.02C28.1336 10.02 28.4336 10.1267 28.6602 10.34C28.8869 10.5533 29.0002 10.84 29.0002 11.2V11.7C29.2936 11.1533 29.7136 10.7333 30.2602 10.44C30.8202 10.1333 31.4536 9.98 32.1602 9.98ZM31.5002 18.22C32.2869 18.22 32.9002 17.9533 33.3402 17.42C33.7802 16.8733 34.0002 16.1067 34.0002 15.12C34.0002 14.1067 33.7802 13.32 33.3402 12.76C32.9002 12.2 32.2869 11.92 31.5002 11.92C30.7002 11.92 30.0802 12.1933 29.6402 12.74C29.2136 13.2867 29.0002 14.0667 29.0002 15.08C29.0002 16.08 29.2136 16.8533 29.6402 17.4C30.0802 17.9467 30.7002 18.22 31.5002 18.22ZM45.2157 10.74C45.3224 10.5 45.4624 10.3267 45.6357 10.22C45.8224 10.1 46.0224 10.04 46.2357 10.04C46.5424 10.04 46.8157 10.1467 47.0557 10.36C47.309 10.56 47.4357 10.8133 47.4357 11.12C47.4357 11.2667 47.3957 11.42 47.3157 11.58L41.8557 23.02C41.629 23.4733 41.2757 23.7 40.7957 23.7C40.489 23.7 40.2157 23.6 39.9757 23.4C39.749 23.2133 39.6357 22.9733 39.6357 22.68C39.6357 22.5333 39.6757 22.3667 39.7557 22.18L41.1157 19.32L37.3957 11.58C37.329 11.4467 37.2957 11.2933 37.2957 11.12C37.2957 10.8133 37.4224 10.5533 37.6757 10.34C37.9424 10.1267 38.2424 10.02 38.5757 10.02C38.8024 10.02 39.009 10.08 39.1957 10.2C39.3824 10.3067 39.529 10.48 39.6357 10.72L42.4357 16.9L45.2157 10.74Z" fill="#03CBC9"/>
</svg>
