<svg width="20" height="20" viewBox="0 0 20 20" fill="none" xmlns="http://www.w3.org/2000/svg">
<mask id="path-1-inside-1" fill="white">
<path fill-rule="evenodd" clip-rule="evenodd" d="M18.8913 0.61044C18.8311 0.549788 18.7596 0.501647 18.6807 0.468794C18.6018 0.435941 18.5173 0.419027 18.4318 0.419027C18.3464 0.419027 18.2618 0.435941 18.183 0.468794C18.1041 0.501647 18.0325 0.549788 17.9724 0.61044L10 9.05522L2.02761 0.642797C1.91005 0.517511 1.74753 0.444057 1.57581 0.438597C1.40409 0.433136 1.23724 0.496114 1.11195 0.613677C0.986665 0.731239 0.913212 0.893756 0.907751 1.06548C0.90229 1.2372 0.965267 1.40405 1.08283 1.52934L9.10699 10L1.08283 18.4771C0.962305 18.5984 0.894656 18.7624 0.894656 18.9333C0.894656 19.1043 0.962305 19.2683 1.08283 19.3896C1.20279 19.5052 1.36272 19.5701 1.52934 19.5708C1.61807 19.5705 1.70579 19.5519 1.78705 19.5163C1.86832 19.4807 1.94139 19.4287 2.00173 19.3637L10 10.9448L17.9724 19.3572C18.0327 19.4223 18.1058 19.4742 18.1871 19.5098C18.2683 19.5455 18.3561 19.564 18.4448 19.5643C18.6114 19.5636 18.7713 19.4987 18.8913 19.3831C19.0118 19.2618 19.0795 19.0978 19.0795 18.9269C19.0795 18.7559 19.0118 18.5919 18.8913 18.4707L10.6 10L14.9051 5.76143L18.9172 1.52286C19.0343 1.39823 19.0974 1.23229 19.0925 1.06131C19.0877 0.890334 19.0153 0.72823 18.8913 0.61044Z"/>
</mask>
<path fill-rule="evenodd" clip-rule="evenodd" d="M18.8913 0.61044C18.8311 0.549788 18.7596 0.501647 18.6807 0.468794C18.6018 0.435941 18.5173 0.419027 18.4318 0.419027C18.3464 0.419027 18.2618 0.435941 18.183 0.468794C18.1041 0.501647 18.0325 0.549788 17.9724 0.61044L10 9.05522L2.02761 0.642797C1.91005 0.517511 1.74753 0.444057 1.57581 0.438597C1.40409 0.433136 1.23724 0.496114 1.11195 0.613677C0.986665 0.731239 0.913212 0.893756 0.907751 1.06548C0.90229 1.2372 0.965267 1.40405 1.08283 1.52934L9.10699 10L1.08283 18.4771C0.962305 18.5984 0.894656 18.7624 0.894656 18.9333C0.894656 19.1043 0.962305 19.2683 1.08283 19.3896C1.20279 19.5052 1.36272 19.5701 1.52934 19.5708C1.61807 19.5705 1.70579 19.5519 1.78705 19.5163C1.86832 19.4807 1.94139 19.4287 2.00173 19.3637L10 10.9448L17.9724 19.3572C18.0327 19.4223 18.1058 19.4742 18.1871 19.5098C18.2683 19.5455 18.3561 19.564 18.4448 19.5643C18.6114 19.5636 18.7713 19.4987 18.8913 19.3831C19.0118 19.2618 19.0795 19.0978 19.0795 18.9269C19.0795 18.7559 19.0118 18.5919 18.8913 18.4707L10.6 10L14.9051 5.76143L18.9172 1.52286C19.0343 1.39823 19.0974 1.23229 19.0925 1.06131C19.0877 0.890334 19.0153 0.72823 18.8913 0.61044Z" fill="#2E133C"/>
<path d="M22.4116 -5V-7.5V-5ZM-2.41156 -3.70578V-1.20578V-3.70578ZM-2.41156 -5V-7.5V-5ZM-5 -2.41156H-7.5H-5ZM-5 22.4116H-7.5H-5ZM22.5 -2.41156V1.82054H27.5V-2.41156H22.5ZM22.5 1.82054C22.5 1.32913 22.6952 0.857835 23.0427 0.510343L26.5782 4.04588C27.1684 3.45567 27.5 2.65519 27.5 1.82054H22.5ZM23.0427 0.510343C23.3902 0.16286 23.8615 -0.0323544 24.3529 -0.0323544V4.96765C25.1876 4.96765 25.988 4.63607 26.5782 4.04588L23.0427 0.510343ZM24.3529 -0.0323544C24.8443 -0.0323544 25.3156 0.162874 25.6631 0.510343L22.1276 4.04588C22.7177 4.63606 23.5182 4.96765 24.3529 4.96765V-0.0323544ZM25.6631 0.510343C26.0106 0.857819 26.2058 1.32911 26.2058 1.82054H21.2058C21.2058 2.65521 21.5374 3.45569 22.1276 4.04588L25.6631 0.510343ZM26.2058 1.82054V-2.41156H21.2058V1.82054H26.2058ZM26.2058 -2.41156C26.2058 -3.41785 25.806 -4.38292 25.0945 -5.09448L21.5589 -1.55895C21.3328 -1.78508 21.2058 -2.09177 21.2058 -2.41156H26.2058ZM25.0945 -5.09448C24.3829 -5.80603 23.4179 -6.20578 22.4116 -6.20578V-1.20578C22.0918 -1.20578 21.7851 -1.33282 21.5589 -1.55895L25.0945 -5.09448ZM22.4116 -6.20578H18.1795V-1.20578H22.4116V-6.20578ZM18.1795 -6.20578C18.6709 -6.20578 19.1422 -6.01058 19.4897 -5.66308L15.9541 -2.12755C16.5443 -1.53734 17.3448 -1.20578 18.1795 -1.20578V-6.20578ZM19.4897 -5.66308C19.8372 -5.31559 20.0324 -4.84429 20.0324 -4.35289H15.0324C15.0324 -3.51824 15.3639 -2.71776 15.9541 -2.12755L19.4897 -5.66308ZM20.0324 -4.35289C20.0324 -3.86149 19.8372 -3.39019 19.4897 -3.0427L15.9541 -6.57823C15.3639 -5.98802 15.0324 -5.18754 15.0324 -4.35289H20.0324ZM19.4897 -3.0427C19.1422 -2.69521 18.6709 -2.5 18.1795 -2.5V-7.5C17.3448 -7.5 16.5443 -7.16844 15.9541 -6.57823L19.4897 -3.0427ZM18.1795 -2.5H22.4116V-7.5H18.1795V-2.5ZM22.4116 -2.5C22.435 -2.5 22.4575 -2.49068 22.4741 -2.4741L26.0096 -6.00963C25.0554 -6.9639 23.7611 -7.5 22.4116 -7.5V-2.5ZM22.4741 -2.4741C22.4907 -2.45751 22.5 -2.43501 22.5 -2.41156H27.5C27.5 -3.7611 26.9639 -5.05536 26.0096 -6.00963L22.4741 -2.4741ZM24.3529 15.0324C23.5182 15.0324 22.7178 15.3639 22.1276 15.9541L25.6631 19.4897C25.3156 19.8371 24.8443 20.0324 24.3529 20.0324V15.0324ZM22.1276 15.9541C21.5373 16.5443 21.2058 17.3448 21.2058 18.1795H26.2058C26.2058 18.6709 26.0106 19.1422 25.6631 19.4897L22.1276 15.9541ZM21.2058 18.1795V22.4116H26.2058V18.1795H21.2058ZM21.2058 22.4116C21.2058 22.0918 21.3328 21.7851 21.5589 21.5589L25.0945 25.0945C25.806 24.3829 26.2058 23.4178 26.2058 22.4116H21.2058ZM21.5589 21.5589C21.7851 21.3328 22.0918 21.2058 22.4116 21.2058V26.2058C23.4178 26.2058 24.3829 25.806 25.0945 25.0945L21.5589 21.5589ZM22.4116 21.2058H18.1795V26.2058H22.4116V21.2058ZM18.1795 21.2058C17.3448 21.2058 16.5443 21.5373 15.9541 22.1276L19.4897 25.6631C19.1422 26.0106 18.6709 26.2058 18.1795 26.2058V21.2058ZM15.9541 22.1276C15.3639 22.7178 15.0324 23.5182 15.0324 24.3529H20.0324C20.0324 24.8443 19.8371 25.3156 19.4897 25.6631L15.9541 22.1276ZM15.0324 24.3529C15.0324 25.1875 15.3639 25.988 15.9541 26.5782L19.4897 23.0427C19.8372 23.3902 20.0324 23.8615 20.0324 24.3529H15.0324ZM15.9541 26.5782C16.5443 27.1685 17.3448 27.5 18.1795 27.5V22.5C18.6709 22.5 19.1422 22.6952 19.4897 23.0427L15.9541 26.5782ZM18.1795 27.5H22.4116V22.5H18.1795V27.5ZM22.4116 27.5C23.7611 27.5 25.0554 26.9639 26.0096 26.0096L22.4741 22.4741C22.4575 22.4907 22.435 22.5 22.4116 22.5V27.5ZM26.0096 26.0096C26.9639 25.0554 27.5 23.7611 27.5 22.4116H22.5C22.5 22.435 22.4907 22.4575 22.4741 22.4741L26.0096 26.0096ZM27.5 22.4116V18.1795H22.5V22.4116H27.5ZM27.5 18.1795C27.5 17.3448 27.1685 16.5443 26.5782 15.9541L23.0427 19.4897C22.6952 19.1422 22.5 18.6709 22.5 18.1795H27.5ZM26.5782 15.9541C25.988 15.3639 25.1875 15.0324 24.3529 15.0324V20.0324C23.8615 20.0324 23.3902 19.8372 23.0427 19.4897L26.5782 15.9541ZM-4.35289 4.96765C-3.51821 4.96765 -2.71774 4.63607 -2.12755 4.04588L-5.66308 0.510343C-5.31561 0.162867 -4.84432 -0.0323544 -4.35289 -0.0323544V4.96765ZM-2.12755 4.04588C-1.53735 3.45568 -1.20578 2.6552 -1.20578 1.82054H-6.20578C-6.20578 1.32912 -6.01056 0.857827 -5.66308 0.510343L-2.12755 4.04588ZM-1.20578 1.82054V-2.41156H-6.20578V1.82054H-1.20578ZM-1.20578 -2.41156C-1.20578 -2.09177 -1.33282 -1.78507 -1.55895 -1.55895L-5.09448 -5.09448C-5.80603 -4.38293 -6.20578 -3.41785 -6.20578 -2.41156H-1.20578ZM-1.55895 -1.55895C-1.78507 -1.33282 -2.09177 -1.20578 -2.41156 -1.20578V-6.20578C-3.41785 -6.20578 -4.38293 -5.80603 -5.09448 -5.09448L-1.55895 -1.55895ZM-2.41156 -1.20578H1.82054V-6.20578H-2.41156V-1.20578ZM1.82054 -1.20578C2.6552 -1.20578 3.45568 -1.53735 4.04588 -2.12755L0.510343 -5.66308C0.857827 -6.01056 1.32912 -6.20578 1.82054 -6.20578V-1.20578ZM4.04588 -2.12755C4.63607 -2.71774 4.96765 -3.51821 4.96765 -4.35289H-0.0323544C-0.0323544 -4.84432 0.162867 -5.31561 0.510343 -5.66308L4.04588 -2.12755ZM4.96765 -4.35289C4.96765 -5.18757 4.63607 -5.98804 4.04588 -6.57823L0.510343 -3.0427C0.162868 -3.39017 -0.0323544 -3.86146 -0.0323544 -4.35289H4.96765ZM4.04588 -6.57823C3.45568 -7.16843 2.65521 -7.5 1.82054 -7.5V-2.5C1.32911 -2.5 0.857823 -2.69522 0.510343 -3.0427L4.04588 -6.57823ZM1.82054 -7.5H-2.41156V-2.5H1.82054V-7.5ZM-2.41156 -7.5C-3.7611 -7.5 -5.05536 -6.9639 -6.00963 -6.00963L-2.4741 -2.4741C-2.45751 -2.49068 -2.43502 -2.5 -2.41156 -2.5V-7.5ZM-6.00963 -6.00963C-6.9639 -5.05536 -7.5 -3.7611 -7.5 -2.41156H-2.5C-2.5 -2.43502 -2.49068 -2.45751 -2.4741 -2.4741L-6.00963 -6.00963ZM-7.5 -2.41156V1.82054H-2.5V-2.41156H-7.5ZM-7.5 1.82054C-7.5 2.65521 -7.16843 3.45568 -6.57823 4.04588L-3.0427 0.510343C-2.69522 0.857823 -2.5 1.32911 -2.5 1.82054H-7.5ZM-6.57823 4.04588C-5.98804 4.63607 -5.18757 4.96765 -4.35289 4.96765V-0.0323544C-3.86146 -0.0323544 -3.39017 0.162868 -3.0427 0.510343L-6.57823 4.04588ZM1.82054 21.2058H-2.41156V26.2058H1.82054V21.2058ZM-2.41156 21.2058C-2.09177 21.2058 -1.78508 21.3328 -1.55895 21.5589L-5.09448 25.0945C-4.38292 25.806 -3.41785 26.2058 -2.41156 26.2058V21.2058ZM-1.55895 21.5589C-1.33282 21.7851 -1.20578 22.0918 -1.20578 22.4116H-6.20578C-6.20578 23.4179 -5.80603 24.3829 -5.09448 25.0945L-1.55895 21.5589ZM-1.20578 22.4116V18.1795H-6.20578V22.4116H-1.20578ZM-1.20578 18.1795C-1.20578 17.3448 -1.53734 16.5443 -2.12755 15.9541L-5.66308 19.4897C-6.01058 19.1422 -6.20578 18.6709 -6.20578 18.1795H-1.20578ZM-2.12755 15.9541C-2.71776 15.3639 -3.51824 15.0324 -4.35289 15.0324V20.0324C-4.84429 20.0324 -5.31559 19.8372 -5.66308 19.4897L-2.12755 15.9541ZM-4.35289 15.0324C-5.18754 15.0324 -5.98802 15.3639 -6.57823 15.9541L-3.0427 19.4897C-3.39019 19.8372 -3.86149 20.0324 -4.35289 20.0324V15.0324ZM-6.57823 15.9541C-7.16844 16.5443 -7.5 17.3448 -7.5 18.1795H-2.5C-2.5 18.6709 -2.69521 19.1422 -3.0427 19.4897L-6.57823 15.9541ZM-7.5 18.1795V22.4116H-2.5V18.1795H-7.5ZM-7.5 22.4116C-7.5 23.7611 -6.9639 25.0554 -6.00963 26.0096L-2.4741 22.4741C-2.49068 22.4575 -2.5 22.435 -2.5 22.4116H-7.5ZM-6.00963 26.0096C-5.05536 26.9639 -3.7611 27.5 -2.41156 27.5V22.5C-2.43501 22.5 -2.45751 22.4907 -2.4741 22.4741L-6.00963 26.0096ZM-2.41156 27.5H1.82054V22.5H-2.41156V27.5ZM1.82054 27.5C2.65519 27.5 3.45567 27.1684 4.04588 26.5782L0.510343 23.0427C0.857835 22.6952 1.32913 22.5 1.82054 22.5V27.5ZM4.04588 26.5782C4.63607 25.988 4.96765 25.1876 4.96765 24.3529H-0.0323544C-0.0323544 23.8615 0.16286 23.3902 0.510343 23.0427L4.04588 26.5782ZM4.96765 24.3529C4.96765 23.5182 4.63606 22.7177 4.04588 22.1276L0.510343 25.6631C0.162874 25.3156 -0.0323544 24.8443 -0.0323544 24.3529H4.96765ZM4.04588 22.1276C3.45569 21.5374 2.65521 21.2058 1.82054 21.2058V26.2058C1.32911 26.2058 0.857819 26.0106 0.510343 25.6631L4.04588 22.1276ZM18.8913 0.61044L15.3413 4.13145L15.3939 4.1845L15.4481 4.23596L18.8913 0.61044ZM17.9724 0.61044L14.4224 -2.91057L14.379 -2.86678L14.3366 -2.82194L17.9724 0.61044ZM10 9.05522L6.37082 12.4946L10.007 16.3314L13.6358 12.4876L10 9.05522ZM2.02761 0.642797L-1.61852 4.06416L-1.61006 4.07317L-1.60157 4.08214L2.02761 0.642797ZM1.08283 1.52934L-2.5633 4.9507L-2.55521 4.95932L-2.54708 4.96791L1.08283 1.52934ZM9.10699 10L12.7382 13.4372L15.993 9.99869L12.7369 6.56143L9.10699 10ZM1.08283 18.4771L4.62887 22.0021L4.672 21.9587L4.71405 21.9143L1.08283 18.4771ZM0.894656 18.9333H5.89466H0.894656ZM1.08283 19.3896L-2.46321 22.9146L-2.42554 22.9524L-2.38708 22.9895L1.08283 19.3896ZM1.52934 19.5708L1.50942 24.5707L1.52742 24.5708L1.54542 24.5707L1.52934 19.5708ZM2.00173 19.3637L-1.6232 15.9199L-1.64391 15.9417L-1.66436 15.9637L2.00173 19.3637ZM10 10.9448L13.6292 7.50544L10.0045 3.68068L6.37507 7.50096L10 10.9448ZM17.9724 19.3572L21.6385 15.9572L21.6201 15.9374L21.6016 15.9179L17.9724 19.3572ZM18.4448 19.5643L18.4287 24.5643L18.4467 24.5643L18.4647 24.5642L18.4448 19.5643ZM18.8913 19.3831L22.3612 22.983L22.3997 22.946L22.4373 22.9081L18.8913 19.3831ZM18.8913 18.4707L15.3181 21.9682L15.3316 21.982L15.3452 21.9957L18.8913 18.4707ZM10.6 10L7.0921 6.43705L3.53952 9.93473L7.02684 13.4975L10.6 10ZM18.9172 1.52286L22.5484 4.96005L22.5544 4.95371L22.5604 4.94735L18.9172 1.52286ZM14.9051 5.76143L18.413 9.32439L18.4758 9.26259L18.5363 9.19862L14.9051 5.76143ZM22.4413 -2.91057C21.9163 -3.43984 21.2918 -3.85996 20.6036 -4.14667L16.7578 5.08426C16.2274 4.86326 15.7459 4.53942 15.3413 4.13145L22.4413 -2.91057ZM20.6036 -4.14667C19.9154 -4.43338 19.1773 -4.58097 18.4318 -4.58097V5.41903C17.8572 5.41903 17.2883 5.30526 16.7578 5.08426L20.6036 -4.14667ZM18.4318 -4.58097C17.6864 -4.58097 16.9483 -4.43337 16.2601 -4.14667L20.1059 5.08426C19.5754 5.30525 19.0065 5.41903 18.4318 5.41903V-4.58097ZM16.2601 -4.14667C15.572 -3.85998 14.9474 -3.43988 14.4224 -2.91057L21.5224 4.13145C21.1177 4.53945 20.6363 4.86328 20.1059 5.08426L16.2601 -4.14667ZM14.3366 -2.82194L6.36424 5.62284L13.6358 12.4876L21.6082 4.04282L14.3366 -2.82194ZM13.6292 5.61588L5.65679 -2.79655L-1.60157 4.08214L6.37082 12.4946L13.6292 5.61588ZM5.67374 -2.77857C4.64878 -3.87086 3.23188 -4.51126 1.73474 -4.55888L1.41688 5.43607C0.263178 5.39938 -0.828683 4.90588 -1.61852 4.06416L5.67374 -2.77857ZM1.73474 -4.55888C0.237589 -4.60649 -1.21713 -4.0574 -2.30942 -3.03245L4.53332 4.2598C3.6916 5.04963 2.57059 5.47276 1.41688 5.43607L1.73474 -4.55888ZM-2.30942 -3.03245C-3.40171 -2.00749 -4.04211 -0.59059 -4.08972 0.906545L5.90522 1.22441C5.86854 2.3781 5.37504 3.46997 4.53332 4.2598L-2.30942 -3.03245ZM-4.08972 0.906545C-4.13733 2.40366 -3.58827 3.85839 -2.5633 4.9507L4.72896 -1.89203C5.51881 -1.05029 5.94191 0.0707264 5.90522 1.22441L-4.08972 0.906545ZM-2.54708 4.96791L5.47708 13.4386L12.7369 6.56143L4.71274 -1.90923L-2.54708 4.96791ZM5.47577 6.56281L-2.54839 15.04L4.71405 21.9143L12.7382 13.4372L5.47577 6.56281ZM-2.46321 14.9521C-3.51501 16.0102 -4.10534 17.4415 -4.10534 18.9333H5.89466C5.89466 20.0833 5.43962 21.1865 4.62887 22.0021L-2.46321 14.9521ZM-4.10534 18.9333C-4.10534 20.4252 -3.51498 21.8565 -2.46321 22.9146L4.62887 15.8646C5.43959 16.6801 5.89466 17.7834 5.89466 18.9333H-4.10534ZM-2.38708 22.9895C-1.34025 23.9985 0.0554428 24.5649 1.50942 24.5707L1.54925 14.5708C2.67001 14.5753 3.74583 15.0118 4.55274 15.7896L-2.38708 22.9895ZM1.54542 24.5707C2.31977 24.5682 3.0853 24.4065 3.79444 24.0957L-0.220331 14.937C0.32628 14.6974 0.91636 14.5727 1.51325 14.5708L1.54542 24.5707ZM3.79444 24.0957C4.50363 23.7848 5.14129 23.3314 5.66781 22.7637L-1.66436 15.9637C-1.25851 15.5261 -0.766989 15.1766 -0.220331 14.937L3.79444 24.0957ZM5.62665 22.8075L13.6249 14.3886L6.37507 7.50096L-1.6232 15.9199L5.62665 22.8075ZM6.37082 14.3841L14.3432 22.7965L21.6016 15.9179L13.6292 7.50544L6.37082 14.3841ZM14.3063 22.7572C14.8328 23.3249 15.4705 23.7783 16.1797 24.0892L20.1944 14.9305C20.7411 15.1701 21.2326 15.5196 21.6385 15.9572L14.3063 22.7572ZM16.1797 24.0892C16.8888 24.4 17.6544 24.5618 18.4287 24.5643L18.4609 14.5643C19.0578 14.5662 19.6478 14.6909 20.1944 14.9305L16.1797 24.0892ZM18.4647 24.5642C19.9187 24.5585 21.3144 23.9921 22.3612 22.983L15.4214 15.7831C16.2283 15.0054 17.3041 14.5688 18.4249 14.5643L18.4647 24.5642ZM22.4373 22.9081C23.4891 21.85 24.0795 20.4188 24.0795 18.9269H14.0795C14.0795 17.7769 14.5345 16.6737 15.3452 15.8581L22.4373 22.9081ZM24.0795 18.9269C24.0795 17.435 23.4891 16.0037 22.4373 14.9457L15.3452 21.9957C14.5345 21.1801 14.0795 20.0769 14.0795 18.9269H24.0795ZM22.4645 14.9732L14.1732 6.5025L7.02684 13.4975L15.3181 21.9682L22.4645 14.9732ZM22.5604 4.94735C23.5827 3.8597 24.1328 2.41156 24.0905 0.919525L14.0945 1.2031C14.0619 0.0530233 14.4859 -1.06324 15.274 -1.90162L22.5604 4.94735ZM24.0905 0.919525C24.0482 -0.572495 23.4169 -1.98713 22.3345 -3.01508L15.4481 4.23596C14.6138 3.44359 14.1271 2.35316 14.0945 1.2031L24.0905 0.919525ZM14.1079 13.563L18.413 9.32439L11.3972 2.19848L7.0921 6.43705L14.1079 13.563ZM18.5363 9.19862L22.5484 4.96005L15.286 -1.91432L11.2739 2.32425L18.5363 9.19862Z" fill="#2E0543" mask="url(#path-1-inside-1)"/>
</svg>
