<svg width="39" height="22" viewBox="0 0 39 22" fill="none" xmlns="http://www.w3.org/2000/svg">
<path d="M19.5 3.96C15.6867 3.96 12.5667 7.128 12.5667 11C12.5667 14.872 15.6867 18.04 19.5 18.04C23.3133 18.04 26.4333 14.872 26.4333 11C26.4333 7.128 23.3133 3.96 19.5 3.96ZM19.5 16.28C16.64 16.28 14.3 13.904 14.3 11C14.3 8.096 16.64 5.72 19.5 5.72C22.36 5.72 24.7 8.096 24.7 11C24.7 13.904 22.36 16.28 19.5 16.28ZM38.74 10.384L35.0133 6.556C30.8967 2.332 25.3933 0 19.5 0C13.6067 0 8.10333 2.332 3.98667 6.556L0.26 10.384C-0.0866666 10.736 -0.0866666 11.264 0.26 11.616L3.98667 15.444C8.10333 19.668 13.6067 22 19.5 22C25.3933 22 30.8967 19.668 35.0133 15.444L38.74 11.616C39.0867 11.264 39.0867 10.736 38.74 10.384ZM33.8 14.212C29.9867 18.084 24.9167 20.24 19.5 20.24C14.0833 20.24 9.01333 18.084 5.2 14.212L2.08 11L5.2 7.788C9.01333 3.916 14.0833 1.76 19.5 1.76C24.9167 1.76 29.9867 3.916 33.8 7.788L36.92 11L33.8 14.212Z" fill="#03CBC9"/>
<path fill-rule="evenodd" clip-rule="evenodd" d="M33.8 14.212C29.9867 18.084 24.9167 20.24 19.5 20.24C14.0833 20.24 9.01333 18.084 5.2 14.212L2.08 11L5.2 7.788C9.01333 3.916 14.0833 1.76 19.5 1.76C24.9167 1.76 29.9867 3.916 33.8 7.788L36.92 11L33.8 14.212ZM12.5667 11C12.5667 7.128 15.6867 3.96 19.5 3.96C23.3133 3.96 26.4333 7.128 26.4333 11C26.4333 14.872 23.3133 18.04 19.5 18.04C15.6867 18.04 12.5667 14.872 12.5667 11Z" fill="#03CBC9"/>
</svg>
