<svg width="20" height="20" viewBox="0 0 20 20" fill="none" xmlns="http://www.w3.org/2000/svg">
<path d="M16.9039 4.39338H7.97969C7.73434 3.66467 7.04508 3.13818 6.23469 3.13818C5.4243 3.13818 4.73504 3.66467 4.48969 4.39338H3.09668C2.77309 4.39338 2.51074 4.65572 2.51074 4.97932C2.51074 5.30291 2.77309 5.56525 3.09668 5.56525H4.48973C4.73508 6.29396 5.42434 6.82045 6.23473 6.82045C7.04512 6.82045 7.73437 6.29396 7.97973 5.56525H16.904C17.2276 5.56525 17.4899 5.30291 17.4899 4.97932C17.4899 4.65572 17.2276 4.39338 16.9039 4.39338ZM6.23469 5.64857C5.86566 5.64857 5.56543 5.34834 5.56543 4.97932C5.56543 4.61029 5.86566 4.31006 6.23469 4.31006C6.60371 4.31006 6.90394 4.61029 6.90394 4.97932C6.90394 5.34834 6.60371 5.64857 6.23469 5.64857Z" fill="black"/>
<path d="M16.9039 9.41413H15.5109C15.2655 8.68542 14.5762 8.15894 13.7659 8.15894C12.9555 8.15894 12.2663 8.68542 12.0209 9.41413H3.09668C2.77309 9.41413 2.51074 9.67647 2.51074 10.0001C2.51074 10.3237 2.77309 10.586 3.09668 10.586H12.0209C12.2663 11.3147 12.9556 11.8412 13.7659 11.8412C14.5763 11.8412 15.2656 11.3147 15.5109 10.586H16.904C17.2276 10.586 17.4899 10.3237 17.4899 10.0001C17.4899 9.67647 17.2276 9.41413 16.9039 9.41413ZM13.7659 10.6693C13.3969 10.6693 13.0967 10.3691 13.0967 10.0001C13.0967 9.63105 13.3969 9.33081 13.7659 9.33081C14.135 9.33081 14.4352 9.63105 14.4352 10.0001C14.4352 10.3691 14.135 10.6693 13.7659 10.6693Z" fill="black"/>
<path d="M16.9039 14.4351H10.4901C10.2448 13.7064 9.55551 13.1799 8.74512 13.1799C7.93473 13.1799 7.24547 13.7064 7.00012 14.4351H3.09668C2.77309 14.4351 2.51074 14.6975 2.51074 15.0211C2.51074 15.3447 2.77309 15.607 3.09668 15.607H7.00012C7.24547 16.3357 7.93473 16.8622 8.74512 16.8622C9.55551 16.8622 10.2448 16.3357 10.4901 15.607H16.904C17.2276 15.607 17.4899 15.3447 17.4899 15.0211C17.4899 14.6975 17.2276 14.4351 16.9039 14.4351ZM8.74512 15.6904C8.37609 15.6904 8.07586 15.3901 8.07586 15.0211C8.07586 14.6521 8.37609 14.3518 8.74512 14.3518C9.11414 14.3518 9.41437 14.652 9.41437 15.0211C9.41437 15.3901 9.11414 15.6904 8.74512 15.6904Z" fill="black"/>
</svg>
