<svg width="24" height="24" viewBox="0 0 24 24" fill="none" xmlns="http://www.w3.org/2000/svg">
<path d="M12 0C5.37256 0 0 5.37256 0 12C0 18.6274 5.37256 24 12 24C18.6274 24 24 18.6274 24 12C24 5.37256 18.6274 0 12 0ZM17.3975 9.95801L11.8984 15.4561C11.7031 15.6514 11.4473 15.749 11.1914 15.749C10.9355 15.749 10.6797 15.6514 10.4844 15.4561L7.9834 12.9551C7.59277 12.5645 7.59277 11.9316 7.9834 11.541C8.37402 11.1504 9.00684 11.1504 9.39746 11.541L11.1914 13.335L15.9834 8.54395C16.374 8.15332 17.0068 8.15332 17.3975 8.54395C17.7881 8.93457 17.7881 9.56738 17.3975 9.95801Z" fill="#5EE354"/>
</svg>
