<svg width="28" height="28" viewBox="0 0 28 28" fill="none" xmlns="http://www.w3.org/2000/svg">
<path d="M26.6922 12.2285C26.6915 12.2279 26.6909 12.2273 26.6903 12.2267L15.8355 1.37223C15.3728 0.90935 14.7577 0.654358 14.1033 0.654358C13.449 0.654358 12.8339 0.909147 12.371 1.37203L1.52183 12.221C1.51818 12.2246 1.51452 12.2285 1.51087 12.2321C0.560738 13.1878 0.562362 14.7382 1.51554 15.6914C1.95101 16.1271 2.52617 16.3794 3.14111 16.4058C3.16608 16.4082 3.19126 16.4095 3.21664 16.4095H3.64927V24.3977C3.64927 25.9784 4.9354 27.2645 6.51651 27.2645H10.7633C11.1937 27.2645 11.5429 26.9155 11.5429 26.4849V20.2222C11.5429 19.5008 12.1296 18.9141 12.8509 18.9141H15.3558C16.0771 18.9141 16.6638 19.5008 16.6638 20.2222V26.4849C16.6638 26.9155 17.0128 27.2645 17.4434 27.2645H21.6902C23.2713 27.2645 24.5574 25.9784 24.5574 24.3977V16.4095H24.9586C25.6127 16.4095 26.2279 16.1547 26.6909 15.6918C27.6451 14.737 27.6455 13.1839 26.6922 12.2285Z" fill="#03CBC9"/>
</svg>
