<svg id="SvgjsSvg1001" width="288" height="288" xmlns="http://www.w3.org/2000/svg" version="1.1" xmlns:xlink="http://www.w3.org/1999/xlink" xmlns:svgjs="http://svgjs.com/svgjs"><defs id="SvgjsDefs1002"></defs><g id="SvgjsG1008" transform="matrix(1,0,0,1,0,0)"><svg xmlns="http://www.w3.org/2000/svg" width="288" height="288" fill="none" viewBox="0 0 28 28"><path fill="#03cbc9" d="M26.731 12.1756C26.7302 12.175 26.7296 12.1742 26.729 12.1736L15.8741 1.31915C15.4115 0.856261 14.7963 0.601471 14.142 0.601471C13.4876 0.601471 12.8725 0.856261 12.4096 1.31915L1.56044 12.1681C1.55679 12.1718 1.55293 12.1756 1.54948 12.1793C0.59935 13.1349 0.600974 14.6854 1.55415 15.6385C1.98963 16.0742 2.56458 16.3264 3.17953 16.353C3.2047 16.3554 3.22988 16.3566 3.25525 16.3566H3.68768V24.3446C3.68768 25.9255 4.97402 27.2117 6.55493 27.2117H10.8017C11.2323 27.2117 11.5813 26.8625 11.5813 26.4321V20.1693C11.5813 19.448 12.1682 18.8613 12.8895 18.8613H15.3944C16.1157 18.8613 16.7025 19.448 16.7025 20.1693V26.4321C16.7025 26.8625 17.0515 27.2117 17.4821 27.2117H21.7288C23.3099 27.2117 24.5961 25.9255 24.5961 24.3446V16.3566H24.9972C25.6514 16.3566 26.2665 16.1018 26.7296 15.6387C27.6838 14.6841 27.6842 13.1308 26.731 12.1756ZM25.627 14.5363C25.4587 14.7046 25.235 14.7974 24.9972 14.7974H23.8165C23.3859 14.7974 23.0369 15.1464 23.0369 15.577V24.3446C23.0369 25.0657 22.4501 25.6525 21.7288 25.6525H18.2617V20.1693C18.2617 18.5884 16.9755 17.3021 15.3944 17.3021H12.8895C11.3084 17.3021 10.0221 18.5884 10.0221 20.1693V25.6525H6.55493C5.83381 25.6525 5.24688 25.0657 5.24688 24.3446V15.577C5.24688 15.1464 4.89788 14.7974 4.46728 14.7974H3.30682C3.29464 14.7966 3.28266 14.796 3.27028 14.7958C3.03802 14.7917 2.82018 14.6996 2.65695 14.5361C2.30979 14.189 2.30979 13.624 2.65695 13.2766C2.65716 13.2766 2.65716 13.2764 2.65736 13.2762L2.65797 13.2756L13.5124 2.42154C13.6805 2.25324 13.904 2.16066 14.142 2.16066C14.3797 2.16066 14.6032 2.25324 14.7715 2.42154L25.6235 13.2733C25.6252 13.275 25.627 13.2766 25.6286 13.2782C25.974 13.626 25.9734 14.1898 25.627 14.5363Z" class="color000 svgShape"></path></svg></g></svg>