<svg width="24" height="24" viewBox="0 0 24 24" fill="none" xmlns="http://www.w3.org/2000/svg">
<circle cx="12" cy="12" r="12" fill="#98989C"/>
<path d="M12.0008 18.108C11.6768 18.108 11.4068 18.018 11.1908 17.838C10.9868 17.646 10.8848 17.376 10.8848 17.028V10.08C10.8848 9.732 10.9868 9.468 11.1908 9.288C11.4068 9.108 11.6768 9.018 12.0008 9.018C12.3248 9.018 12.5948 9.108 12.8108 9.288C13.0268 9.468 13.1348 9.732 13.1348 10.08V17.028C13.1348 17.376 13.0268 17.646 12.8108 17.838C12.5948 18.018 12.3248 18.108 12.0008 18.108ZM12.0008 7.416C11.5928 7.416 11.2688 7.308 11.0288 7.092C10.7888 6.864 10.6688 6.57 10.6688 6.21C10.6688 5.85 10.7888 5.562 11.0288 5.346C11.2688 5.13 11.5928 5.022 12.0008 5.022C12.3968 5.022 12.7148 5.13 12.9548 5.346C13.2068 5.562 13.3328 5.85 13.3328 6.21C13.3328 6.57 13.2128 6.864 12.9728 7.092C12.7328 7.308 12.4088 7.416 12.0008 7.416Z" fill="white"/>
</svg>
