<svg width="31" height="34" viewBox="0 0 31 34" fill="none" xmlns="http://www.w3.org/2000/svg">
<path d="M15 8.74506C16.8909 8.74506 18.4286 7.23248 18.4286 5.37253C18.4286 3.51258 16.8909 2 15 2C13.1092 2 11.5714 3.51258 11.5714 5.37253C11.5714 7.23248 13.1092 8.74506 15 8.74506Z" fill="#03CBC9"/>
<path d="M9.42855 15.4902H20.5714C21.2811 15.4902 21.8571 14.9236 21.8571 14.2255C21.8571 12.1328 20.1257 10.4314 18 10.4314H12C9.87426 10.4314 8.14283 12.1328 8.14283 14.2255C8.14283 14.9236 8.71883 15.4902 9.42855 15.4902Z" fill="#03CBC9"/>
<path d="M4.71428 17.1763H25.2857C26.2337 17.1763 27 17.9317 27 18.8625C27 19.7934 26.2337 20.5488 25.2857 20.5488H24.2486L23.1257 30.8519C23.0074 32.0103 22.092 32.3526 20.9126 32.3526C20.4926 29.4995 18.0137 27.2939 15 27.2939C11.9863 27.2939 9.50743 29.4995 9.08743 32.3526C7.908 32.3526 6.99257 32.0103 6.87428 30.8519L5.75143 20.5488H4.71428C3.76628 20.5488 3 19.7934 3 18.8625C3 17.9317 3.76628 17.1763 4.71428 17.1763Z" fill="#03CBC9"/>
</svg>
