<svg width="28" height="27" viewBox="0 0 28 27" fill="none" xmlns="http://www.w3.org/2000/svg">
<g clip-path="url(#clip0)">
<path d="M11.0855 0.271851H2.76979C1.69984 0.271851 0.829468 1.14222 0.829468 2.21217V7.20157C0.829468 8.27152 1.69984 9.1419 2.76979 9.1419H11.0855C12.1554 9.1419 13.0258 8.27152 13.0258 7.20157V2.21217C13.0258 1.14222 12.1554 0.271851 11.0855 0.271851Z" fill="#03CBC9"/>
<path d="M11.0855 11.3594H2.76979C1.69984 11.3594 0.829468 12.2298 0.829468 13.2998V24.9417C0.829468 26.0116 1.69984 26.882 2.76979 26.882H11.0855C12.1554 26.882 13.0258 26.0116 13.0258 24.9417V13.2998C13.0258 12.2298 12.1554 11.3594 11.0855 11.3594Z" fill="#03CBC9"/>
<path d="M25.4991 18.012H17.1835C16.1135 18.012 15.2432 18.8824 15.2432 19.9523V24.9417C15.2432 26.0117 16.1135 26.8821 17.1835 26.8821H25.4991C26.5691 26.8821 27.4395 26.0117 27.4395 24.9417V19.9523C27.4395 18.8824 26.5691 18.012 25.4991 18.012Z" fill="#03CBC9"/>
<path d="M25.4991 0.271851H17.1835C16.1135 0.271851 15.2432 1.14222 15.2432 2.21217V13.8541C15.2432 14.9241 16.1135 15.7944 17.1835 15.7944H25.4991C26.5691 15.7944 27.4395 14.9241 27.4395 13.8541V2.21217C27.4395 1.14222 26.5691 0.271851 25.4991 0.271851Z" fill="#03CBC9"/>
</g>
<defs>
<clipPath id="clip0">
<rect width="26.6101" height="26.6101" fill="white" transform="translate(0.829468 0.271851)"/>
</clipPath>
</defs>
</svg>
