<svg width="28" height="27" viewBox="0 0 28 27" fill="none" xmlns="http://www.w3.org/2000/svg">
<g clip-path="url(#clip0)">
<path d="M11.3184 9.1419H2.44835C1.53141 9.1419 0.785217 8.3957 0.785217 7.47876V1.93498C0.785217 1.01804 1.53141 0.271851 2.44835 0.271851H11.3184C12.2353 0.271851 12.9815 1.01804 12.9815 1.93498V7.47876C12.9815 8.3957 12.2353 9.1419 11.3184 9.1419ZM2.44835 1.38061C2.14344 1.38061 1.89397 1.62897 1.89397 1.93498V7.47876C1.89397 7.78478 2.14344 8.03314 2.44835 8.03314H11.3184C11.6233 8.03314 11.8728 7.78478 11.8728 7.47876V1.93498C11.8728 1.62897 11.6233 1.38061 11.3184 1.38061H2.44835Z" fill="black"/>
<path d="M11.3184 26.882H2.44835C1.53141 26.882 0.785217 26.1358 0.785217 25.2189V13.0226C0.785217 12.1056 1.53141 11.3594 2.44835 11.3594H11.3184C12.2353 11.3594 12.9815 12.1056 12.9815 13.0226V25.2189C12.9815 26.1358 12.2353 26.882 11.3184 26.882ZM2.44835 12.4682C2.14344 12.4682 1.89397 12.7166 1.89397 13.0226V25.2189C1.89397 25.5249 2.14344 25.7733 2.44835 25.7733H11.3184C11.6233 25.7733 11.8728 25.5249 11.8728 25.2189V13.0226C11.8728 12.7166 11.6233 12.4682 11.3184 12.4682H2.44835Z" fill="black"/>
<path d="M25.7321 26.8821H16.8621C15.9452 26.8821 15.199 26.1359 15.199 25.2189V19.6752C15.199 18.7582 15.9452 18.012 16.8621 18.012H25.7321C26.6491 18.012 27.3953 18.7582 27.3953 19.6752V25.2189C27.3953 26.1359 26.6491 26.8821 25.7321 26.8821ZM16.8621 19.1208C16.5572 19.1208 16.3077 19.3691 16.3077 19.6752V25.2189C16.3077 25.5249 16.5572 25.7733 16.8621 25.7733H25.7321C26.0371 25.7733 26.2865 25.5249 26.2865 25.2189V19.6752C26.2865 19.3691 26.0371 19.1208 25.7321 19.1208H16.8621Z" fill="black"/>
<path d="M25.7321 15.7944H16.8621C15.9452 15.7944 15.199 15.0482 15.199 14.1313V1.93498C15.199 1.01804 15.9452 0.271851 16.8621 0.271851H25.7321C26.6491 0.271851 27.3953 1.01804 27.3953 1.93498V14.1313C27.3953 15.0482 26.6491 15.7944 25.7321 15.7944ZM16.8621 1.38061C16.5572 1.38061 16.3077 1.62897 16.3077 1.93498V14.1313C16.3077 14.4373 16.5572 14.6857 16.8621 14.6857H25.7321C26.0371 14.6857 26.2865 14.4373 26.2865 14.1313V1.93498C26.2865 1.62897 26.0371 1.38061 25.7321 1.38061H16.8621Z" fill="black"/>
</g>
<defs>
<clipPath id="clip0">
<rect width="26.6101" height="26.6101" fill="white" transform="translate(0.785217 0.271851)"/>
</clipPath>
</defs>
</svg>
