<svg width="28" height="27" viewBox="0 0 28 27" fill="none" xmlns="http://www.w3.org/2000/svg">
<g clip-path="url(#clip0)">
<path d="M11.3185 9.14177H2.44841C1.53147 9.14177 0.785278 8.39558 0.785278 7.47864V1.93486C0.785278 1.01792 1.53147 0.271729 2.44841 0.271729H11.3185C12.2354 0.271729 12.9816 1.01792 12.9816 1.93486V7.47864C12.9816 8.39558 12.2354 9.14177 11.3185 9.14177ZM2.44841 1.38048C2.1435 1.38048 1.89403 1.62885 1.89403 1.93486V7.47864C1.89403 7.78466 2.1435 8.03302 2.44841 8.03302H11.3185C11.6234 8.03302 11.8728 7.78466 11.8728 7.47864V1.93486C11.8728 1.62885 11.6234 1.38048 11.3185 1.38048H2.44841Z" fill="#03CBC9"/>
<path d="M11.3185 26.882H2.44841C1.53147 26.882 0.785278 26.1358 0.785278 25.2188V13.0225C0.785278 12.1056 1.53147 11.3594 2.44841 11.3594H11.3185C12.2354 11.3594 12.9816 12.1056 12.9816 13.0225V25.2188C12.9816 26.1358 12.2354 26.882 11.3185 26.882ZM2.44841 12.4681C2.1435 12.4681 1.89403 12.7165 1.89403 13.0225V25.2188C1.89403 25.5248 2.1435 25.7732 2.44841 25.7732H11.3185C11.6234 25.7732 11.8728 25.5248 11.8728 25.2188V13.0225C11.8728 12.7165 11.6234 12.4681 11.3185 12.4681H2.44841Z" fill="#03CBC9"/>
<path d="M25.7321 26.882H16.8621C15.9452 26.882 15.199 26.1358 15.199 25.2189V19.6751C15.199 18.7582 15.9452 18.012 16.8621 18.012H25.7321C26.6491 18.012 27.3953 18.7582 27.3953 19.6751V25.2189C27.3953 26.1358 26.6491 26.882 25.7321 26.882ZM16.8621 19.1207C16.5572 19.1207 16.3077 19.3691 16.3077 19.6751V25.2189C16.3077 25.5249 16.5572 25.7732 16.8621 25.7732H25.7321C26.0371 25.7732 26.2865 25.5249 26.2865 25.2189V19.6751C26.2865 19.3691 26.0371 19.1207 25.7321 19.1207H16.8621Z" fill="#03CBC9"/>
<path d="M25.7321 15.7943H16.8621C15.9452 15.7943 15.199 15.0481 15.199 14.1312V1.93486C15.199 1.01792 15.9452 0.271729 16.8621 0.271729H25.7321C26.6491 0.271729 27.3953 1.01792 27.3953 1.93486V14.1312C27.3953 15.0481 26.6491 15.7943 25.7321 15.7943ZM16.8621 1.38048C16.5572 1.38048 16.3077 1.62885 16.3077 1.93486V14.1312C16.3077 14.4372 16.5572 14.6856 16.8621 14.6856H25.7321C26.0371 14.6856 26.2865 14.4372 26.2865 14.1312V1.93486C26.2865 1.62885 26.0371 1.38048 25.7321 1.38048H16.8621Z" fill="#03CBC9"/>
</g>
<defs>
<clipPath id="clip0">
<rect width="26.6101" height="26.6101" fill="white" transform="translate(0.785278 0.271729)"/>
</clipPath>
</defs>
</svg>
