<svg width="18" height="16" viewBox="0 0 18 16" fill="none" xmlns="http://www.w3.org/2000/svg">
<path d="M8.99972 4.073C8.23068 4.07223 7.48879 4.35723 6.91806 4.87269C6.34734 5.38815 5.9885 6.09728 5.91122 6.86243C5.83393 7.62757 6.0437 8.39414 6.49982 9.01332C6.95593 9.6325 7.62584 10.0601 8.3795 10.2132V15.2369C8.3795 15.4014 8.44484 15.5592 8.56116 15.6755C8.67747 15.7918 8.83522 15.8571 8.99972 15.8571C9.16421 15.8571 9.32196 15.7918 9.43828 15.6755C9.55459 15.5592 9.61993 15.4014 9.61993 15.2369V10.2132C10.3736 10.0601 11.0435 9.6325 11.4996 9.01332C11.9557 8.39414 12.1655 7.62757 12.0882 6.86243C12.0109 6.09728 11.6521 5.38815 11.0814 4.87269C10.5106 4.35723 9.76876 4.07223 8.99972 4.073ZM8.99972 9.03474C8.63171 9.03474 8.27198 8.92561 7.96599 8.72116C7.66001 8.51671 7.42153 8.22612 7.2807 7.88613C7.13987 7.54614 7.10302 7.17202 7.17482 6.81109C7.24661 6.45016 7.42382 6.11862 7.68404 5.85841C7.94425 5.59819 8.27579 5.42098 8.63672 5.34919C8.99765 5.27739 9.37177 5.31424 9.71176 5.45507C10.0517 5.5959 10.3423 5.83438 10.5468 6.14036C10.7512 6.44635 10.8604 6.80608 10.8604 7.17409C10.8604 7.66756 10.6643 8.14083 10.3154 8.48977C9.96646 8.83871 9.49319 9.03474 8.99972 9.03474Z" fill="#03CBC9"/>
<path d="M5.48925 2.78912C5.37304 2.6736 5.21585 2.60876 5.05199 2.60876C4.88814 2.60876 4.73095 2.6736 4.61474 2.78912C3.45201 3.9522 2.79883 5.52946 2.79883 7.17405C2.79883 8.81865 3.45201 10.3959 4.61474 11.559C4.73095 11.6745 4.88814 11.7393 5.05199 11.7393C5.21585 11.7393 5.37304 11.6745 5.48925 11.559C5.60476 11.4428 5.6696 11.2856 5.6696 11.1217C5.6696 10.9579 5.60476 10.8007 5.48925 10.6845C5.02792 10.2237 4.66195 9.67645 4.41225 9.0741C4.16256 8.47176 4.03404 7.8261 4.03404 7.17405C4.03404 6.522 4.16256 5.87635 4.41225 5.274C4.66195 4.67166 5.02792 4.12444 5.48925 3.66362C5.60476 3.54742 5.6696 3.39022 5.6696 3.22637C5.6696 3.06252 5.60476 2.90532 5.48925 2.78912Z" fill="#03CBC9"/>
<path d="M13.3843 2.78906C13.3287 2.72413 13.2602 2.6714 13.1833 2.63417C13.1064 2.59695 13.0225 2.57603 12.9371 2.57273C12.8517 2.56943 12.7665 2.58382 12.6869 2.615C12.6074 2.64618 12.5351 2.69348 12.4746 2.75392C12.4142 2.81437 12.3669 2.88665 12.3357 2.96624C12.3045 3.04583 12.2901 3.13101 12.2934 3.21642C12.2967 3.30184 12.3176 3.38565 12.3549 3.4626C12.3921 3.53954 12.4448 3.60796 12.5098 3.66356C12.9711 4.12438 13.3371 4.6716 13.5868 5.27394C13.8364 5.87629 13.965 6.52194 13.965 7.17399C13.965 7.82604 13.8364 8.4717 13.5868 9.07404C13.3371 9.67639 12.9711 10.2236 12.5098 10.6844C12.3942 10.8006 12.3294 10.9578 12.3294 11.1217C12.3294 11.2855 12.3942 11.4427 12.5098 11.5589C12.626 11.6744 12.7832 11.7393 12.947 11.7393C13.1109 11.7393 13.2681 11.6744 13.3843 11.5589C14.547 10.3958 15.2002 8.81859 15.2002 7.17399C15.2002 5.5294 14.547 3.95214 13.3843 2.78906Z" fill="#03CBC9"/>
<path d="M1.55551 7.17402C1.55474 6.19635 1.74661 5.22812 2.12014 4.32462C2.49367 3.42112 3.04155 2.60007 3.73248 1.90838C3.84799 1.79217 3.91283 1.63498 3.91283 1.47112C3.91283 1.30727 3.84799 1.15008 3.73248 1.03387C3.61627 0.918354 3.45907 0.853516 3.29522 0.853516C3.13137 0.853516 2.97417 0.918354 2.85797 1.03387C2.05158 1.84018 1.41191 2.79743 0.975494 3.85096C0.539076 4.90449 0.314453 6.03367 0.314453 7.17402C0.314453 8.31437 0.539076 9.44355 0.975494 10.4971C1.41191 11.5506 2.05158 12.5079 2.85797 13.3142C2.91592 13.3717 2.98465 13.4171 3.06022 13.448C3.13578 13.4789 3.2167 13.4945 3.29832 13.494C3.46103 13.4933 3.61695 13.4288 3.73248 13.3142C3.84799 13.198 3.91283 13.0408 3.91283 12.8769C3.91283 12.7131 3.84799 12.5559 3.73248 12.4397C3.04155 11.748 2.49367 10.9269 2.12014 10.0234C1.74661 9.11992 1.55474 8.15168 1.55551 7.17402Z" fill="#03CBC9"/>
<path d="M15.1388 1.03387C15.0226 0.918354 14.8654 0.853516 14.7016 0.853516C14.5377 0.853516 14.3805 0.918354 14.2643 1.03387C14.1488 1.15008 14.084 1.30727 14.084 1.47112C14.084 1.63498 14.1488 1.79217 14.2643 1.90838C14.9582 2.59982 15.5087 3.42143 15.8844 4.32609C16.26 5.23075 16.4534 6.20067 16.4534 7.18022C16.4534 8.15977 16.26 9.12969 15.8844 10.0344C15.5087 10.939 14.9582 11.7606 14.2643 12.4521C14.1488 12.5683 14.084 12.7255 14.084 12.8893C14.084 13.0532 14.1488 13.2104 14.2643 13.3266C14.3799 13.4412 14.5358 13.5058 14.6985 13.5064C14.7801 13.5069 14.861 13.4913 14.9366 13.4604C15.0122 13.4295 15.0809 13.3841 15.1388 13.3266C15.9452 12.5203 16.5849 11.563 17.0213 10.5095C17.4577 9.45595 17.6824 8.32677 17.6824 7.18642C17.6824 6.04608 17.4577 4.9169 17.0213 3.86336C16.5849 2.80983 15.9452 1.85258 15.1388 1.04627V1.03387Z" fill="#03CBC9"/>
</svg>
