<svg width="28" height="28" viewBox="0 0 28 28" fill="none" xmlns="http://www.w3.org/2000/svg">
<path d="M0 14C0 6.26801 6.26801 0 14 0V0C21.732 0 28 6.26801 28 14V14C28 21.732 21.732 28 14 28V28C6.26801 28 0 21.732 0 14V14Z" fill="white"/>
<g clip-path="url(#clip0)">
<path d="M14 7C16.8945 7 19.25 9.37183 19.25 12.2879C19.25 16.4313 14.4935 20.7095 14.2911 20.8892C14.2077 20.9632 14.1038 21 14 21C13.8962 21 13.7923 20.9633 13.7089 20.8898C13.5065 20.7095 8.75 16.4313 8.75 12.2879C8.75 9.37183 11.1055 7 14 7ZM14 15.1667C15.6083 15.1667 16.9167 13.8582 16.9167 12.25C16.9167 10.6417 15.6083 9.33333 14 9.33333C12.3918 9.33333 11.0833 10.6417 11.0833 12.25C11.0833 13.8582 12.3918 15.1667 14 15.1667Z" fill="#03CBC9"/>
</g>
<defs>
<clipPath id="clip0">
<rect width="14" height="14" fill="white" transform="matrix(-1 0 0 1 21 7)"/>
</clipPath>
</defs>
</svg>
