<svg width="36" height="35" viewBox="0 0 36 35" fill="none" xmlns="http://www.w3.org/2000/svg">
<path d="M17.8603 18.7704C19.1597 18.7704 20.4299 18.3852 21.5103 17.6633C22.5906 16.9415 23.4327 15.9155 23.93 14.715C24.4272 13.5146 24.5573 12.1937 24.3039 10.9193C24.0504 9.6449 23.4247 8.4743 22.5059 7.55552C21.5871 6.63674 20.4165 6.01105 19.1421 5.75757C17.8678 5.50409 16.5468 5.63421 15.3464 6.13147C14.146 6.62872 13.1199 7.47079 12.3981 8.55117C11.6762 9.63156 11.291 10.9017 11.291 12.2011C11.293 13.9428 11.9858 15.6125 13.2173 16.8441C14.4489 18.0756 16.1187 18.7684 17.8603 18.7704ZM17.8603 7.66881C18.7567 7.66877 19.633 7.93455 20.3784 8.43253C21.1238 8.93052 21.7047 9.63835 22.0478 10.4665C22.3908 11.2947 22.4806 12.206 22.3058 13.0852C22.1309 13.9644 21.6993 14.7719 21.0654 15.4058C20.4316 16.0397 19.624 16.4714 18.7448 16.6463C17.8656 16.8212 16.9543 16.7314 16.1262 16.3884C15.298 16.0453 14.5901 15.4644 14.0921 14.7191C13.5941 13.9738 13.3283 13.0975 13.3283 12.2011C13.3296 10.9995 13.8075 9.84746 14.6571 8.99778C15.5067 8.1481 16.6587 7.67016 17.8603 7.66881Z" fill="#6A6868"/>
<path d="M32.1122 25.6926C30.5117 25.0474 28.4248 24.5259 26.0049 24.1628C29.4666 20.2864 31.2203 16.4761 31.2203 12.818C31.2205 5.75035 25.2269 0 17.86 0C10.4931 0 4.49948 5.75035 4.49948 12.818C4.49948 16.4763 6.25355 20.2868 9.71484 24.1634C7.33431 24.5206 5.27363 25.0307 3.6805 25.6633C1.23845 26.6332 0 27.8554 0 29.2957C0 31.0972 1.91054 32.5421 5.67823 33.5904C8.94558 34.499 13.2719 35 17.86 35C22.4481 35 26.7744 34.4995 30.0417 33.5904C33.8094 32.5421 35.72 31.0972 35.72 29.2957C35.72 27.8696 34.5062 26.6579 32.1122 25.6926ZM17.86 2.03725C24.1036 2.03725 29.1832 6.87328 29.1832 12.8176C29.1832 20.2393 20.1959 27.0022 17.86 28.634C15.5231 27.0013 6.53673 20.2389 6.53673 12.8176C6.53673 6.87369 11.6164 2.03725 17.86 2.03725ZM17.86 32.9627C7.62218 32.9627 2.03725 30.5405 2.03725 29.2957C2.03725 28.5095 4.81179 26.7624 11.4636 25.986C13.2627 27.7418 15.2199 29.3278 17.3105 30.7238C17.4744 30.8285 17.6647 30.8842 17.8592 30.8842C18.0536 30.8842 18.244 30.8285 18.4078 30.7238C20.4984 29.3278 22.4556 27.7419 24.2547 25.9862C31.2979 26.807 33.6813 28.5955 33.6813 29.2957C33.6827 30.54 28.0978 32.9627 17.86 32.9627Z" fill="#6A6868"/>
</svg>
