<svg width="53" height="35" viewBox="0 0 53 35" fill="none" xmlns="http://www.w3.org/2000/svg">
<path d="M52.9114 6.46859V1.78153C52.9108 1.30915 52.7229 0.856289 52.3888 0.522302C52.0548 0.188315 51.6019 0.000477766 51.1295 0H1.78189C1.30951 0.000477766 0.856613 0.188315 0.522558 0.522302C0.188503 0.856289 0.000573496 1.30915 0 1.78153V6.46426L26.6471 22.5005L52.9114 6.46859Z" fill="#03CBC9"/>
<path d="M1.78189 35H51.1295C51.6019 34.9995 52.0548 34.8116 52.3888 34.4777C52.7229 34.1437 52.9108 33.6908 52.9114 33.2184V9.85242L27.4068 25.4218C27.1814 25.5594 26.9227 25.6325 26.6587 25.6334C26.3947 25.6342 26.1356 25.5626 25.9094 25.4265L0 9.83545V33.2184C0.000573496 33.6908 0.188503 34.1437 0.522558 34.4777C0.856613 34.8116 1.30951 34.9995 1.78189 35Z" fill="#03CBC9"/>
</svg>
