<svg width="6" height="25" viewBox="0 0 6 25" fill="none" xmlns="http://www.w3.org/2000/svg">
<path d="M5.15802 2.43056C5.15802 1.08823 4.05144 0 2.68642 0C1.32144 0 0.214844 1.08823 0.214844 2.43056C0.214844 3.77292 1.32144 4.86111 2.68642 4.86111C4.05144 4.86111 5.15802 3.77292 5.15802 2.43056ZM5.15802 12.5C5.15802 11.1577 4.05144 10.0694 2.68642 10.0694C1.32144 10.0694 0.214844 11.1577 0.214844 12.5C0.214844 13.8424 1.32144 14.9306 2.68642 14.9306C4.05144 14.9306 5.15802 13.8424 5.15802 12.5ZM5.15802 22.5694C5.15802 21.2271 4.05144 20.1389 2.68642 20.1389C1.32144 20.1389 0.214844 21.2271 0.214844 22.5694C0.214844 23.9118 1.32144 25 2.68642 25C4.05144 25 5.15802 23.9118 5.15802 22.5694Z" fill="#03CBC9"/>
</svg>
