<svg width="36" height="36" viewBox="0 0 36 36" fill="none" xmlns="http://www.w3.org/2000/svg">
<path d="M1.12497 7.87491H34.8749C35.496 7.87491 35.9999 7.37087 35.9999 6.74994C35.9999 6.12892 35.4959 5.62497 34.8749 5.62497H1.12497C0.504039 5.62497 0 6.12892 0 6.74994C0 7.37097 0.504039 7.87491 1.12497 7.87491Z" fill="black"/>
<path d="M34.8749 16.875H1.12497C0.503946 16.875 0 17.379 0 17.9999C0 18.6209 0.504039 19.1249 1.12497 19.1249H34.8749C35.496 19.1249 35.9999 18.6209 35.9999 17.9999C35.9999 17.379 35.496 16.875 34.8749 16.875Z" fill="black"/>
<path d="M34.8749 28.125H1.12497C0.503946 28.125 0 28.629 0 29.2499C0 29.871 0.504039 30.3749 1.12497 30.3749H34.8749C35.496 30.3749 35.9999 29.8709 35.9999 29.2499C36 28.6289 35.496 28.125 34.8749 28.125Z" fill="black"/>
</svg>
