<svg width="29" height="25" viewBox="0 0 29 25" fill="none" xmlns="http://www.w3.org/2000/svg">
<path d="M25.0737 0H2.94985C1.32743 0 0 1.32743 0 2.94985V16.2242C0 17.8466 1.32743 19.174 2.94985 19.174H6.67404L7.0059 23.9676C7.04277 24.3732 7.30088 24.7419 7.66962 24.9263L8.11209 25C8.37021 25 8.62832 24.8894 8.81269 24.705L15.1549 19.174H25.0737C26.6962 19.174 28.0236 17.8466 28.0236 16.2242V2.94985C28.0236 1.32743 26.6962 0 25.0737 0ZM25.8112 16.2242C25.8112 16.6298 25.4794 16.9617 25.0737 16.9617H14.7493C14.4911 16.9617 14.233 17.0723 14.0118 17.2566L9.0708 21.5708L8.81269 17.9941C8.77581 17.4041 8.29646 16.9617 7.70649 16.9617H2.94985C2.54425 16.9617 2.21239 16.6298 2.21239 16.2242V2.94985C2.21239 2.54425 2.54425 2.21239 2.94985 2.21239H25.0737C25.4794 2.21239 25.8112 2.54425 25.8112 2.94985V16.2242Z" fill="#03CBC9"/>
<path d="M21.9395 5.78906H5.97338C5.38341 5.82594 4.90406 6.30529 4.86719 6.89526C4.86719 7.5221 5.34654 8.00145 5.97338 8.00145H21.9395C22.5663 8.00145 23.0457 7.5221 23.0457 6.89526C23.0088 6.30529 22.5294 5.82594 21.9395 5.78906Z" fill="#03CBC9"/>
<path d="M21.9395 10.767H5.97338C5.34654 10.767 4.86719 11.2463 4.86719 11.8732C4.90406 12.4631 5.38341 12.9425 5.97338 12.9794H21.9395C22.5294 12.9425 23.0088 12.4631 23.0457 11.8732C23.0457 11.2463 22.5663 10.767 21.9395 10.767Z" fill="#03CBC9"/>
</svg>
