<svg width="38" height="38" viewBox="0 0 38 38" fill="none" xmlns="http://www.w3.org/2000/svg">
<path d="M1.23527 9.00738H7.89702C8.51077 9.00738 9.00727 8.51075 9.00727 7.89713C9.00727 7.28338 8.51064 6.78688 7.89702 6.78688H1.23527C0.62152 6.78688 0.125019 7.2835 0.125019 7.89713C0.125019 8.51075 0.621645 9.00738 1.23527 9.00738ZM3.45589 4.56613H10.1176C10.7314 4.56613 11.2279 4.0695 11.2279 3.45588C11.2279 2.84225 10.7313 2.34563 10.1176 2.34563H3.45589C2.84214 2.34563 2.34564 2.84225 2.34564 3.45588C2.34564 4.0695 2.84227 4.56613 3.45589 4.56613ZM8.18989 17.5309C8.49364 17.8608 8.97689 17.9855 9.41952 17.8106L14.7736 15.6691H30.1031C30.5239 15.6691 30.9076 15.4316 31.0964 15.0554L37.7581 1.73188C37.9294 1.38813 37.9121 0.979377 37.7104 0.651877C37.5065 0.324377 37.1488 0.124878 36.7649 0.124878H16.7795C16.3588 0.124878 15.975 0.362377 15.7863 0.738627L8.01414 16.2828C7.80815 16.6949 7.87764 17.1915 8.18989 17.5309ZM19.5249 4.56613H29.5804C30.1941 4.56613 30.6906 5.06275 30.6906 5.67638C30.6906 6.29013 30.194 6.78663 29.5804 6.78663H19.5249C18.9111 6.78663 18.4146 6.29 18.4146 5.67638C18.4145 5.06275 18.9111 4.56613 19.5249 4.56613ZM17.3043 9.00738H27.3599C27.9736 9.00738 28.4701 9.504 28.4701 10.1176C28.4701 10.7313 27.9735 11.2279 27.3599 11.2279H17.3043C16.6905 11.2279 16.194 10.7313 16.194 10.1176C16.194 9.504 16.6905 9.00738 17.3043 9.00738ZM36.7648 26.7721H30.103C29.4894 26.7721 28.9928 27.2688 28.9928 27.8824C28.9928 28.4961 29.4894 28.9926 30.103 28.9926H36.7648C37.3785 28.9926 37.875 28.496 37.875 27.8824C37.8751 27.2688 37.3785 26.7721 36.7648 26.7721ZM27.8824 22.3309C27.2686 22.3309 26.7721 22.8275 26.7721 23.4411C26.7721 24.0549 27.2688 24.5514 27.8824 24.5514H34.5441C35.1579 24.5514 35.6544 24.0548 35.6544 23.4411C35.6544 22.8274 35.1578 22.3309 34.5441 22.3309H27.8824ZM22.2139 20.724C22.0253 20.3478 21.6414 20.1103 21.2206 20.1103H1.23527C0.851395 20.1103 0.493644 20.3098 0.289769 20.6373C0.0881444 20.9648 0.0707689 21.3735 0.242019 21.7173L6.90377 35.0408C7.09239 35.417 7.47627 35.6545 7.89702 35.6545H23.2265L28.5806 37.796C29.0226 37.9706 29.506 37.8466 29.8103 37.5163C30.1225 37.1769 30.1919 36.6803 29.9859 36.2683L22.2139 20.724ZM7.31164 25.6619C7.31164 25.0481 7.80827 24.5516 8.42189 24.5516H18.4753C19.089 24.5516 19.5855 25.0483 19.5855 25.6619C19.5855 26.2755 19.0889 26.7721 18.4753 26.7721H8.42189C7.80814 26.7721 7.31164 26.2755 7.31164 25.6619ZM20.6959 31.2133H10.6425C10.0288 31.2133 9.53227 30.7166 9.53227 30.103C9.53227 29.4894 10.0289 28.9928 10.6425 28.9928H20.6959C21.3096 28.9928 21.8061 29.4894 21.8061 30.103C21.8061 30.7166 21.3095 31.2133 20.6959 31.2133Z" fill="url(#paint0_linear)"/>
<defs>
<linearGradient id="paint0_linear" x1="19" y1="37.875" x2="19" y2="0.125004" gradientUnits="userSpaceOnUse">
<stop stop-color="#9CFFAC"/>
<stop offset="1" stop-color="#00B59C"/>
</linearGradient>
</defs>
</svg>
