<svg width="33" height="30" viewBox="0 0 33 30" fill="none" xmlns="http://www.w3.org/2000/svg">
<path d="M28.1406 0H4.64082C3.41031 0.00103014 2.2305 0.490303 1.3604 1.3604C0.490303 2.2305 0.00103014 3.41031 0 4.64082V20.1738C0.00612571 21.403 0.496912 22.5803 1.3658 23.4499C2.23469 24.3195 3.41153 24.8113 4.64082 24.8185H7.91234L7.98237 29.4282C7.9864 29.5806 8.04953 29.7254 8.15842 29.8321C8.26731 29.9388 8.41342 29.999 8.56587 30C8.66054 29.9994 8.75376 29.9767 8.83817 29.9339L18.5049 24.8185H28.1406C29.3685 24.8093 30.5434 24.3166 31.4106 23.4472C32.2778 22.5778 32.7675 21.4017 32.7736 20.1738V4.64082C32.7665 3.41354 32.2763 2.23844 31.4092 1.36988C30.5421 0.50132 29.3678 0.00918407 28.1406 0ZM31.6183 20.1738C31.6121 21.0942 31.2438 21.9752 30.5929 22.6261C29.942 23.277 29.061 23.6453 28.1406 23.6515H18.361C18.2663 23.6517 18.173 23.6743 18.0887 23.7176L9.1416 28.4557L9.07936 24.2311C9.0763 24.0783 9.01348 23.9329 8.90438 23.826C8.79528 23.7191 8.64861 23.6592 8.49585 23.6592H4.64082C3.71915 23.6582 2.83558 23.2913 2.18423 22.6393C1.53288 21.9872 1.16701 21.1032 1.16701 20.1815V4.64082C1.16804 3.71982 1.53436 2.83685 2.1856 2.1856C2.83685 1.53436 3.71982 1.16804 4.64082 1.16701H28.1406C29.0603 1.17312 29.9408 1.54094 30.5915 2.19098C31.2423 2.84102 31.6111 3.72104 31.6183 4.64082V20.1738Z" fill="#03CBC9"/>
<path d="M31.6183 20.1738C31.6121 21.0942 31.2438 21.9752 30.5929 22.6261C29.942 23.277 29.061 23.6453 28.1406 23.6515H18.361C18.2663 23.6517 18.173 23.6743 18.0887 23.7176L9.1416 28.4557L9.07936 24.2311C9.0763 24.0783 9.01348 23.9329 8.90438 23.826C8.79528 23.7191 8.64861 23.6592 8.49585 23.6592H4.64082C3.71915 23.6582 2.83558 23.2913 2.18423 22.6393C1.53288 21.9872 1.16701 21.1032 1.16701 20.1815V4.64082C1.16804 3.71982 1.53436 2.83685 2.1856 2.1856C2.83685 1.53436 3.71982 1.16804 4.64082 1.16701H28.1406C29.0603 1.17312 29.9408 1.54094 30.5915 2.19098C31.2423 2.84102 31.6111 3.72104 31.6183 4.64082V20.1738Z" fill="#03CBC9"/>
<path d="M25.674 7.62451H7.5464C7.39164 7.62451 7.24322 7.68599 7.1338 7.79542C7.02437 7.90485 6.96289 8.05326 6.96289 8.20802C6.96289 8.36277 7.02437 8.51119 7.1338 8.62062C7.24322 8.73005 7.39164 8.79152 7.5464 8.79152H25.674C25.8287 8.79152 25.9772 8.73005 26.0866 8.62062C26.196 8.51119 26.2575 8.36277 26.2575 8.20802C26.2575 8.05326 26.196 7.90485 26.0866 7.79542C25.9772 7.68599 25.8287 7.62451 25.674 7.62451Z" fill="white"/>
<path d="M25.674 11.8257H7.5464C7.39164 11.8257 7.24322 11.8872 7.1338 11.9966C7.02437 12.106 6.96289 12.2544 6.96289 12.4092C6.96289 12.5639 7.02437 12.7124 7.1338 12.8218C7.24322 12.9312 7.39164 12.9927 7.5464 12.9927H25.674C25.8287 12.9927 25.9772 12.9312 26.0866 12.8218C26.196 12.7124 26.2575 12.5639 26.2575 12.4092C26.2575 12.2544 26.196 12.106 26.0866 11.9966C25.9772 11.8872 25.8287 11.8257 25.674 11.8257Z" fill="white"/>
<path d="M25.674 16.0269H7.5464C7.39164 16.0269 7.24322 16.0883 7.1338 16.1978C7.02437 16.3072 6.96289 16.4556 6.96289 16.6104C6.96289 16.7651 7.02437 16.9135 7.1338 17.023C7.24322 17.1324 7.39164 17.1939 7.5464 17.1939H25.674C25.8287 17.1939 25.9772 17.1324 26.0866 17.023C26.196 16.9135 26.2575 16.7651 26.2575 16.6104C26.2575 16.4556 26.196 16.3072 26.0866 16.1978C25.9772 16.0883 25.8287 16.0269 25.674 16.0269Z" fill="white"/>
</svg>
