<svg width="24" height="24" viewBox="0 0 24 24" fill="none" xmlns="http://www.w3.org/2000/svg">
<path d="M11.3408 4.778V12C11.3408 12.1751 11.4103 12.3425 11.5339 12.4661L16.6379 17.5706C15.3361 18.6593 13.7125 19.2515 12 19.2515C8.00206 19.2515 4.74838 15.9985 4.74838 11.9999C4.74838 8.22353 7.6493 5.11213 11.3408 4.778ZM12 0.792969C18.1791 0.792969 23.207 5.82025 23.207 12C23.207 18.1797 18.1791 23.207 12 23.207C5.82092 23.207 0.792969 18.1797 0.792969 12C0.792969 5.82025 5.82092 0.792969 12 0.792969ZM19.9108 12.6592C20.2752 12.6592 20.57 12.3643 20.57 12C20.57 11.6357 20.2752 11.3408 19.9108 11.3408H18.5923C18.2279 11.3408 17.9331 11.6357 17.9331 12C17.9331 12.3643 18.228 12.6592 18.5923 12.6592H19.9108ZM12 20.5701C14.2868 20.5701 16.4369 19.6779 18.0568 18.0574C18.3143 17.7999 18.3143 17.3828 18.0568 17.1252L12.6593 11.7271V4.08917C12.6593 3.72476 12.3644 3.42996 12.0001 3.42996C7.27472 3.42996 3.42996 7.27464 3.42996 12.0001C3.42996 16.7255 7.27464 20.5701 12 20.5701Z" fill="url(#paint0_linear)"/>
<defs>
<linearGradient id="paint0_linear" x1="12" y1="23.207" x2="12" y2="0.792969" gradientUnits="userSpaceOnUse">
<stop stop-color="#9CFFAC"/>
<stop offset="1" stop-color="#00B59C"/>
</linearGradient>
</defs>
</svg>
