<svg width="24" height="24" viewBox="0 0 24 24" fill="none" xmlns="http://www.w3.org/2000/svg">
<path d="M11.9697 12.6592C9.42551 12.6592 7.35503 14.7296 7.35503 17.2739V17.59C9.95209 19.737 13.986 19.737 16.5844 17.59V17.2739C16.5844 14.7297 14.5139 12.6592 11.9697 12.6592ZM11.9697 6.06688C10.8792 6.06688 9.99202 6.95402 9.99202 8.04459C9.99202 9.13516 10.8792 10.0223 11.9697 10.0223C13.0603 10.0223 13.9474 9.13516 13.9474 8.04459C13.9474 6.95402 13.0603 6.06688 11.9697 6.06688ZM11.9697 0.792969C5.79005 0.792969 0.762695 5.82032 0.762695 12C0.762695 18.1797 5.79005 23.207 11.9697 23.207C18.1494 23.207 23.1768 18.1797 23.1768 12C23.1768 5.82032 18.1494 0.792969 11.9697 0.792969ZM17.9028 17.8919C17.9028 18.0793 17.823 18.2583 17.6833 18.3831C16.1086 19.7936 14.0794 20.57 11.9697 20.57C9.85939 20.57 7.83018 19.793 6.25614 18.3831C6.11646 18.2576 6.0366 18.0793 6.0366 17.8919V17.2739C6.0366 14.0022 8.69802 11.3408 11.9697 11.3408C10.1523 11.3408 8.67352 9.86198 8.67352 8.04459C8.67352 6.22719 10.1523 4.74838 11.9697 4.74838C13.7871 4.74838 15.2659 6.22719 15.2659 8.04459C15.2659 9.86198 13.7871 11.3408 11.9697 11.3408C15.2414 11.3408 17.9028 14.0022 17.9028 17.2739V17.8919Z" fill="url(#paint0_linear)"/>
<defs>
<linearGradient id="paint0_linear" x1="11.9697" y1="23.207" x2="11.9697" y2="0.792969" gradientUnits="userSpaceOnUse">
<stop stop-color="#9CFFAC"/>
<stop offset="1" stop-color="#00B59C"/>
</linearGradient>
</defs>
</svg>
