<svg width="20" height="24" viewBox="0 0 20 24" fill="none" xmlns="http://www.w3.org/2000/svg">
<path d="M10.6581 5.40767C10.6581 5.77208 10.3637 6.06688 10 6.06688C9.63625 6.06688 9.3419 5.77201 9.3419 5.40767V4.74846H4.07734V10.0224H4.73544C5.09919 10.0224 5.39354 10.3172 5.39354 10.6816C5.39354 11.0459 5.09919 11.3408 4.73544 11.3408H4.07734V16.6147H9.3419V15.9555C9.3419 15.5911 9.63625 15.2963 10 15.2963C10.3637 15.2963 10.6581 15.5911 10.6581 15.9555V16.6147H15.9227V11.3408H15.2646C14.9008 11.3408 14.6065 11.0459 14.6065 10.6816C14.6065 10.3172 14.9008 10.0224 15.2646 10.0224H15.9227V4.74846H10.6581V5.40767ZM10.6581 13.3185C10.6581 13.6829 10.3637 13.9777 10 13.9777C9.63625 13.9777 9.3419 13.6828 9.3419 13.3185V10.9545L8.21853 9.82918C7.96151 9.57164 7.96151 9.15445 8.21853 8.89699C8.47562 8.63945 8.89206 8.63945 9.14908 8.89699L10.4645 10.2147C10.5895 10.3396 10.658 10.5124 10.658 10.6816V13.3185H10.6581ZM19.213 0.792969H0.787004C0.423258 0.792969 0.128906 1.08784 0.128906 1.45218V19.9108C0.128906 20.2752 0.423258 20.57 0.787004 20.57H19.2131C19.5768 20.57 19.8712 20.2752 19.8712 19.9108V1.45218C19.8711 1.08784 19.5767 0.792969 19.213 0.792969ZM17.2388 17.2739C17.2388 17.6383 16.9444 17.9331 16.5808 17.9331H3.41925C3.0555 17.9331 2.76122 17.6382 2.76122 17.2739V4.08917C2.76122 3.72476 3.05557 3.42996 3.41925 3.42996H16.5807C16.9444 3.42996 17.2387 3.72483 17.2387 4.08917V17.2739H17.2388ZM1.44503 22.5478C1.44503 22.9122 1.73938 23.207 2.10313 23.207H4.73544C5.09919 23.207 5.39354 22.9122 5.39354 22.5478V21.8886H1.4451V22.5478H1.44503ZM14.6065 22.5478C14.6065 22.9122 14.9009 23.207 15.2646 23.207H17.8969C18.2606 23.207 18.555 22.9122 18.555 22.5478V21.8886H14.6065V22.5478Z" fill="url(#paint0_linear)"/>
<defs>
<linearGradient id="paint0_linear" x1="10" y1="23.207" x2="10" y2="0.792969" gradientUnits="userSpaceOnUse">
<stop stop-color="#9CFFAC"/>
<stop offset="1" stop-color="#00B59C"/>
</linearGradient>
</defs>
</svg>
