<svg width="28" height="28" viewBox="0 0 28 28" fill="none" xmlns="http://www.w3.org/2000/svg">
<path d="M23.4984 4.78645C20.9854 2.27345 17.6442 0.889465 14.0903 0.889465C10.5364 0.889465 7.19519 2.27345 4.68215 4.78645C2.1692 7.29944 0.785217 10.6406 0.785217 14.1945C0.785217 17.7484 2.1692 21.0896 4.68215 23.6026C7.19519 26.1156 10.5364 27.4996 14.0903 27.4996C17.6442 27.4996 20.9854 26.1156 23.4984 23.6026C26.0114 21.0896 27.3954 17.7484 27.3954 14.1945C27.3954 10.6406 26.0114 7.29944 23.4984 4.78645ZM14.0903 25.9404C10.928 25.9404 8.05405 24.6839 5.94031 22.6443C7.08496 19.1469 10.3735 16.7412 14.0903 16.7412C17.807 16.7412 21.0956 19.1469 22.2403 22.6444C20.1265 24.6839 17.2525 25.9404 14.0903 25.9404ZM10.1923 11.284C10.1923 9.13471 11.9409 7.38608 14.0903 7.38608C16.2396 7.38608 17.9883 9.13471 17.9883 11.284C17.9883 13.4334 16.2396 15.182 14.0903 15.182C11.9409 15.182 10.1923 13.4334 10.1923 11.284ZM23.4111 21.3332C22.2641 18.6496 20.0119 16.6105 17.2899 15.702C18.6568 14.7093 19.5474 13.0988 19.5474 11.284C19.5474 8.27497 17.0994 5.82689 14.0903 5.82689C11.0812 5.82689 8.63313 8.27497 8.63313 11.284C8.63313 13.0988 9.52379 14.7093 10.8907 15.702C8.1687 16.6105 5.9165 18.6496 4.76946 21.3332C3.24946 19.3533 2.34441 16.8778 2.34441 14.1945C2.34441 7.71782 7.61358 2.44865 14.0903 2.44865C20.567 2.44865 25.8362 7.71782 25.8362 14.1945C25.8362 16.8778 24.9311 19.3533 23.4111 21.3332Z" fill="black"/>
</svg>
