<svg width="28" height="28" viewBox="0 0 28 28" fill="none" xmlns="http://www.w3.org/2000/svg">
<path d="M23.5722 4.78639C21.0592 2.27339 17.718 0.889404 14.1641 0.889404C10.6102 0.889404 7.26899 2.27339 4.75594 4.78639C2.243 7.29938 0.859009 10.6406 0.859009 14.1945C0.859009 17.7484 2.243 21.0896 4.75594 23.6026C7.26899 26.1156 10.6102 27.4995 14.1641 27.4995C17.718 27.4995 21.0592 26.1156 23.5722 23.6026C26.0852 21.0896 27.4691 17.7484 27.4691 14.1945C27.4691 10.6406 26.0852 7.29938 23.5722 4.78639ZM14.1641 25.9404C10.6887 25.9404 7.56159 24.4226 5.40913 22.0158C6.74354 18.4782 10.1595 15.9616 14.1641 15.9616C11.5807 15.9616 9.48651 13.8674 9.48651 11.284C9.48651 8.70062 11.5807 6.60643 14.1641 6.60643C16.7474 6.60643 18.8416 8.70062 18.8416 11.284C18.8416 13.8674 16.7474 15.9616 14.1641 15.9616C18.1687 15.9616 21.5846 18.4782 22.919 22.0158C20.7666 24.4226 17.6395 25.9404 14.1641 25.9404Z" fill="#03CBC9"/>
</svg>
