<svg width="62" height="26" viewBox="0 0 62 26" fill="none" xmlns="http://www.w3.org/2000/svg">
<g clip-path="url(#clip0)">
<g filter="url(#filter0_d)">
<rect width="26" height="62" rx="13" transform="matrix(-4.37114e-08 1 1 4.37114e-08 0 0)" fill="white"/>
</g>
<path d="M27.3367 16.0693C26.7589 16.0693 26.2562 15.9422 25.8287 15.688C25.4069 15.4338 25.0804 15.0727 24.8493 14.6047C24.6182 14.1367 24.5027 13.5849 24.5027 12.9493C24.5027 12.308 24.6153 11.7533 24.8407 11.2853C25.0718 10.8116 25.4011 10.4504 25.8287 10.202C26.2562 9.94778 26.7589 9.82067 27.3367 9.82067C27.9202 9.82067 28.4258 9.94778 28.8533 10.202C29.2809 10.4504 29.6073 10.8116 29.8327 11.2853C30.0638 11.7533 30.1793 12.3051 30.1793 12.9407C30.1793 13.5762 30.0638 14.1309 29.8327 14.6047C29.6073 15.0727 29.2809 15.4338 28.8533 15.688C28.4258 15.9422 27.9202 16.0693 27.3367 16.0693ZM27.3367 15.3413C27.9491 15.3413 28.4258 15.1333 28.7667 14.7173C29.1076 14.3013 29.278 13.7091 29.278 12.9407C29.278 12.1722 29.1076 11.5829 28.7667 11.1727C28.4316 10.7567 27.9549 10.5487 27.3367 10.5487C26.73 10.5487 26.2562 10.7567 25.9153 11.1727C25.5802 11.5829 25.4127 12.1722 25.4127 12.9407C25.4127 13.7091 25.5802 14.3013 25.9153 14.7173C26.2562 15.1333 26.73 15.3413 27.3367 15.3413ZM33.2862 10.5573C32.9973 10.5804 32.7835 10.6729 32.6449 10.8347C32.5062 10.9907 32.4369 11.2218 32.4369 11.528V11.7707H33.2949C33.4162 11.7707 33.5086 11.8024 33.5722 11.866C33.6415 11.9238 33.6762 12.0047 33.6762 12.1087C33.6762 12.2127 33.6415 12.2964 33.5722 12.36C33.5086 12.4178 33.4162 12.4467 33.2949 12.4467H32.4369V15.6187C32.4369 15.7573 32.3935 15.8642 32.3069 15.9393C32.226 16.0087 32.122 16.0433 31.9949 16.0433C31.8678 16.0433 31.7638 16.0087 31.6829 15.9393C31.602 15.8642 31.5615 15.7573 31.5615 15.6187V12.4467H31.0415C30.9202 12.4467 30.8249 12.4178 30.7555 12.36C30.692 12.2964 30.6602 12.2127 30.6602 12.1087C30.6602 12.0047 30.692 11.9238 30.7555 11.866C30.8249 11.8024 30.9202 11.7707 31.0415 11.7707H31.5615V11.658C31.5615 11.1264 31.6973 10.7104 31.9689 10.41C32.2404 10.1038 32.6246 9.93333 33.1215 9.89867L33.3469 9.88133C33.5318 9.86978 33.6646 9.89 33.7455 9.942C33.8322 9.994 33.8755 10.0778 33.8755 10.1933C33.8755 10.3956 33.7542 10.5111 33.5115 10.54L33.2862 10.5573ZM36.2146 10.5573C35.9257 10.5804 35.7119 10.6729 35.5733 10.8347C35.4346 10.9907 35.3653 11.2218 35.3653 11.528V11.7707H36.2233C36.3446 11.7707 36.437 11.8024 36.5006 11.866C36.5699 11.9238 36.6046 12.0047 36.6046 12.1087C36.6046 12.2127 36.5699 12.2964 36.5006 12.36C36.437 12.4178 36.3446 12.4467 36.2233 12.4467H35.3653V15.6187C35.3653 15.7573 35.3219 15.8642 35.2353 15.9393C35.1544 16.0087 35.0504 16.0433 34.9233 16.0433C34.7961 16.0433 34.6921 16.0087 34.6113 15.9393C34.5304 15.8642 34.4899 15.7573 34.4899 15.6187V12.4467H33.9699C33.8486 12.4467 33.7533 12.4178 33.6839 12.36C33.6204 12.2964 33.5886 12.2127 33.5886 12.1087C33.5886 12.0047 33.6204 11.9238 33.6839 11.866C33.7533 11.8024 33.8486 11.7707 33.9699 11.7707H34.4899V11.658C34.4899 11.1264 34.6257 10.7104 34.8973 10.41C35.1688 10.1038 35.553 9.93333 36.0499 9.89867L36.2753 9.88133C36.4601 9.86978 36.593 9.89 36.6739 9.942C36.7606 9.994 36.8039 10.0778 36.8039 10.1933C36.8039 10.3956 36.6826 10.5111 36.4399 10.54L36.2146 10.5573ZM37.6273 16.0433C37.5001 16.0433 37.3933 16.0087 37.3066 15.9393C37.2257 15.87 37.1853 15.766 37.1853 15.6273V10.2713C37.1853 10.1327 37.2257 10.0287 37.3066 9.95933C37.3933 9.88422 37.5001 9.84667 37.6273 9.84667C37.7544 9.84667 37.8584 9.88422 37.9393 9.95933C38.0201 10.0287 38.0606 10.1327 38.0606 10.2713V15.6273C38.0606 15.766 38.0201 15.87 37.9393 15.9393C37.8584 16.0087 37.7544 16.0433 37.6273 16.0433ZM39.7244 16.0433C39.5973 16.0433 39.4904 16.0087 39.4038 15.9393C39.3229 15.87 39.2824 15.766 39.2824 15.6273V12.1087C39.2824 11.97 39.3229 11.866 39.4038 11.7967C39.4904 11.7216 39.5973 11.684 39.7244 11.684C39.8516 11.684 39.9556 11.7216 40.0364 11.7967C40.1173 11.866 40.1578 11.97 40.1578 12.1087V15.6273C40.1578 15.766 40.1173 15.87 40.0364 15.9393C39.9556 16.0087 39.8516 16.0433 39.7244 16.0433ZM39.7244 10.8347C39.5569 10.8347 39.424 10.7884 39.3258 10.696C39.2276 10.6036 39.1784 10.4822 39.1784 10.332C39.1784 10.1818 39.2276 10.0633 39.3258 9.97667C39.424 9.88422 39.5569 9.838 39.7244 9.838C39.8862 9.838 40.0162 9.88422 40.1144 9.97667C40.2184 10.0633 40.2704 10.1818 40.2704 10.332C40.2704 10.4822 40.2213 10.6036 40.1231 10.696C40.0249 10.7884 39.892 10.8347 39.7244 10.8347ZM43.6607 11.6667C44.6719 11.6667 45.1774 12.2358 45.1774 13.374V15.6273C45.1774 15.7602 45.137 15.8642 45.0561 15.9393C44.981 16.0087 44.8741 16.0433 44.7354 16.0433C44.6025 16.0433 44.4956 16.0058 44.4147 15.9307C44.3396 15.8556 44.3021 15.7544 44.3021 15.6273V13.4173C44.3021 13.0591 44.2299 12.7962 44.0854 12.6287C43.9467 12.4611 43.7272 12.3773 43.4267 12.3773C43.0743 12.3773 42.7912 12.4871 42.5774 12.7067C42.3636 12.9262 42.2567 13.2209 42.2567 13.5907V15.6273C42.2567 15.7544 42.2163 15.8556 42.1354 15.9307C42.0603 16.0058 41.9563 16.0433 41.8234 16.0433C41.6905 16.0433 41.5836 16.0058 41.5027 15.9307C41.4219 15.8556 41.3814 15.7544 41.3814 15.6273V12.1C41.3814 11.9787 41.4219 11.8804 41.5027 11.8053C41.5894 11.7244 41.6963 11.684 41.8234 11.684C41.9505 11.684 42.0516 11.7216 42.1267 11.7967C42.2019 11.8718 42.2394 11.97 42.2394 12.0913V12.4467C42.3781 12.1924 42.5716 11.9989 42.8201 11.866C43.0685 11.7331 43.3487 11.6667 43.6607 11.6667ZM49.6856 14.934C49.7665 14.934 49.8329 14.9658 49.8849 15.0293C49.9369 15.0929 49.9629 15.1738 49.9629 15.272C49.9629 15.4396 49.8589 15.5811 49.6509 15.6967C49.4487 15.8122 49.2262 15.9018 48.9836 15.9653C48.7467 16.0289 48.5185 16.0607 48.2989 16.0607C47.6287 16.0607 47.1 15.8671 46.7129 15.48C46.3258 15.0871 46.1322 14.5527 46.1322 13.8767C46.1322 13.4433 46.216 13.0591 46.3836 12.724C46.5569 12.3889 46.7967 12.1289 47.1029 11.944C47.4149 11.7591 47.7673 11.6667 48.1602 11.6667C48.7265 11.6667 49.1742 11.8487 49.5036 12.2127C49.8329 12.5767 49.9976 13.0678 49.9976 13.686C49.9976 13.9171 49.8936 14.0327 49.6856 14.0327H47.0076C47.0653 14.9282 47.4958 15.376 48.2989 15.376C48.5127 15.376 48.6976 15.3471 48.8536 15.2893C49.0096 15.2316 49.1742 15.1564 49.3476 15.064C49.3649 15.0524 49.4111 15.0293 49.4862 14.9947C49.5671 14.9542 49.6336 14.934 49.6856 14.934ZM48.1776 12.308C47.8425 12.308 47.5738 12.4149 47.3716 12.6287C47.1693 12.8424 47.048 13.1429 47.0076 13.53H49.2436C49.2262 13.1371 49.1251 12.8367 48.9402 12.6287C48.7611 12.4149 48.5069 12.308 48.1776 12.308Z" fill="#2F1E6F"/>
<rect x="12" y="9" width="8" height="8" rx="4" fill="#98989C"/>
</g>
<defs>
<filter id="filter0_d" x="-20.1724" y="-20.1724" width="102.345" height="66.3448" filterUnits="userSpaceOnUse" color-interpolation-filters="sRGB">
<feFlood flood-opacity="0" result="BackgroundImageFix"/>
<feColorMatrix in="SourceAlpha" type="matrix" values="0 0 0 0 0 0 0 0 0 0 0 0 0 0 0 0 0 0 127 0" result="hardAlpha"/>
<feOffset/>
<feGaussianBlur stdDeviation="10.0862"/>
<feColorMatrix type="matrix" values="0 0 0 0 0.6875 0 0 0 0 0.6875 0 0 0 0 0.6875 0 0 0 0.25 0"/>
<feBlend mode="normal" in2="BackgroundImageFix" result="effect1_dropShadow"/>
<feBlend mode="normal" in="SourceGraphic" in2="effect1_dropShadow" result="shape"/>
</filter>
<clipPath id="clip0">
<rect width="62" height="26" fill="white"/>
</clipPath>
</defs>
</svg>
