<svg width="62" height="26" viewBox="0 0 62 26" fill="none" xmlns="http://www.w3.org/2000/svg">
<g clip-path="url(#clip0)">
<g filter="url(#filter0_d)">
<rect width="26" height="62" rx="13" transform="matrix(-4.37114e-08 1 1 4.37114e-08 0 0)" fill="white"/>
</g>
<path d="M27.3367 16.0693C26.7589 16.0693 26.2562 15.9422 25.8287 15.688C25.4069 15.4338 25.0804 15.0727 24.8493 14.6047C24.6182 14.1367 24.5027 13.5849 24.5027 12.9493C24.5027 12.308 24.6153 11.7533 24.8407 11.2853C25.0718 10.8116 25.4011 10.4504 25.8287 10.202C26.2562 9.94778 26.7589 9.82067 27.3367 9.82067C27.9202 9.82067 28.4258 9.94778 28.8533 10.202C29.2809 10.4504 29.6073 10.8116 29.8327 11.2853C30.0638 11.7533 30.1793 12.3051 30.1793 12.9407C30.1793 13.5762 30.0638 14.1309 29.8327 14.6047C29.6073 15.0727 29.2809 15.4338 28.8533 15.688C28.4258 15.9422 27.9202 16.0693 27.3367 16.0693ZM27.3367 15.3413C27.9491 15.3413 28.4258 15.1333 28.7667 14.7173C29.1076 14.3013 29.278 13.7091 29.278 12.9407C29.278 12.1722 29.1076 11.5829 28.7667 11.1727C28.4316 10.7567 27.9549 10.5487 27.3367 10.5487C26.73 10.5487 26.2562 10.7567 25.9153 11.1727C25.5802 11.5829 25.4127 12.1722 25.4127 12.9407C25.4127 13.7091 25.5802 14.3013 25.9153 14.7173C26.2562 15.1333 26.73 15.3413 27.3367 15.3413ZM33.5722 11.6667C34.5833 11.6667 35.0889 12.2358 35.0889 13.374V15.6273C35.0889 15.7602 35.0484 15.8642 34.9675 15.9393C34.8924 16.0087 34.7855 16.0433 34.6469 16.0433C34.514 16.0433 34.4071 16.0058 34.3262 15.9307C34.2511 15.8556 34.2135 15.7544 34.2135 15.6273V13.4173C34.2135 13.0591 34.1413 12.7962 33.9969 12.6287C33.8582 12.4611 33.6386 12.3773 33.3382 12.3773C32.9858 12.3773 32.7026 12.4871 32.4889 12.7067C32.2751 12.9262 32.1682 13.2209 32.1682 13.5907V15.6273C32.1682 15.7544 32.1278 15.8556 32.0469 15.9307C31.9718 16.0058 31.8678 16.0433 31.7349 16.0433C31.602 16.0433 31.4951 16.0058 31.4142 15.9307C31.3333 15.8556 31.2929 15.7544 31.2929 15.6273V12.1C31.2929 11.9787 31.3333 11.8804 31.4142 11.8053C31.5009 11.7244 31.6078 11.684 31.7349 11.684C31.862 11.684 31.9631 11.7216 32.0382 11.7967C32.1133 11.8718 32.1509 11.97 32.1509 12.0913V12.4467C32.2895 12.1924 32.4831 11.9989 32.7315 11.866C32.98 11.7331 33.2602 11.6667 33.5722 11.6667ZM36.7284 16.0433C36.6012 16.0433 36.4944 16.0087 36.4077 15.9393C36.3268 15.87 36.2864 15.766 36.2864 15.6273V10.2713C36.2864 10.1327 36.3268 10.0287 36.4077 9.95933C36.4944 9.88422 36.6012 9.84667 36.7284 9.84667C36.8555 9.84667 36.9595 9.88422 37.0404 9.95933C37.1212 10.0287 37.1617 10.1327 37.1617 10.2713V15.6273C37.1617 15.766 37.1212 15.87 37.0404 15.9393C36.9595 16.0087 36.8555 16.0433 36.7284 16.0433ZM38.8273 16.0433C38.7002 16.0433 38.5933 16.0087 38.5066 15.9393C38.4258 15.87 38.3853 15.766 38.3853 15.6273V12.1087C38.3853 11.97 38.4258 11.866 38.5066 11.7967C38.5933 11.7216 38.7002 11.684 38.8273 11.684C38.9544 11.684 39.0584 11.7216 39.1393 11.7967C39.2202 11.866 39.2606 11.97 39.2606 12.1087V15.6273C39.2606 15.766 39.2202 15.87 39.1393 15.9393C39.0584 16.0087 38.9544 16.0433 38.8273 16.0433ZM38.8273 10.8347C38.6598 10.8347 38.5269 10.7884 38.4286 10.696C38.3304 10.6036 38.2813 10.4822 38.2813 10.332C38.2813 10.1818 38.3304 10.0633 38.4286 9.97667C38.5269 9.88422 38.6598 9.838 38.8273 9.838C38.9891 9.838 39.1191 9.88422 39.2173 9.97667C39.3213 10.0633 39.3733 10.1818 39.3733 10.332C39.3733 10.4822 39.3242 10.6036 39.226 10.696C39.1278 10.7884 38.9949 10.8347 38.8273 10.8347ZM42.7636 11.6667C43.7747 11.6667 44.2803 12.2358 44.2803 13.374V15.6273C44.2803 15.7602 44.2398 15.8642 44.1589 15.9393C44.0838 16.0087 43.9769 16.0433 43.8383 16.0433C43.7054 16.0433 43.5985 16.0058 43.5176 15.9307C43.4425 15.8556 43.4049 15.7544 43.4049 15.6273V13.4173C43.4049 13.0591 43.3327 12.7962 43.1883 12.6287C43.0496 12.4611 42.8301 12.3773 42.5296 12.3773C42.1772 12.3773 41.894 12.4871 41.6803 12.7067C41.4665 12.9262 41.3596 13.2209 41.3596 13.5907V15.6273C41.3596 15.7544 41.3192 15.8556 41.2383 15.9307C41.1632 16.0058 41.0592 16.0433 40.9263 16.0433C40.7934 16.0433 40.6865 16.0058 40.6056 15.9307C40.5247 15.8556 40.4843 15.7544 40.4843 15.6273V12.1C40.4843 11.9787 40.5247 11.8804 40.6056 11.8053C40.6923 11.7244 40.7992 11.684 40.9263 11.684C41.0534 11.684 41.1545 11.7216 41.2296 11.7967C41.3047 11.8718 41.3423 11.97 41.3423 12.0913V12.4467C41.4809 12.1924 41.6745 11.9989 41.9229 11.866C42.1714 11.7331 42.4516 11.6667 42.7636 11.6667ZM48.7884 14.934C48.8693 14.934 48.9358 14.9658 48.9878 15.0293C49.0398 15.0929 49.0658 15.1738 49.0658 15.272C49.0658 15.4396 48.9618 15.5811 48.7538 15.6967C48.5515 15.8122 48.3291 15.9018 48.0864 15.9653C47.8495 16.0289 47.6213 16.0607 47.4018 16.0607C46.7315 16.0607 46.2029 15.8671 45.8158 15.48C45.4286 15.0871 45.2351 14.5527 45.2351 13.8767C45.2351 13.4433 45.3189 13.0591 45.4864 12.724C45.6598 12.3889 45.8995 12.1289 46.2058 11.944C46.5178 11.7591 46.8702 11.6667 47.2631 11.6667C47.8293 11.6667 48.2771 11.8487 48.6064 12.2127C48.9358 12.5767 49.1004 13.0678 49.1004 13.686C49.1004 13.9171 48.9964 14.0327 48.7884 14.0327H46.1104C46.1682 14.9282 46.5986 15.376 47.4018 15.376C47.6155 15.376 47.8004 15.3471 47.9564 15.2893C48.1124 15.2316 48.2771 15.1564 48.4504 15.064C48.4678 15.0524 48.514 15.0293 48.5891 14.9947C48.67 14.9542 48.7364 14.934 48.7884 14.934ZM47.2804 12.308C46.9453 12.308 46.6766 12.4149 46.4744 12.6287C46.2722 12.8424 46.1509 13.1429 46.1104 13.53H48.3464C48.3291 13.1371 48.228 12.8367 48.0431 12.6287C47.864 12.4149 47.6098 12.308 47.2804 12.308Z" fill="#2F1E6F"/>
<rect x="12" y="9" width="8" height="8" rx="4" fill="#03CBC9"/>
</g>
<defs>
<filter id="filter0_d" x="-20.1724" y="-20.1724" width="102.345" height="66.3448" filterUnits="userSpaceOnUse" color-interpolation-filters="sRGB">
<feFlood flood-opacity="0" result="BackgroundImageFix"/>
<feColorMatrix in="SourceAlpha" type="matrix" values="0 0 0 0 0 0 0 0 0 0 0 0 0 0 0 0 0 0 127 0" result="hardAlpha"/>
<feOffset/>
<feGaussianBlur stdDeviation="10.0862"/>
<feColorMatrix type="matrix" values="0 0 0 0 0.6875 0 0 0 0 0.6875 0 0 0 0 0.6875 0 0 0 0.25 0"/>
<feBlend mode="normal" in2="BackgroundImageFix" result="effect1_dropShadow"/>
<feBlend mode="normal" in="SourceGraphic" in2="effect1_dropShadow" result="shape"/>
</filter>
<clipPath id="clip0">
<rect width="62" height="26" fill="white"/>
</clipPath>
</defs>
</svg>
