<svg width="28" height="28" viewBox="0 0 28 28" fill="none" xmlns="http://www.w3.org/2000/svg">
<path d="M27.0652 0.580627H19.9485V6.9312C19.9485 7.48076 19.3915 7.8599 18.8784 7.65466L14.1494 5.75557L9.42035 7.65466C8.90738 7.86006 8.35023 7.48061 8.35023 6.9312V0.580627H1.23358C1.01893 0.580627 0.844299 0.755256 0.844299 0.969905V26.8015C0.844299 27.0161 1.01893 27.1908 1.23358 27.1908H27.0652C27.2798 27.1908 27.4544 27.0161 27.4544 26.8015V0.969905C27.4544 0.755256 27.2798 0.580627 27.0652 0.580627V0.580627ZM9.2083 21.8926H4.53282C4.10248 21.8926 3.75322 21.5439 3.75322 21.1131C3.75322 20.6827 4.10248 20.3335 4.53282 20.3335H9.2083C9.63864 20.3335 9.9879 20.6827 9.9879 21.1131C9.9879 21.5439 9.63864 21.8926 9.2083 21.8926ZM11.493 17.2369H4.53282C4.10248 17.2369 3.75322 16.8877 3.75322 16.4573C3.75322 16.0265 4.10248 15.6777 4.53282 15.6777H11.493C11.9234 15.6777 12.2726 16.0265 12.2726 16.4573C12.2726 16.8877 11.9234 17.2369 11.493 17.2369Z" fill="#03CBC9"/>
</svg>
