<svg width="28" height="28" viewBox="0 0 28 28" fill="none" xmlns="http://www.w3.org/2000/svg">
<path d="M27.0652 0.580566H19.9485V6.93114C19.9485 7.4807 19.3915 7.85984 18.8784 7.6546L14.1494 5.75551L9.42035 7.6546C8.90738 7.86 8.35023 7.48054 8.35023 6.93114V0.580566H1.23358C1.01893 0.580566 0.844299 0.755195 0.844299 0.969844V26.8014C0.844299 27.0161 1.01893 27.1907 1.23358 27.1907H27.0652C27.2798 27.1907 27.4544 27.0161 27.4544 26.8014V0.969844C27.4544 0.755195 27.2798 0.580566 27.0652 0.580566V0.580566ZM9.2083 21.8926H4.53282C4.10248 21.8926 3.75322 21.5438 3.75322 21.113C3.75322 20.6827 4.10248 20.3334 4.53282 20.3334H9.2083C9.63864 20.3334 9.9879 20.6827 9.9879 21.113C9.9879 21.5438 9.63864 21.8926 9.2083 21.8926ZM11.493 17.2369H4.53282C4.10248 17.2369 3.75322 16.8876 3.75322 16.4573C3.75322 16.0264 4.10248 15.6777 4.53282 15.6777H11.493C11.9234 15.6777 12.2726 16.0264 12.2726 16.4573C12.2726 16.8876 11.9234 17.2369 11.493 17.2369Z" fill="#03CBC9"/>
</svg>
