<svg width="28" height="28" viewBox="0 0 28 28" fill="none" xmlns="http://www.w3.org/2000/svg">
<path d="M25.5763 0.580627C24.6121 0.580627 3.56317 0.580627 2.60427 0.580627C1.60119 0.580627 0.785217 1.3966 0.785217 2.39968V25.3717C0.785217 26.3748 1.60119 27.1908 2.60427 27.1908H25.5763C26.5794 27.1908 27.3954 26.3748 27.3954 25.3717V2.39968C27.3954 1.3966 26.5794 0.580627 25.5763 0.580627ZM10.4059 2.13982H17.7746V6.54764L14.3808 5.18491C14.1948 5.11007 13.9858 5.11007 13.7998 5.18491L10.4059 6.54764V2.13982ZM25.8362 25.3717C25.8362 25.5152 25.7197 25.6316 25.5763 25.6316H2.60427C2.46082 25.6316 2.34441 25.5152 2.34441 25.3717V2.39968C2.34441 2.25623 2.46082 2.13982 2.60427 2.13982H8.84674V7.70092C8.84674 8.25027 9.40264 8.6303 9.91686 8.42438L14.0903 6.74877L18.2637 8.42438C18.7788 8.6304 19.3338 8.24939 19.3338 7.70092V2.13982H25.5763C25.7197 2.13982 25.8362 2.25623 25.8362 2.39968V25.3717Z" fill="black"/>
<path d="M11.7279 15.3929H5.53832C5.10778 15.3929 4.75873 15.742 4.75873 16.1725C4.75873 16.6031 5.10778 16.9521 5.53832 16.9521H11.7279C12.1584 16.9521 12.5075 16.6031 12.5075 16.1725C12.5075 15.742 12.1584 15.3929 11.7279 15.3929Z" fill="black"/>
<path d="M9.69615 19.5334H5.53832C5.10778 19.5334 4.75873 19.8825 4.75873 20.313C4.75873 20.7436 5.10778 21.0926 5.53832 21.0926H9.69615C10.1267 21.0926 10.4757 20.7436 10.4757 20.313C10.4757 19.8825 10.1267 19.5334 9.69615 19.5334Z" fill="black"/>
</svg>
