<svg width="72" height="92" viewBox="0 0 72 92" fill="none" xmlns="http://www.w3.org/2000/svg">
<g clip-path="url(#clip0)">
<path d="M17.3577 49.4751H13.9248V54.5521H17.3577C18.7359 54.5521 19.8262 53.3485 19.8262 52.0837C19.8237 50.6583 18.7359 49.4751 17.3577 49.4751Z" fill="#D082FF"/>
<path d="M31.173 49.5771H27.7607V58.7113H31.173C36.7247 58.7113 36.969 49.5771 31.173 49.5771Z" fill="#D082FF"/>
<path d="M59.1429 38.25H2.57143C1.15714 38.25 0 39.3975 0 40.8V66.3C0 67.7025 1.15714 68.85 2.57143 68.85H59.1429C60.5597 68.85 61.7143 67.7025 61.7143 66.3V40.8C61.7143 39.3975 60.5597 38.25 59.1429 38.25ZM17.3571 57.1021H13.9243V59.7949C13.9243 60.6925 13.3483 61.2 12.6077 61.2C11.9289 61.2 11.2114 60.6925 11.2114 59.7924V48.3149C11.2114 47.6417 11.7463 46.9047 12.6077 46.9047H17.3571C20.0314 46.9047 22.4383 48.6795 22.4383 52.0837C22.4357 55.3069 20.0314 57.1021 17.3571 57.1021ZM31.3586 61.2H26.4651C25.7863 61.2 25.0457 60.8302 25.0457 59.9352V48.3556C25.0457 47.6212 25.7863 47.0908 26.4651 47.0908H31.1734C40.5694 47.0908 40.3637 61.2 31.3586 61.2ZM49.68 49.7403H43.6937V52.9814H48.9369C49.68 52.9814 50.418 53.7157 50.418 54.4297C50.418 55.1029 49.68 55.6512 48.9369 55.6512H43.6937V59.9326C43.6937 60.6467 43.182 61.1975 42.462 61.1975C41.5569 61.1975 41.0014 60.6467 41.0014 59.9326V48.3531C41.0014 47.6187 41.5594 47.0883 42.462 47.0883H49.68C50.5851 47.0883 51.1174 47.6187 51.1174 48.3531C51.1174 49.0084 50.5851 49.7403 49.68 49.7403Z" fill="#D082FF"/>
<path d="M69.429 19.3443L52.4936 2.55C51.0073 1.071 48.3947 0 46.2861 0H18.0004C13.7473 0 10.2861 3.4323 10.2861 7.65V33.15C10.2861 34.5602 11.4356 35.7 12.8576 35.7C14.2796 35.7 15.429 34.5602 15.429 33.15V7.65C15.429 6.24495 16.581 5.1 18.0004 5.1H41.1433C43.9847 5.1 46.2861 7.3848 46.2861 10.2V19.7625C46.2861 22.9194 48.8936 25.5 52.0718 25.5H61.7147C64.5561 25.5 66.8576 27.7848 66.8576 30.6V73.95C66.8576 75.355 65.7081 76.5 64.2861 76.5H18.0004C16.581 76.5 15.429 75.355 15.429 73.95C15.429 72.5398 14.2796 71.4 12.8576 71.4C11.4356 71.4 10.2861 72.5398 10.2861 73.95C10.2861 78.1677 13.7473 81.6 18.0004 81.6H64.2861C68.5393 81.6 72.0004 78.1677 72.0004 73.95V25.5C72.0004 23.4115 70.9204 20.8207 69.429 19.3443Z" fill="#D082FF"/>
</g>
<defs>
<clipPath id="clip0">
<rect width="72" height="92" fill="white"/>
</clipPath>
</defs>
</svg>
