<svg width="30" height="30" viewBox="0 0 30 30" fill="none" xmlns="http://www.w3.org/2000/svg">
<path d="M7.17457 25.435C7.17457 25.485 7.18957 25.53 7.20457 25.575C7.20957 25.585 7.21457 25.595 7.21957 25.605C7.23957 25.65 7.26457 25.69 7.29957 25.725C7.30457 25.73 7.30957 25.73 7.30957 25.735C7.33457 25.755 7.35457 25.78 7.38457 25.795C7.39457 25.8 7.40957 25.805 7.41957 25.81C7.43457 25.815 7.44457 25.82 7.45957 25.825C7.50957 25.845 7.55957 25.855 7.60457 25.855H22.4996C22.7396 25.855 22.9346 25.66 22.9346 25.42C22.9346 25.18 22.7396 24.985 22.4996 24.985H9.42457L11.5996 23.885L7.05957 21.175L7.17457 25.435Z" fill="white"/>
<path d="M7.33984 20.335L12.2098 23.245L18.8648 12.105L13.9898 9.19501L7.33984 20.335Z" fill="white"/>
<path d="M21.4047 7.84496C21.6247 7.46996 21.6897 7.03496 21.5847 6.60996C21.4797 6.18496 21.2147 5.82996 20.8397 5.60496L18.7647 4.36996C18.3897 4.14996 17.9547 4.08496 17.5297 4.18996C17.1047 4.29496 16.7547 4.55996 16.5247 4.93496L14.4297 8.44496L19.3047 11.355L21.4047 7.84496Z" fill="white"/>
</svg>
