<svg width="31" height="30" viewBox="0 0 31 30" fill="none" xmlns="http://www.w3.org/2000/svg">
<path d="M30.0373 29.2726C30.0373 29.6363 29.7645 30 29.3099 30H0.757752C0.272791 30 0.0303101 29.606 0.0303101 29.2726C0.0303101 28.9088 0.303101 28.5451 0.757752 28.5451H29.3099C29.7948 28.5451 30.0373 28.9088 30.0373 29.2726ZM29.3099 23.9683H0.757752C0.272791 23.9683 0.0303101 24.3623 0.0303101 24.6957C0.0303101 25.0595 0.303101 25.4232 0.757752 25.4232H29.3099C29.7948 25.4232 30.0373 25.0291 30.0373 24.6957C30.0373 24.332 29.7948 23.9683 29.3099 23.9683ZM0.757752 20.8767H5.91047C6.39543 20.8767 6.63791 20.4826 6.63791 20.1492C6.63791 19.8158 6.36512 19.4218 5.91047 19.4218H0.757752C0.272791 19.4218 0.0303101 19.8158 0.0303101 20.1492C0.0303101 20.4826 0.272791 20.8767 0.757752 20.8767ZM0 15.5724C0 15.2087 0.272791 14.845 0.727442 14.845H17.8223L19.2166 11.7533H12.0331C11.5481 11.7533 11.3057 11.3593 11.3057 11.0259C11.3057 10.6622 11.5785 10.2984 12.0331 10.2984H19.8834L23.9147 1.32666C24.4299 0.174872 25.7636 -0.31009 26.9154 0.205182L28.734 1.02355C29.8857 1.53883 30.3707 2.87247 29.8857 4.02425L22.4901 20.3917C22.4901 20.422 22.4598 20.4523 22.4295 20.4523C22.3992 20.4826 22.3992 20.5129 22.3688 20.5433C22.3385 20.5736 22.3082 20.6039 22.2779 20.6342C22.2476 20.6342 22.2476 20.6645 22.2173 20.6645L22.187 20.6948L18.2164 23.4833C18.0951 23.5743 17.9436 23.6046 17.792 23.6046C17.4283 23.6046 17.0949 23.3318 17.0646 22.9377L16.8221 20.8464H8.4262C7.94124 20.8464 7.69876 20.4523 7.69876 20.1189C7.69876 19.7855 7.97155 19.3915 8.4262 19.3915H16.6402L16.4887 18.2094C16.4887 18.1791 16.4887 18.1791 16.4584 18.1488C16.4281 17.9669 16.4584 17.7547 16.5493 17.6032L17.1252 16.2998H0.757752C0.272791 16.2998 0 15.9361 0 15.5724ZM27.1578 6.35813L26.2182 5.93379L20.7624 18.1184C21.0352 18.3003 21.3383 18.5125 21.6111 18.755L27.1578 6.35813ZM18.3982 21.5435L20.7018 19.937C19.7319 18.9974 18.7013 18.755 18.0648 18.7246L18.3982 21.5435ZM28.0975 2.3572L26.2788 1.53883C26.097 1.4479 25.8848 1.4479 25.6726 1.50852C25.4908 1.56914 25.3089 1.72069 25.2483 1.93286L24.5209 3.5696L26.0364 4.26673C26.0667 4.26673 26.097 4.29704 26.1273 4.29704C26.1576 4.29704 26.1879 4.32735 26.2182 4.35766L27.7337 5.0548L28.4612 3.41805C28.6733 2.99371 28.4915 2.50875 28.0975 2.3572ZM18.3679 17.2698C18.671 17.3001 19.0347 17.3607 19.3985 17.4819L24.8543 5.32759L23.9147 4.90325L21.0655 11.2684C21.0655 11.2987 21.0352 11.329 21.0352 11.3593L18.3679 17.2698ZM0.757752 11.723H9.36582C9.85078 11.723 10.0933 11.329 10.0933 10.9956C10.0933 10.6319 9.82047 10.2681 9.36582 10.2681H0.757752C0.272791 10.2681 0.0303101 10.6622 0.0303101 10.9956C-1.86265e-09 11.3593 0.272791 11.723 0.757752 11.723Z" fill="#03CBC9"/>
<path d="M18.3679 17.2698C18.671 17.3001 19.0347 17.3607 19.3985 17.4819L24.8543 5.32759L23.9147 4.90325L21.0655 11.2684C21.0655 11.2987 21.0352 11.329 21.0352 11.3593L18.3679 17.2698Z" fill="#03CBC9"/>
<path d="M27.1578 6.35813L26.2182 5.93379L20.7624 18.1184C21.0352 18.3003 21.3383 18.5125 21.6111 18.755L27.1578 6.35813Z" fill="#03CBC9"/>
</svg>
