<svg width="13" height="7" viewBox="0 0 13 7" fill="none" xmlns="http://www.w3.org/2000/svg">
<path d="M10.9 4.09665C10.6067 4.61999 10.3501 5.17332 10.1167 5.77333C9.91327 6.2906 9.34999 6.54346 8.82002 6.34666C8.30676 6.14667 8.05333 5.56667 8.25003 5.05332C8.54341 4.29333 8.87341 3.60332 9.25004 2.94664C9.25004 2.19998 9.36674 1.52997 9.57002 0.933309C9.48335 0.929972 9.39668 0.926636 9.31001 0.926636C9.28674 0.926636 9.26338 0.926636 9.24003 0.933309C7.29666 1.35331 5.36672 1.35331 3.48333 0.933309C3.46006 0.926636 3.4367 0.926636 3.41334 0.926636C1.53004 0.926636 0 2.39331 0 4.19331V6.08667C-3.33333e-06 6.58999 0.420002 7 0.940023 7H11.7834C12.3001 7 12.7234 6.58999 12.7234 6.08667V3.61665C12.7234 3.50664 12.7168 3.39666 12.7068 3.29332C11.9867 3.70332 11.3068 3.95999 10.9 4.09665Z" fill="#98989C"/>
</svg>
