<svg width="30" height="30" viewBox="0 0 30 30" fill="none" xmlns="http://www.w3.org/2000/svg">
<g clip-path="url(#clip0)">
<path d="M29.7153 16.2002C30.0949 15.4484 30.0949 14.5508 29.7153 13.7991L29.3223 13.0206C29.2366 12.8509 29.2067 12.6619 29.2357 12.474L29.3689 11.6122C29.4976 10.78 29.2202 9.92631 28.6269 9.32866L28.0126 8.70974C27.8787 8.57479 27.7918 8.40427 27.7614 8.21658L27.6218 7.35577C27.4884 6.53375 26.971 5.81451 26.2353 5.42629L25.4795 4.98053C25.4649 4.97192 25.4501 4.96372 25.4349 4.95598C25.2659 4.86908 25.1306 4.73377 25.0437 4.56466L24.6449 3.78917C24.2688 3.05786 23.5021 2.51705 22.6438 2.37782L21.783 2.23824C21.5953 2.20777 21.4248 2.12092 21.2899 1.98703L20.6709 1.37262C20.0733 0.779368 19.2198 0.502197 18.3875 0.630645L17.5257 0.763839C17.3376 0.792904 17.1487 0.76296 16.979 0.677289L16.2005 0.284269C15.4488 -0.0952153 14.5513 -0.0952739 13.7996 0.284269L13.021 0.677289C12.8514 0.762902 12.6624 0.792787 12.4744 0.763898L11.6126 0.630704C10.7802 0.501963 9.92671 0.779427 9.32907 1.37268L8.71009 1.98697C8.5752 2.12092 8.40467 2.20777 8.21698 2.23824L7.35611 2.37782C6.49788 2.51705 5.73111 3.0578 5.35509 3.78917L4.95633 4.56466C4.86936 4.73372 4.73406 4.86908 4.56495 4.95598L3.78939 5.3548C3.05808 5.73083 2.51728 6.49759 2.37811 7.35582L2.23847 8.2167C2.20805 8.40439 2.12115 8.57485 1.98719 8.7098L1.37296 9.32872C0.779712 9.92637 0.502365 10.78 0.630989 11.6122L0.764242 12.4741C0.793307 12.6619 0.763363 12.8509 0.677634 13.0206L0.284613 13.7991C-0.0948711 14.5508 -0.0948711 15.4483 0.284613 16.2001L0.677634 16.9786C0.763305 17.1483 0.793249 17.3373 0.764242 17.5252L0.630989 18.3871C0.502365 19.2193 0.779771 20.0729 1.37296 20.6705L1.98731 21.2895C2.12127 21.4245 2.20817 21.5949 2.23858 21.7827L2.37822 22.6434C2.51739 23.5017 3.0582 24.2685 3.78951 24.6445L4.565 25.0433C4.73412 25.1302 4.86942 25.2655 4.95638 25.4346L5.35515 26.2102C5.73123 26.9415 6.49799 27.4823 7.35623 27.6215L8.21704 27.7611C8.40473 27.7916 8.57526 27.8784 8.71015 28.0123L9.32912 28.6267C9.92689 29.22 10.7804 29.4972 11.6126 29.3687L12.4745 29.2354C12.6623 29.2063 12.8514 29.2363 13.021 29.322L13.7996 29.715C14.1754 29.9048 14.5877 29.9997 15 29.9997C15.4124 29.9997 15.8247 29.9048 16.2005 29.715L16.979 29.322C17.1487 29.2363 17.3378 29.2065 17.5256 29.2354L18.3874 29.3686C19.2196 29.4972 20.0732 29.2199 20.6709 28.6266L21.2899 28.0123C21.4247 27.8783 21.5953 27.7915 21.783 27.761L22.6438 27.6214C23.4658 27.4881 24.1851 26.9707 24.5733 26.2349L25.0191 25.4791C25.0277 25.4645 25.0359 25.4497 25.0436 25.4345C25.1305 25.2655 25.2659 25.1302 25.4349 25.0432L26.2104 24.6444C26.9593 24.2594 27.4869 23.5332 27.6218 22.702L27.7614 21.8412C27.7918 21.6535 27.8787 21.483 28.0126 21.348C28.0219 21.3387 28.6423 20.6549 28.6423 20.6549C29.225 20.0581 29.4965 19.212 29.3689 18.3871L29.2357 17.5253C29.2066 17.3373 29.2366 17.1483 29.3223 16.9786L29.7153 16.2002Z" fill="url(#paint0_linear)"/>
<path d="M14.9999 4.39368C9.1769 4.39368 4.39355 9.17831 4.39355 15C4.39355 20.823 9.17819 25.6064 14.9999 25.6064C20.8229 25.6064 25.6062 20.8217 25.6062 15C25.6062 9.17702 20.8215 4.39368 14.9999 4.39368ZM21.1265 12.5763L19.3685 19.6081C19.2707 19.9994 18.9191 20.2739 18.5158 20.2739H11.484C11.0806 20.2739 10.7291 19.9994 10.6313 19.6081L8.8733 12.5763C8.76975 12.162 8.97889 11.7333 9.3691 11.5598C9.75925 11.3864 10.2177 11.5186 10.4558 11.873C10.6963 12.2266 11.5664 13.2421 12.363 13.2421C12.5085 13.2421 12.9595 12.9032 13.4241 11.8559C13.8409 10.9162 14.1209 9.70716 14.1209 8.84717C14.1209 8.36174 14.5145 7.96819 14.9999 7.96819C15.4853 7.96819 15.8789 8.36174 15.8789 8.84717C15.8789 9.70716 16.1589 10.9162 16.5757 11.8559C17.0404 12.9032 17.4913 13.2421 17.6368 13.2421C18.457 13.2421 19.3498 12.1622 19.544 11.873C19.7821 11.5186 20.2406 11.3865 20.6307 11.5598C21.0209 11.7333 21.23 12.162 21.1265 12.5763Z" fill="url(#paint1_linear)"/>
</g>
<defs>
<linearGradient id="paint0_linear" x1="15" y1="29.9997" x2="15" y2="-0.000344753" gradientUnits="userSpaceOnUse">
<stop stop-color="#FD5900"/>
<stop offset="1" stop-color="#FFDE00"/>
</linearGradient>
<linearGradient id="paint1_linear" x1="14.9999" y1="25.6064" x2="14.9999" y2="4.39368" gradientUnits="userSpaceOnUse">
<stop stop-color="#FFE59A"/>
<stop offset="1" stop-color="#FFFFD5"/>
</linearGradient>
<clipPath id="clip0">
<rect width="30" height="30" fill="white"/>
</clipPath>
</defs>
</svg>
