<svg width="30" height="30" viewBox="0 0 30 30" fill="none" xmlns="http://www.w3.org/2000/svg">
<path d="M15 30C23.2843 30 30 23.2843 30 15C30 6.71573 23.2843 0 15 0C6.71573 0 0 6.71573 0 15C0 23.2843 6.71573 30 15 30Z" fill="url(#paint0_linear)"/>
<path d="M24.1943 12.0124C24.0909 11.6943 23.8159 11.4623 23.4849 11.4142L18.1663 10.6414L15.7877 5.82193C15.6396 5.52193 15.3341 5.33203 14.9996 5.33203C14.6651 5.33203 14.3595 5.52193 14.2114 5.82199L11.8329 10.6414L6.51425 11.4143C6.1832 11.4624 5.9081 11.6943 5.80474 12.0125C5.70138 12.3306 5.78763 12.6799 6.02716 12.9134L9.87578 16.6648L8.96722 21.9619C8.91068 22.2916 9.04621 22.6249 9.31685 22.8216C9.58755 23.0182 9.94632 23.0442 10.2425 22.8885L14.9996 20.3875L19.7567 22.8885C20.055 23.0453 20.4136 23.0167 20.6823 22.8216C20.9529 22.6249 21.0885 22.2917 21.032 21.9619L20.1234 16.6648L23.972 12.9134C24.2115 12.6799 24.2977 12.3306 24.1943 12.0124Z" fill="url(#paint1_linear)"/>
<defs>
<linearGradient id="paint0_linear" x1="15" y1="30" x2="15" y2="0" gradientUnits="userSpaceOnUse">
<stop stop-color="#FD5900"/>
<stop offset="1" stop-color="#FFDE00"/>
</linearGradient>
<linearGradient id="paint1_linear" x1="14.9996" y1="22.9894" x2="14.9996" y2="5.33203" gradientUnits="userSpaceOnUse">
<stop stop-color="#FFE59A"/>
<stop offset="1" stop-color="#FFFFD5"/>
</linearGradient>
</defs>
</svg>
