<svg width="51" height="51" viewBox="0 0 51 51" fill="none" xmlns="http://www.w3.org/2000/svg">
<g clip-path="url(#clip0)">
<path d="M27.5074 5.36904L30.1603 3.09426C30.8686 2.45577 30.939 1.36902 30.319 0.644478C29.6989 -0.0800687 28.6143 -0.178356 27.8741 0.422915L21.7189 5.69878C21.3288 6.03289 21.1043 6.52083 21.1043 7.03445C21.1043 7.54806 21.3288 8.03601 21.7189 8.37012L27.8741 13.646C28.3488 14.0738 29.0182 14.2105 29.6226 14.003C30.227 13.7954 30.6713 13.2763 30.783 12.6471C30.8947 12.0179 30.6563 11.3776 30.1603 10.9746L27.7764 8.932C38.0929 10.1545 45.6017 19.3071 44.7848 29.6636C43.968 40.02 35.117 47.8821 24.7365 47.4722C14.356 47.0622 6.15267 38.5265 6.15509 28.1379C6.13882 23.7856 7.60613 19.5577 10.3151 16.1511C10.7142 15.6591 10.8178 14.9903 10.5862 14.4006C10.3546 13.8108 9.82369 13.3912 9.19638 13.3022C8.56908 13.2131 7.94237 13.4684 7.55583 13.9704C4.3537 17.9966 2.61904 22.9937 2.63785 28.1379C2.6352 40.504 12.466 50.6308 24.8267 50.995C37.1875 51.3591 47.5973 41.8285 48.3226 29.4837C49.0479 17.1389 39.8257 6.45488 27.5074 5.36904Z" fill="#F2F1F7"/>
<path d="M16.4431 13.646C16.9178 14.0739 17.5873 14.2105 18.1917 14.003C18.7961 13.7954 19.2404 13.2763 19.3521 12.6471C19.4638 12.0179 19.2254 11.3776 18.7293 10.9746L14.1332 7.03445L18.7293 3.09426C19.4377 2.45577 19.5081 1.36902 18.888 0.644478C18.2679 -0.0800688 17.1834 -0.178356 16.4431 0.422915L10.288 5.69878C9.89787 6.03289 9.67334 6.52084 9.67334 7.03445C9.67334 7.54807 9.89787 8.03601 10.288 8.37012L16.4431 13.646Z" fill="#F2F1F7"/>
<path d="M20.1502 33.921C20.7214 33.921 21.2531 33.8531 21.7451 33.7174C22.2428 33.5817 22.6868 33.3781 23.0771 33.1066C23.473 32.8351 23.7841 32.4759 24.0103 32.0291C24.2365 31.5767 24.3497 31.062 24.3497 30.4851C24.3497 29.6819 24.1545 29.0061 23.7643 28.4574C23.374 27.9088 22.8169 27.5384 22.093 27.3461C23.4164 26.8314 24.0782 25.9264 24.0782 24.6312C24.0782 23.9243 23.8944 23.3191 23.5267 22.8157C23.1591 22.3067 22.6755 21.9334 22.076 21.6958C21.4821 21.4526 20.8119 21.331 20.0653 21.331C19.4658 21.331 18.8663 21.4102 18.2668 21.5686C17.6672 21.7269 17.2176 21.8994 16.9178 22.0861C16.7312 22.2049 16.6379 22.3774 16.6379 22.6036C16.6379 22.8185 16.7086 23.0165 16.85 23.1975C16.997 23.3785 17.1639 23.469 17.3505 23.469C17.424 23.469 17.4976 23.452 17.5711 23.4181C17.8765 23.2597 18.2441 23.1296 18.674 23.0278C19.1095 22.9203 19.5478 22.8666 19.989 22.8666C20.5885 22.8666 21.1004 23.025 21.5245 23.3417C21.9487 23.6584 22.1608 24.1194 22.1608 24.7246C22.1608 25.375 21.9261 25.8727 21.4567 26.2177C20.9872 26.5571 20.3707 26.7267 19.6072 26.7267H19.0049C18.8012 26.7267 18.6457 26.7974 18.5382 26.9388C18.4308 27.0746 18.3771 27.2358 18.3771 27.4224C18.3771 27.6091 18.4308 27.7702 18.5382 27.906C18.6457 28.0417 18.8012 28.1096 19.0049 28.1096H19.6751C20.4669 28.1096 21.1258 28.3245 21.6518 28.7544C22.1778 29.1842 22.4408 29.7526 22.4408 30.4596C22.4408 31.0874 22.2202 31.5653 21.7791 31.8934C21.3379 32.2214 20.7525 32.3854 20.0229 32.3854C19.2933 32.3854 18.5241 32.196 17.7153 31.817C17.6474 31.7888 17.5767 31.7746 17.5032 31.7746C17.3788 31.7746 17.2572 31.8142 17.1384 31.8934C17.0253 31.9726 16.9348 32.0772 16.8669 32.2073C16.7991 32.3317 16.7651 32.4618 16.7651 32.5975C16.7651 32.886 16.9122 33.1037 17.2063 33.2508C18.0377 33.6976 19.019 33.921 20.1502 33.921ZM30.5344 32.3854C30.2403 32.3854 29.9716 32.3345 29.7284 32.2327C29.4909 32.1253 29.2901 31.9867 29.1261 31.817C28.962 31.6474 28.8178 31.4324 28.6934 31.1723C28.5689 30.9121 28.4728 30.6491 28.4049 30.3833C28.3371 30.1174 28.2805 29.8177 28.2352 29.484C28.1957 29.1446 28.1674 28.8336 28.1504 28.5508C28.1391 28.2623 28.1334 27.9484 28.1334 27.6091C28.1334 27.264 28.1391 26.9445 28.1504 26.6504C28.1674 26.3563 28.1957 26.0424 28.2352 25.7087C28.2805 25.375 28.3371 25.0781 28.4049 24.8179C28.4785 24.5521 28.5746 24.2947 28.6934 24.0459C28.8178 23.7913 28.962 23.5821 29.1261 23.4181C29.2957 23.254 29.4993 23.1211 29.7369 23.0193C29.9744 22.9175 30.2403 22.8666 30.5344 22.8666C30.8341 22.8666 31.1028 22.9175 31.3403 23.0193C31.5835 23.1211 31.7871 23.2569 31.9512 23.4265C32.1152 23.5906 32.2594 23.7998 32.3838 24.0543C32.5083 24.3032 32.6044 24.5605 32.6723 24.8264C32.7458 25.0865 32.8024 25.3835 32.842 25.7172C32.8872 26.0509 32.9155 26.3648 32.9268 26.6589C32.9438 26.9473 32.9523 27.264 32.9523 27.6091C32.9523 28.0106 32.9409 28.3783 32.9183 28.712C32.8957 29.04 32.8561 29.3963 32.7995 29.7809C32.7486 30.1655 32.6638 30.5049 32.545 30.799C32.4319 31.0931 32.2877 31.3646 32.1124 31.6134C31.9427 31.8623 31.7221 32.0546 31.4506 32.1903C31.1848 32.3204 30.8794 32.3854 30.5344 32.3854ZM30.5344 33.921C31.1961 33.921 31.7815 33.8051 32.2905 33.5732C32.8052 33.3356 33.2237 33.0217 33.5461 32.6315C33.8685 32.2412 34.1315 31.7718 34.3351 31.2232C34.5444 30.6689 34.6886 30.0976 34.7678 29.5094C34.8526 28.9212 34.895 28.2878 34.895 27.6091C34.895 26.9134 34.8526 26.2714 34.7678 25.6832C34.683 25.095 34.5359 24.5266 34.3266 23.978C34.123 23.4294 33.8572 22.9656 33.5292 22.5866C33.2068 22.202 32.7911 21.8966 32.282 21.6704C31.773 21.4441 31.1904 21.331 30.5344 21.331C29.8783 21.331 29.2957 21.4441 28.7867 21.6704C28.2777 21.8966 27.8591 22.202 27.5311 22.5866C27.2087 22.9656 26.9429 23.4294 26.7336 23.978C26.53 24.5209 26.3858 25.0894 26.3009 25.6832C26.2161 26.2714 26.1737 26.9134 26.1737 27.6091C26.1737 28.1746 26.202 28.7063 26.2585 29.204C26.3207 29.7017 26.4169 30.1938 26.547 30.6802C26.6771 31.1609 26.8552 31.5936 27.0814 31.9782C27.3077 32.3628 27.5763 32.705 27.8874 33.0048C28.2041 33.2989 28.5859 33.5251 29.0327 33.6835C29.4795 33.8418 29.9801 33.921 30.5344 33.921Z" fill="#F2F1F7"/>
</g>
<defs>
<clipPath id="clip0">
<rect width="51" height="51" fill="white"/>
</clipPath>
</defs>
</svg>
