<svg width="12" height="12" viewBox="0 0 12 12" fill="none" xmlns="http://www.w3.org/2000/svg">
<path d="M6 0C2.68612 0 0 2.68612 0 6C0 9.31351 2.68612 12 6 12C9.31351 12 12 9.31351 12 6C12 2.68612 9.31351 0 6 0ZM6 11.25C3.105 11.25 0.750012 8.895 0.750012 6C0.750012 3.105 3.105 0.738385 6 0.738385C8.895 0.738385 11.25 3.105 11.25 6C11.25 8.895 8.895 11.25 6 11.25Z" fill="black"/>
<path d="M5.17798 3.10141C5.03135 2.95366 4.79399 2.95366 4.64773 3.10141C4.5011 3.24954 4.5011 3.48915 4.64773 3.63728L6.97086 5.99414L4.64736 8.351C4.50073 8.49875 4.50073 8.73874 4.64736 8.88686C4.79399 9.03462 5.03136 9.03462 5.17761 8.88686L7.76511 6.26224C7.90762 6.11786 7.90799 5.87073 7.76511 5.72638L5.17798 3.10141Z" fill="black"/>
</svg>
