<svg width="67" height="68" viewBox="0 0 67 68" fill="none" xmlns="http://www.w3.org/2000/svg">
<g filter="url(#filter0_d)">
<g clip-path="url(#clip0)">
<rect x="5.07495" y="1.53186" width="58.3071" height="58.3071" rx="29.1536" fill="white"/>
<path d="M43.0205 31.1302L29.9855 44.1648C29.7487 44.402 29.3299 44.402 29.0927 44.1648L28.0316 43.1051C27.7863 42.8589 27.7868 42.4576 28.0321 42.2113L39.2516 30.9932C39.3358 30.9081 39.3835 30.7923 39.3835 30.6703C39.3835 30.5503 39.3353 30.4336 39.2516 30.3489L28.0524 19.1501C27.9342 19.032 27.868 18.8732 27.868 18.7021C27.868 18.5343 27.9337 18.3745 28.0519 18.2573L29.1116 17.1967C29.2302 17.0786 29.3895 17.0129 29.5582 17.0129C29.7279 17.0119 29.8858 17.0786 30.0044 17.1967L43.0205 30.2124C43.141 30.3324 43.2063 30.4926 43.2039 30.6774C43.2063 30.8495 43.141 31.0102 43.0205 31.1302Z" fill="#252525"/>
</g>
</g>
<defs>
<filter id="filter0_d" x="0.910157" y="0.490662" width="66.6367" height="66.6367" filterUnits="userSpaceOnUse" color-interpolation-filters="sRGB">
<feFlood flood-opacity="0" result="BackgroundImageFix"/>
<feColorMatrix in="SourceAlpha" type="matrix" values="0 0 0 0 0 0 0 0 0 0 0 0 0 0 0 0 0 0 127 0" result="hardAlpha"/>
<feOffset dy="3.1236"/>
<feGaussianBlur stdDeviation="2.0824"/>
<feColorMatrix type="matrix" values="0 0 0 0 0.625 0 0 0 0 0.625 0 0 0 0 0.625 0 0 0 0.25 0"/>
<feBlend mode="normal" in2="BackgroundImageFix" result="effect1_dropShadow"/>
<feBlend mode="normal" in="SourceGraphic" in2="effect1_dropShadow" result="shape"/>
</filter>
<clipPath id="clip0">
<rect x="5.07495" y="1.53186" width="58.3071" height="58.3071" rx="29.1536" fill="white"/>
</clipPath>
</defs>
</svg>
