<svg width="32" height="32" viewBox="0 0 32 32" fill="none" xmlns="http://www.w3.org/2000/svg">
<path d="M16 0C7.16299 0 0 7.16299 0 16C0 24.836 7.16299 32 16 32C24.836 32 32 24.836 32 16C32 7.16299 24.836 0 16 0ZM16 30C8.28 30 2.00003 23.72 2.00003 16C2.00003 8.28 8.28 1.96903 16 1.96903C23.72 1.96903 30 8.28 30 16C30 23.72 23.72 30 16 30Z" fill="#03CBC9"/>
<path d="M13.808 8.2706C13.4169 7.8766 12.784 7.8766 12.3939 8.2706C12.0029 8.6656 12.0029 9.30457 12.3939 9.69958L18.589 15.9845L12.3929 22.2695C12.0019 22.6635 12.0019 23.3035 12.3929 23.6985C12.784 24.0925 13.4169 24.0925 13.807 23.6985L20.7069 16.6995C21.087 16.3144 21.088 15.6554 20.7069 15.2705L13.808 8.2706Z" fill="#03CBC9"/>
</svg>
