<svg width="34" height="32" viewBox="0 0 34 32" fill="none" xmlns="http://www.w3.org/2000/svg">
<path d="M27.6068 19.8065H6.53391C5.83597 19.8065 5.26953 19.2332 5.26953 18.5269C5.26953 17.8206 5.83597 17.2473 6.53391 17.2473H27.6068C28.3048 17.2473 28.8712 17.8206 28.8712 18.5269C28.8712 19.2332 28.3048 19.8065 27.6068 19.8065Z" fill="black"/>
<path d="M17.0699 8.71682C15.2104 8.71682 13.6982 7.18646 13.6982 5.30464C13.6982 3.42282 15.2104 1.89246 17.0699 1.89246C18.9294 1.89246 20.4416 3.42282 20.4416 5.30464C20.4416 7.18646 18.9294 8.71682 17.0699 8.71682ZM17.0699 4.45159C16.6063 4.45159 16.227 4.83376 16.227 5.30464C16.227 5.77552 16.6063 6.15769 17.0699 6.15769C17.5335 6.15769 17.9128 5.77552 17.9128 5.30464C17.9128 4.83376 17.5335 4.45159 17.0699 4.45159Z" fill="black"/>
<path d="M22.5494 15.5413C21.8515 15.5413 21.2851 14.968 21.2851 14.2617C21.2851 13.5554 20.7169 12.9821 20.0207 12.9821H14.1203C13.424 12.9821 12.8559 13.5554 12.8559 14.2617C12.8559 14.968 12.2895 15.5413 11.5915 15.5413C10.8936 15.5413 10.3271 14.968 10.3271 14.2617C10.3271 12.1444 12.0298 10.423 14.1203 10.423H20.0207C22.1111 10.423 23.8138 12.1444 23.8138 14.2617C23.8138 14.968 23.2474 15.5413 22.5494 15.5413Z" fill="black"/>
<path d="M23.3943 29.1899C23.337 29.1899 23.2796 29.1865 23.2206 29.178C22.5294 29.0825 22.0456 28.4376 22.1383 27.7363L23.4027 18.3528C23.4988 17.6516 24.1411 17.1535 24.8272 17.2575C25.5184 17.3531 26.0023 17.998 25.9095 18.6992L24.6452 28.0827C24.5575 28.7259 24.0164 29.1899 23.3943 29.1899Z" fill="black"/>
<path d="M10.7468 29.19C10.1247 29.19 9.58354 28.7259 9.49587 28.0844L8.2315 18.7009C8.13709 17.9997 8.62092 17.3548 9.31212 17.2593C9.99319 17.1569 10.6406 17.6517 10.7366 18.3546L12.001 27.7381C12.0954 28.4393 11.6116 29.0842 10.9187 29.1798C10.8614 29.1866 10.8041 29.19 10.7468 29.19Z" fill="black"/>
</svg>
