<svg width="20" height="24" viewBox="0 0 20 24" fill="none" xmlns="http://www.w3.org/2000/svg">
<path d="M14.4026 5.25567C14.4104 5.24723 14.4183 5.23884 14.4261 5.23045C14.9003 4.72027 14.5368 3.89062 13.8399 3.89062H6.16011C5.46326 3.89062 5.0997 4.72027 5.57389 5.23045C5.58167 5.2388 5.5895 5.24723 5.59737 5.25567C6.31043 6.018 8.99441 8.28281 9.02895 8.31244C9.5878 8.79173 10.4122 8.79173 10.971 8.31244C11.0056 8.28277 13.6895 6.018 14.4026 5.25567Z" fill="#03CBC9"/>
<path d="M13.6622 11.2923C13.8857 11.0979 14.1413 10.8831 14.4118 10.6556C16.4075 8.97806 19.1406 6.68058 19.1406 4.26562V2.8125C19.1406 1.26169 17.8789 0 16.3281 0H3.67188C2.12106 0 0.859375 1.26169 0.859375 2.8125V4.26562C0.859375 6.68058 3.59252 8.97806 5.58817 10.6556C5.85873 10.8831 6.1143 11.0979 6.33775 11.2923C6.55009 11.4771 6.67188 11.735 6.67188 12C6.67188 12.265 6.55009 12.523 6.3378 12.7077C6.11434 12.9021 5.85873 13.1169 5.58817 13.3444C3.59252 15.0219 0.859375 17.3194 0.859375 19.7344V21.1875C0.859375 22.7383 2.12106 24 3.67188 24H16.3281C17.8789 24 19.1406 22.7383 19.1406 21.1875C19.1406 20.6697 18.7209 20.25 18.2031 20.25C17.6853 20.25 17.2656 20.6697 17.2656 21.1875C17.2656 21.7044 16.8451 22.125 16.3281 22.125H3.67188C3.15494 22.125 2.73438 21.7044 2.73438 21.1875V19.7344C2.73438 18.1927 5.27608 16.0562 6.79469 14.7796C7.07148 14.5469 7.33305 14.3271 7.56845 14.1222C8.1903 13.5813 8.54688 12.8077 8.54688 12C8.54688 11.1923 8.1903 10.4188 7.56845 9.87774C7.333 9.67289 7.07148 9.45309 6.79469 9.22036C5.27608 7.94381 2.73438 5.80725 2.73438 4.26562V2.8125C2.73438 2.29556 3.15494 1.875 3.67188 1.875H16.3281C16.8451 1.875 17.2656 2.29556 17.2656 2.8125V4.26562C17.2656 5.80725 14.7239 7.94381 13.2053 9.22041C12.9285 9.45309 12.667 9.67294 12.4315 9.87783C11.8097 10.4188 11.4531 11.1923 11.4531 12C11.4531 12.8078 11.8097 13.5813 12.4315 14.1222C12.6769 14.3357 12.9504 14.5646 13.2399 14.8069C14.1519 15.5703 15.1856 16.4355 16.0015 17.3562C16.345 17.7436 16.9374 17.7793 17.325 17.436C17.7124 17.0925 17.7482 16.5 17.4047 16.1125C16.4962 15.0874 15.358 14.1347 14.4433 13.3691C14.1609 13.1327 13.8941 12.9094 13.6622 12.7077C13.4499 12.5229 13.3281 12.265 13.3281 12C13.3281 11.735 13.4499 11.477 13.6622 11.2923Z" fill="#03CBC9"/>
</svg>
