<svg width="17" height="17" viewBox="0 0 17 17" fill="none" xmlns="http://www.w3.org/2000/svg">
<path d="M10.4158 5.99194L10.5332 6.26462L10.8288 6.29203L16.0714 6.77826L12.1159 10.2531L11.8928 10.4491L11.9581 10.7387L13.1157 15.8749L8.58861 13.1868L8.33333 13.0352L8.07805 13.1868L3.55096 15.8749L4.70854 10.7387L4.77381 10.4491L4.55076 10.2531L0.59527 6.77826L5.83781 6.29207L6.13343 6.26465L6.25086 5.99197L8.33331 1.15626L10.4158 5.99194ZM3.41637 15.9548C3.4164 15.9548 3.41643 15.9548 3.41646 15.9548L3.41637 15.9548L3.4508 16.0128L3.41637 15.9548ZM8.27139 1.01246L8.2714 1.01249L8.27139 1.01246Z" stroke="white"/>
</svg>
