<svg width="19" height="21" viewBox="0 0 19 21" fill="none" xmlns="http://www.w3.org/2000/svg">
<path fill-rule="evenodd" clip-rule="evenodd" d="M16.1942 6.46802C17.3382 7.96402 18.0202 9.85602 18.0202 11.88C18.0202 16.808 14.0162 20.79 9.1102 20.79C4.1822 20.812 0.200195 16.808 0.200195 11.88C0.200195 7.19402 3.8082 3.36602 8.3842 2.99202V2.46402H7.15219C6.73419 2.46402 6.4042 2.13402 6.4042 1.71602C6.4042 1.29802 6.73419 0.968018 7.15219 0.968018H11.1122C11.5302 0.968018 11.8602 1.29802 11.8602 1.71602C11.8602 2.13402 11.5302 2.46402 11.1122 2.46402H9.8802V2.99202C11.2442 3.10202 12.5422 3.52002 13.6642 4.20202L13.9722 3.82802C14.3242 3.41002 14.9402 3.36602 15.3362 3.69602L16.4582 4.64202C16.8762 4.99402 16.9202 5.61002 16.5682 6.02802L16.1942 6.46802ZM9.1102 4.44402C4.9962 4.44402 1.6742 7.76602 1.6742 11.88C1.6742 15.994 4.9962 19.316 9.1102 19.316C13.2242 19.316 16.5462 15.994 16.5462 11.88C16.5462 7.76602 13.2242 4.44402 9.1102 4.44402ZM10.6282 11.044C10.7602 11.286 10.8482 11.572 10.8482 11.88C10.8482 12.848 10.0782 13.618 9.1102 13.618C8.1422 13.618 7.37219 12.848 7.37219 11.88C7.37219 10.912 8.1422 10.142 9.1102 10.142C9.3962 10.142 9.6822 10.208 9.9242 10.34L11.7282 8.53602C11.9262 8.33802 12.2342 8.33802 12.4322 8.53602C12.6302 8.73402 12.6302 9.04202 12.4322 9.24002L10.6282 11.044Z" fill="#E6C000"/>
</svg>
