<svg width="24" height="20" viewBox="0 0 24 20" fill="none" xmlns="http://www.w3.org/2000/svg">
<path d="M11.2996 4.00369V6.803L13.3991 5.40331L11.2996 4.00369ZM21.8937 1.46333C21.8937 1.10084 21.5995 0.806641 21.237 0.806641H2.76296C2.40047 0.806641 2.10627 1.10084 2.10627 1.46333V13.9399H21.8937V1.46333H21.8937ZM9.98622 2.7767C9.98622 2.53453 10.1195 2.31202 10.333 2.19772C10.5466 2.08343 10.8057 2.09589 11.0072 2.2303L14.9472 4.85698C15.1298 4.97878 15.2396 5.18384 15.2396 5.40338C15.2396 5.62292 15.1298 5.82799 14.9472 5.94978L11.0072 8.57646C10.8973 8.64971 10.7703 8.68675 10.6429 8.68675C10.5366 8.68675 10.4302 8.66099 10.333 8.60904C10.1195 8.49474 9.98622 8.27223 9.98622 8.03006V2.7767ZM18.6104 11.3133H7.35955V11.97C7.35955 12.3326 7.06557 12.6267 6.70286 12.6267C6.34015 12.6267 6.04617 12.3327 6.04617 11.97V11.3133H5.38948C5.02685 11.3133 4.7328 11.0193 4.7328 10.6566C4.7328 10.2939 5.02678 9.9999 5.38948 9.9999H6.04617V9.34321C6.04617 8.98058 6.34015 8.68652 6.70286 8.68652C7.06557 8.68652 7.35955 8.9805 7.35955 9.34321V9.99997H18.6104C18.973 9.99997 19.2671 10.294 19.2671 10.6567C19.2671 11.0194 18.9731 11.3133 18.6104 11.3133ZM22.5503 15.2533H1.44966C1.08717 15.2533 0.792969 15.5475 0.792969 15.9099V17.2232C0.792969 18.3094 1.67684 19.1932 2.76296 19.1932H21.237C22.3232 19.1932 23.207 18.3094 23.207 17.2232V15.9099C23.207 15.5475 22.9128 15.2533 22.5503 15.2533Z" fill="url(#paint0_linear)"/>
<defs>
<linearGradient id="paint0_linear" x1="12" y1="19.1932" x2="12" y2="0.806715" gradientUnits="userSpaceOnUse">
<stop stop-color="#9CFFAC"/>
<stop offset="1" stop-color="#00B59C"/>
</linearGradient>
</defs>
</svg>
