<svg width="96" height="34" viewBox="0 0 96 34" fill="none" xmlns="http://www.w3.org/2000/svg">
<path d="M0 17C0 7.61116 7.61116 0 17 0H78.9286C88.3174 0 95.9286 7.61116 95.9286 17V17C95.9286 26.3888 88.3174 34 78.9286 34H17C7.61118 34 0 26.3888 0 17V17Z" fill="white"/>
<path d="M36.48 22.126C35.7613 22.126 35.08 22.0326 34.436 21.846C33.8013 21.65 33.2833 21.3886 32.882 21.062C32.6673 20.9033 32.56 20.6793 32.56 20.39C32.56 20.194 32.616 20.026 32.728 19.886C32.8493 19.7366 32.9893 19.662 33.148 19.662C33.316 19.662 33.5073 19.7273 33.722 19.858C34.1233 20.1473 34.5433 20.3573 34.982 20.488C35.4207 20.6186 35.906 20.684 36.438 20.684C37.1193 20.684 37.642 20.5673 38.006 20.334C38.37 20.0913 38.552 19.7413 38.552 19.284C38.552 18.9293 38.3793 18.6586 38.034 18.472C37.698 18.276 37.1333 18.0893 36.34 17.912C35.5187 17.7346 34.8513 17.5293 34.338 17.296C33.8247 17.0626 33.4373 16.764 33.176 16.4C32.9147 16.036 32.784 15.574 32.784 15.014C32.784 14.4353 32.9473 13.9173 33.274 13.46C33.6007 13.0026 34.0533 12.648 34.632 12.396C35.22 12.1346 35.878 12.004 36.606 12.004C37.9407 12.004 39.028 12.3586 39.868 13.068C39.9893 13.1706 40.0733 13.2733 40.12 13.376C40.176 13.4693 40.204 13.5906 40.204 13.74C40.204 13.936 40.1433 14.1086 40.022 14.258C39.91 14.398 39.7747 14.468 39.616 14.468C39.5227 14.468 39.434 14.454 39.35 14.426C39.2753 14.398 39.1727 14.3466 39.042 14.272C38.6593 13.992 38.286 13.7866 37.922 13.656C37.5673 13.516 37.1287 13.446 36.606 13.446C35.9713 13.446 35.4673 13.5766 35.094 13.838C34.73 14.09 34.548 14.4446 34.548 14.902C34.548 15.2846 34.7113 15.5786 35.038 15.784C35.3647 15.9893 35.92 16.1806 36.704 16.358C37.5347 16.5446 38.2067 16.7546 38.72 16.988C39.2427 17.212 39.6393 17.5013 39.91 17.856C40.19 18.2106 40.33 18.654 40.33 19.186C40.33 19.7646 40.1667 20.278 39.84 20.726C39.5227 21.1646 39.07 21.51 38.482 21.762C37.9033 22.0046 37.236 22.126 36.48 22.126ZM50.4057 12.06C50.6764 12.06 50.8911 12.144 51.0497 12.312C51.2084 12.4706 51.2877 12.6853 51.2877 12.956V21.174C51.2877 21.4446 51.2037 21.664 51.0357 21.832C50.8771 22 50.6671 22.084 50.4057 22.084C50.1351 22.084 49.9204 22 49.7617 21.832C49.6031 21.664 49.5237 21.4446 49.5237 21.174V17.716H44.4697V21.174C44.4697 21.4446 44.3857 21.664 44.2177 21.832C44.0591 22 43.8444 22.084 43.5737 22.084C43.3124 22.084 43.0977 22 42.9297 21.832C42.7711 21.664 42.6917 21.4446 42.6917 21.174V12.956C42.6917 12.6853 42.7711 12.4706 42.9297 12.312C43.0884 12.144 43.3031 12.06 43.5737 12.06C43.8444 12.06 44.0591 12.144 44.2177 12.312C44.3857 12.4706 44.4697 12.6853 44.4697 12.956V16.26H49.5237V12.956C49.5237 12.6853 49.6031 12.4706 49.7617 12.312C49.9204 12.144 50.1351 12.06 50.4057 12.06ZM63.0565 20.922C63.1125 21.0433 63.1405 21.1646 63.1405 21.286C63.1405 21.5006 63.0518 21.6826 62.8745 21.832C62.7065 21.9813 62.5105 22.056 62.2865 22.056C62.1372 22.056 61.9972 22.0186 61.8665 21.944C61.7358 21.86 61.6332 21.734 61.5585 21.566L60.7185 19.69H55.7905L54.9505 21.566C54.8758 21.734 54.7732 21.86 54.6425 21.944C54.5118 22.0186 54.3672 22.056 54.2085 22.056C53.9938 22.056 53.7978 21.9813 53.6205 21.832C53.4432 21.6826 53.3545 21.5006 53.3545 21.286C53.3545 21.1646 53.3825 21.0433 53.4385 20.922L57.3025 12.62C57.3865 12.4333 57.5125 12.2933 57.6805 12.2C57.8578 12.0973 58.0445 12.046 58.2405 12.046C58.4365 12.046 58.6185 12.0973 58.7865 12.2C58.9638 12.2933 59.0945 12.4333 59.1785 12.62L63.0565 20.922ZM56.4065 18.29H60.1025L58.2545 14.132L56.4065 18.29ZM73.0971 20.866C73.2091 21.034 73.2651 21.1973 73.2651 21.356C73.2651 21.5706 73.1764 21.748 72.9991 21.888C72.8311 22.028 72.6304 22.098 72.3971 22.098C72.2478 22.098 72.1031 22.0653 71.9631 22C71.8324 21.9253 71.7204 21.818 71.6271 21.678L69.7651 18.85C69.5784 18.5513 69.3778 18.3413 69.1631 18.22C68.9578 18.0986 68.6871 18.038 68.3511 18.038H66.9791V21.174C66.9791 21.454 66.8998 21.678 66.7411 21.846C66.5824 22.0046 66.3678 22.084 66.0971 22.084C65.8264 22.084 65.6071 22.0046 65.4391 21.846C65.2804 21.678 65.2011 21.454 65.2011 21.174V12.984C65.2011 12.7133 65.2758 12.5033 65.4251 12.354C65.5838 12.2046 65.7984 12.13 66.0691 12.13H69.5691C70.6891 12.13 71.5384 12.382 72.1171 12.886C72.7051 13.3806 72.9991 14.0993 72.9991 15.042C72.9991 15.8073 72.7798 16.4373 72.3411 16.932C71.9118 17.4173 71.3004 17.73 70.5071 17.87C70.7778 17.9353 71.0158 18.052 71.2211 18.22C71.4264 18.388 71.6271 18.6213 71.8231 18.92L73.0971 20.866ZM69.3171 16.652C69.9984 16.652 70.4978 16.526 70.8151 16.274C71.1324 16.0126 71.2911 15.616 71.2911 15.084C71.2911 14.5426 71.1324 14.1506 70.8151 13.908C70.4978 13.656 69.9984 13.53 69.3171 13.53H66.9651V16.652H69.3171ZM76.5035 22C76.2328 22 76.0182 21.9253 75.8595 21.776C75.7102 21.6266 75.6355 21.4166 75.6355 21.146V12.984C75.6355 12.7133 75.7102 12.5033 75.8595 12.354C76.0182 12.2046 76.2328 12.13 76.5035 12.13H81.5575C81.8282 12.13 82.0382 12.1906 82.1875 12.312C82.3368 12.4333 82.4115 12.606 82.4115 12.83C82.4115 13.0633 82.3368 13.2453 82.1875 13.376C82.0382 13.4973 81.8282 13.558 81.5575 13.558H77.3995V16.274H81.2775C81.5482 16.274 81.7582 16.3346 81.9075 16.456C82.0568 16.5773 82.1315 16.7546 82.1315 16.988C82.1315 17.212 82.0568 17.3846 81.9075 17.506C81.7582 17.6273 81.5482 17.688 81.2775 17.688H77.3995V20.572H81.5575C81.8282 20.572 82.0382 20.6373 82.1875 20.768C82.3368 20.8893 82.4115 21.0666 82.4115 21.3C82.4115 21.524 82.3368 21.6966 82.1875 21.818C82.0382 21.9393 81.8282 22 81.5575 22H76.5035Z" fill="#98989C"/>
<g clip-path="url(#clip0)">
<path d="M21.2188 19.375C20.4641 19.375 19.7779 19.6739 19.2723 20.1594L16.2643 18.2958C16.4359 17.8981 16.5312 17.46 16.5312 17C16.5312 16.54 16.4359 16.1019 16.2643 15.7042L19.2722 13.8407C19.7779 14.3261 20.4641 14.625 21.2188 14.625C22.7696 14.625 24.0312 13.3633 24.0312 11.8125C24.0312 10.2617 22.7696 9 21.2188 9C19.6679 9 18.4062 10.2617 18.4062 11.8125C18.4062 12.2703 18.5163 12.703 18.7112 13.0854L15.7737 14.9053C15.1713 14.1808 14.2636 13.7188 13.25 13.7188C11.4407 13.7188 9.96875 15.1907 9.96875 17C9.96875 18.8093 11.4407 20.2812 13.25 20.2812C14.2636 20.2812 15.1713 19.8192 15.7737 19.0947L18.7112 20.9146C18.5163 21.297 18.4062 21.7297 18.4062 22.1875C18.4062 23.7383 19.6679 25 21.2188 25C22.7696 25 24.0312 23.7383 24.0312 22.1875C24.0312 20.6367 22.7696 19.375 21.2188 19.375Z" fill="#03CBC9"/>
</g>
<defs>
<clipPath id="clip0">
<rect width="16" height="16" fill="white" transform="translate(9 9)"/>
</clipPath>
</defs>
</svg>
