<svg width="34" height="34" viewBox="0 0 34 34" fill="none" xmlns="http://www.w3.org/2000/svg">
<path d="M0 17C0 7.61116 7.61116 0 17 0V0C26.3888 0 34 7.61116 34 17V17C34 26.3888 26.3888 34 17 34V34C7.61116 34 0 26.3888 0 17V17Z" fill="white"/>
<g clip-path="url(#clip0)">
<path d="M21.2188 19.375C20.4641 19.375 19.7779 19.6739 19.2723 20.1594L16.2643 18.2958C16.4359 17.8981 16.5312 17.46 16.5312 17C16.5312 16.54 16.4359 16.1019 16.2643 15.7042L19.2722 13.8407C19.7779 14.3261 20.4641 14.625 21.2188 14.625C22.7696 14.625 24.0312 13.3633 24.0312 11.8125C24.0312 10.2617 22.7696 9 21.2188 9C19.6679 9 18.4062 10.2617 18.4062 11.8125C18.4062 12.2703 18.5163 12.703 18.7112 13.0854L15.7737 14.9053C15.1713 14.1808 14.2636 13.7188 13.25 13.7188C11.4407 13.7188 9.96875 15.1907 9.96875 17C9.96875 18.8093 11.4407 20.2812 13.25 20.2812C14.2636 20.2812 15.1713 19.8192 15.7737 19.0947L18.7112 20.9146C18.5163 21.297 18.4062 21.7297 18.4062 22.1875C18.4062 23.7383 19.6679 25 21.2188 25C22.7696 25 24.0312 23.7383 24.0312 22.1875C24.0312 20.6367 22.7696 19.375 21.2188 19.375Z" fill="#03CBC9"/>
</g>
<defs>
<clipPath id="clip0">
<rect width="16" height="16" fill="white" transform="translate(9 9)"/>
</clipPath>
</defs>
</svg>
