<svg width="26" height="26" viewBox="0 0 26 26" fill="none" xmlns="http://www.w3.org/2000/svg">
<path d="M11.6819 3.30444C11.8898 3.12141 12.2003 3.1222 12.405 3.30681C12.487 3.38014 14.3707 5.02821 15.8198 3.95582C14.9242 1.63448 12.8036 0 10.3337 0C7.6455 0 5.37027 1.94346 4.64307 4.60121C5.96642 4.88159 9.38871 5.34401 11.6819 3.30444Z" fill="#98989C"/>
<path d="M10.3359 14.7171C13.7808 14.7171 16.278 9.76091 16.278 6.41884C16.278 5.94767 16.2277 5.48961 16.1383 5.04723C14.6908 5.8545 13.0257 5.13252 12.0475 4.40906C10.4839 5.61061 8.58754 5.93143 7.00751 5.93143C5.94018 5.93143 5.02136 5.7853 4.44386 5.66503C4.41689 5.91272 4.39929 6.16338 4.39929 6.41884C4.3993 9.76091 6.8963 14.7171 10.3359 14.7171Z" fill="#98989C"/>
<path d="M17.7124 21.2822C17.2358 22.1326 16.8187 23.0318 16.4396 24.0068C16.1089 24.8474 15.1936 25.2582 14.3324 24.9385C13.4984 24.6135 13.0866 23.671 13.4062 22.8368C13.8829 21.6018 14.4192 20.4806 15.0312 19.4135C15.0312 18.2001 15.2208 17.1114 15.5512 16.1418C15.4103 16.1364 15.2695 16.131 15.1287 16.131C15.0908 16.131 15.0529 16.131 15.0149 16.1418C11.857 16.8243 8.72085 16.8243 5.66037 16.1418C5.62255 16.131 5.58459 16.131 5.54664 16.131C2.48629 16.131 0 18.5143 0 21.4393V24.516C-5.41661e-06 25.3339 0.682497 26.0001 1.52753 26.0001H19.1479C19.9875 26.0001 20.6754 25.3339 20.6754 24.516V20.5022C20.6754 20.3235 20.6646 20.1447 20.6483 19.9768C19.4782 20.6431 18.3733 21.0601 17.7124 21.2822Z" fill="#98989C"/>
<path d="M25.9299 10.2379C25.8269 10.0429 25.6103 9.93996 25.3882 9.96704C25.2969 9.97779 15.9071 11.2962 16.118 19.7025C15.5376 20.6814 14.9564 21.8382 14.4178 23.2256C14.3099 23.5044 14.448 23.8183 14.7267 23.9265C15.004 24.0344 15.3187 23.8983 15.4281 23.6176C15.9217 22.3459 16.4529 21.2809 16.9828 20.3758C18.0137 20.0731 23.0276 18.4169 23.9798 14.6525C24.0232 14.4845 23.9853 14.3058 23.877 14.1758C23.7687 14.0404 23.6007 13.9645 23.4273 13.9754L23.3677 13.9808L25.8811 10.8445C26.0219 10.6712 26.0382 10.4329 25.9299 10.2379Z" fill="#98989C"/>
</svg>
