<svg width="44" height="36" viewBox="0 0 44 36" fill="none" xmlns="http://www.w3.org/2000/svg">
<path d="M1.94 0.870972C1.38772 0.870972 0.940002 1.31869 0.940002 1.87097V28.3871C0.940002 28.9394 1.38772 29.3871 1.94 29.3871H26.4C26.9523 29.3871 27.4 28.9394 27.4 28.3871V24.3548C27.4 23.8026 27.8477 23.3548 28.4 23.3548H28.56C29.1123 23.3548 29.5527 22.9052 29.6221 22.3573C29.8181 20.8094 30.47 19.4619 31.4668 18.505C32.6726 17.3476 34.326 16.7742 36.04 16.7742C36.4674 16.7742 36.8919 16.8092 37.3066 16.8801C38.0083 16.9999 38.74 16.5067 38.74 15.7949V1.87097C38.74 1.31869 38.2923 0.870972 37.74 0.870972H1.94ZM16.06 10.3287C16.06 9.54838 16.914 9.06872 17.5803 9.47476L25.4585 14.2751C26.0981 14.6648 26.0981 15.5933 25.4585 15.983L17.5803 20.7833C16.9139 21.1894 16.06 20.7097 16.06 19.9294V10.3287ZM36.04 18.4194C34.7545 18.4194 33.5186 18.8537 32.6143 19.7218C31.71 20.5899 31.18 21.8821 31.18 23.3548V24C31.18 24.5523 30.7323 25 30.18 25H30.02C29.4677 25 29.02 25.4477 29.02 26V34.9677C29.02 35.52 29.4677 35.9677 30.02 35.9677H42.06C42.6123 35.9677 43.06 35.52 43.06 34.9677V26C43.06 25.4477 42.6123 25 42.06 25H41.9C41.3477 25 40.9 24.5523 40.9 24V23.3548C40.9 21.8821 40.3699 20.5899 39.4657 19.7218C38.5613 18.8537 37.3255 18.4194 36.04 18.4194ZM36.04 20.6129C36.8487 20.6129 37.5184 20.8719 37.9807 21.3155C38.4427 21.7592 38.74 22.3971 38.74 23.3548V24C38.74 24.5523 38.2923 25 37.74 25H34.34C33.7877 25 33.34 24.5523 33.34 24V23.3548C33.34 22.3971 33.6372 21.7592 34.0993 21.3155C34.5615 20.8719 35.2313 20.6129 36.04 20.6129Z" fill="#03CBC9"/>
</svg>
